Perun-Thin.ufo
<glyph name="quotedbl" format="2">
	<unicode hex="0022"/>
	<advance width="451"/>
	<outline>
		<contour>
			<point x="93" y="434" type="line"/>
			<point x="70" y="722" type="line"/>
			<point x="176" y="722" type="line"/>
			<point x="153" y="434" type="line"/>
		</contour>
		<contour>
			<point x="299" y="434" type="line"/>
			<point x="276" y="722" type="line"/>
			<point x="382" y="722" type="line"/>
			<point x="359" y="434" type="line"/>
		</contour>
	</outline>
</glyph>
<glyph name="numbersign" format="2">
	<unicode hex="0023"/>
	<advance width="745"/>
	<outline>
		<contour>
			<point x="286" y="308" type="line"/>
			<point x="418" y="308" type="line"/>
			<point x="460" y="444" type="line"/>
			<point x="329" y="444" type="line"/>
		</contour>
		<contour>
			<point x="120" y="0" type="line"/>
			<point x="192" y="239" type="line"/>
			<point x="50" y="239" type="line"/>
			<point x="71" y="308" type="line"/>
			<point x="213" y="308" type="line"/>
			<point x="255" y="444" type="line"/>
			<point x="114" y="444" type="line"/>
			<point x="135" y="513" type="line"/>
			<point x="276" y="513" type="line"/>
			<point x="340" y="722" type="line"/>
			<point x="415" y="722" type="line"/>
			<point x="350" y="513" type="line"/>
			<point x="481" y="513" type="line"/>
			<point x="545" y="722" type="line"/>
			<point x="619" y="722" type="line"/>
			<point x="555" y="513" type="line"/>
			<point x="696" y="513" type="line"/>
			<point x="675" y="444" type="line"/>
			<point x="533" y="444" type="line"/>
			<point x="491" y="308" type="line"/>
			<point x="632" y="308" type="line"/>
			<point x="611" y="239" type="line"/>
			<point x="470" y="239" type="line"/>
			<point x="399" y="0" type="line"/>
			<point x="325" y="0" type="line"/>
			<point x="396" y="239" type="line"/>
			<point x="266" y="239" type="line"/>
			<point x="194" y="0" type="line"/>
		</contour>
	</outline>
</glyph>
<glyph name="percent" format="2">
	<unicode hex="0025"/>
	<advance width="927"/>
	<outline>
		<contour>
			<point x="221" y="-14" type="line"/>
			<point x="647" y="736" type="line"/>
			<point x="717" y="736" type="line"/>
			<point x="290" y="-14" type="line"/>
		</contour>
		<contour>
			<point x="50" y="532.992" type="curve" smooth="yes"/>
			<point x="50" y="648.071"/>
			<point x="117" y="726"/>
			<point x="228" y="726" type="curve" smooth="yes"/>
			<point x="340" y="726"/>
			<point x="406" y="647.079"/>
			<point x="406" y="532" type="curve" smooth="yes"/>
			<point x="406" y="416.921"/>
			<point x="340" y="338"/>
			<point x="231" y="338" type="curve" smooth="yes"/>
			<point x="127" y="338"/>
			<point x="50" y="409.976"/>
		</contour>
		<contour>
			<point x="135" y="532" type="curve" smooth="yes"/>
			<point x="135" y="458.587"/>
			<point x="155" y="407"/>
			<point x="228" y="407" type="curve" smooth="yes"/>
			<point x="302" y="407"/>
			<point x="321" y="457.595"/>
			<point x="321" y="531.008" type="curve" smooth="yes"/>
			<point x="321" y="605.413"/>
			<point x="301" y="657"/>
			<point x="228" y="657" type="curve" smooth="yes"/>
			<point x="155" y="657"/>
			<point x="135" y="605.413"/>
		</contour>
		<contour>
			<point x="521" y="188.984" type="curve" smooth="yes"/>
			<point x="521" y="302.144"/>
			<point x="588" y="380"/>
			<point x="700" y="380" type="curve" smooth="yes"/>
			<point x="804" y="380"/>
			<point x="879" y="312"/>
			<point x="879" y="188.984" type="curve" smooth="yes"/>
			<point x="879" y="66.968"/>
			<point x="804" y="-4"/>
			<point x="700" y="-4" type="curve" smooth="yes"/>
			<point x="588" y="-4"/>
			<point x="521" y="75.824"/>
		</contour>
		<contour>
			<point x="606" y="188" type="curve" smooth="yes"/>
			<point x="606" y="115.184"/>
			<point x="625" y="65"/>
			<point x="700" y="65" type="curve" smooth="yes"/>
			<point x="775" y="65"/>
			<point x="794" y="115.184"/>
			<point x="794" y="188" type="curve" smooth="yes"/>
			<point x="794" y="260.816"/>
			<point x="775" y="311"/>
			<point x="700" y="311" type="curve" smooth="yes"/>
			<point x="625" y="311"/>
			<point x="606" y="260.816"/>
		</contour>
	</outline>
</glyph>
<glyph name="ampersand" format="2">
	<unicode hex="0026"/>
	<advance width="765"/>
	<outline>
		<contour>
			<point x="567" y="0" type="line"/>
			<point x="703.455" y="0" type="line"/>
			<point x="297.671" y="434.161" type="line" smooth="yes"/>
			<point x="242.521" y="493.168"/>
			<point x="226.175" y="532.191"/>
			<point x="226.175" y="570.709" type="curve" smooth="yes"/>
			<point x="226.175" y="631.637"/>
			<point x="267.077" y="661"/>
			<point x="320.204" y="661" type="curve" smooth="yes"/>
			<point x="373" y="661"/>
			<point x="419" y="632"/>
			<point x="419" y="578.154" type="curve" smooth="yes"/>
			<point x="419" y="542.23"/>
			<point x="398.524" y="522.864"/>
			<point x="318.42" y="474.1" type="curve" smooth="yes"/>
			<point x="253.025" y="434.29" type="line"/>
			<point x="291.755" y="376.151" type="line"/>
			<point x="360.611" y="418.185" type="line" smooth="yes"/>
			<point x="474.972" y="487.996"/>
			<point x="501" y="529.685"/>
			<point x="501" y="586.015" type="curve" smooth="yes"/>
			<point x="501" y="689"/>
			<point x="414" y="736"/>
			<point x="319.5" y="736" type="curve" smooth="yes"/>
			<point x="207.865" y="736"/>
			<point x="127.175" y="670.41"/>
			<point x="127.175" y="560.339" type="curve" smooth="yes"/>
			<point x="127.175" y="510.233"/>
			<point x="158.205" y="449.447"/>
			<point x="230.844" y="369.585" type="curve" smooth="yes"/>
		</contour>
		<contour>
			<point x="498.056" y="142.605" type="line"/>
			<point x="451.052" y="94.0882"/>
			<point x="375.483" y="73"/>
			<point x="318.382" y="73" type="curve" smooth="yes"/>
			<point x="230.458" y="73"/>
			<point x="169" y="123"/>
			<point x="169" y="199.871" type="curve" smooth="yes"/>
			<point x="169" y="255.637"/>
			<point x="191.342" y="314.886"/>
			<point x="233.912" y="343.271" type="curve" smooth="yes"/>
			<point x="277.435" y="372.292" type="line"/>
			<point x="240.409" y="431.379" type="line"/>
			<point x="183.66" y="397.073" type="line" smooth="yes"/>
			<point x="115.251" y="355.72"/>
			<point x="70" y="287.338"/>
			<point x="70" y="201.356" type="curve" smooth="yes"/>
			<point x="70" y="65"/>
			<point x="161.458" y="-13"/>
			<point x="295.831" y="-13" type="curve" smooth="yes"/>
			<point x="399.095" y="-13"/>
			<point x="498.162" y="33.0648"/>
			<point x="547.803" y="79.9398" type="curve"/>
		</contour>
		<contour>
			<point x="561.876" y="99.5459" type="line"/>
			<point x="627.057" y="171.825"/>
			<point x="651" y="321.98"/>
			<point x="651" y="422" type="curve"/>
			<point x="545" y="422" type="line"/>
			<point x="551" y="379"/>
			<point x="555" y="349"/>
			<point x="555" y="325.856" type="curve" smooth="yes"/>
			<point x="555" y="283.926"/>
			<point x="541.87" y="206.674"/>
			<point x="504.034" y="153.304" type="curve"/>
		</contour>
	</outline>
</glyph>
<glyph name="parenleft" format="2">
	<unicode hex="0028"/>
	<advance width="359"/>
	<outline>
		<contour>
			<point x="204" y="-133" type="line"/>
			<point x="129" y="4"/>
			<point x="91" y="148"/>
			<point x="91" y="301" type="curve" smooth="yes"/>
			<point x="91" y="454"/>
			<point x="129" y="599"/>
			<point x="204" y="736" type="curve"/>
			<point x="268" y="736" type="line"/>
			<point x="213" y="583"/>
			<point x="186" y="439"/>
			<point x="186" y="304" type="curve" smooth="yes"/>
			<point x="186" y="170"/>
			<point x="213" y="23"/>
			<point x="268" y="-133" type="curve"/>
		</contour>
	</outline>
</glyph>
<glyph name="asterisk" format="2">
	<unicode hex="002A"/>
	<advance width="656"/>
	<outline>
		<contour>
			<point x="192" y="375" type="line"/>
			<point x="293" y="509" type="line"/>
			<point x="128" y="488" type="line"/>
			<point x="128" y="570" type="line"/>
			<point x="293" y="549" type="line"/>
			<point x="192" y="683" type="line"/>
			<point x="265" y="722" type="line"/>
			<point x="329" y="576" type="line"/>
			<point x="393" y="722" type="line"/>
			<point x="465" y="683" type="line"/>
			<point x="364" y="549" type="line"/>
			<point x="529" y="570" type="line"/>
			<point x="529" y="488" type="line"/>
			<point x="364" y="509" type="line"/>
			<point x="465" y="375" type="line"/>
			<point x="393" y="335" type="line"/>
			<point x="329" y="482" type="line"/>
			<point x="265" y="335" type="line"/>
		</contour>
	</outline>
</glyph>
<glyph name="hyphen" format="2">
	<unicode hex="002D"/>
	<advance width="319"/>
	<outline>
		<contour>
			<point x="40" y="203" type="line"/>
			<point x="40" y="285" type="line"/>
			<point x="280" y="285" type="line"/>
			<point x="280" y="203" type="line"/>
		</contour>
	</outline>
</glyph>
<glyph name="three" format="2">
	<unicode hex="0033"/>
	<advance width="558"/>
	<outline>
		<contour>
			<point x="46" y="190" type="curve"/>
			<point x="152" y="190" type="line"/>
			<point x="152" y="113.826"/>
			<point x="202.143" y="63"/>
			<point x="277.803" y="63" type="curve" smooth="yes"/>
			<point x="353.625" y="63"/>
			<point x="413" y="112.587"/>
			<point x="413" y="213.634" type="curve" smooth="yes"/>
			<point x="413" y="280.567"/>
			<point x="370.099" y="336"/>
			<point x="294.378" y="336" type="curve" smooth="yes"/>
			<point x="210.205" y="336" type="line"/>
			<point x="210.205" y="416" type="line"/>
			<point x="282.595" y="416" type="line" smooth="yes"/>
			<point x="353.033" y="416"/>
			<point x="401" y="463.456"/>
			<point x="401" y="540.014" type="curve" smooth="yes"/>
			<point x="401" y="613.228"/>
			<point x="357.131" y="659"/>
			<point x="287.162" y="659" type="curve" smooth="yes"/>
			<point x="211.671" y="659"/>
			<point x="161" y="605.718"/>
			<point x="161" y="532" type="curve"/>
			<point x="61" y="532" type="line"/>
			<point x="61" y="649.329"/>
			<point x="157.115" y="736"/>
			<point x="293.66" y="736" type="curve" smooth="yes"/>
			<point x="418.946" y="736"/>
			<point x="501" y="663.425"/>
			<point x="501" y="550.4" type="curve" smooth="yes"/>
			<point x="501" y="467.648"/>
			<point x="457.015" y="403.497"/>
			<point x="380.542" y="380.445" type="curve"/>
			<point x="381.017" y="384.252" type="line"/>
			<point x="467.591" y="364.652"/>
			<point x="513" y="292.435"/>
			<point x="513" y="201.585" type="curve" smooth="yes"/>
			<point x="513" y="68"/>
			<point x="414.822" y="-14"/>
			<point x="275.291" y="-14" type="curve" smooth="yes"/>
			<point x="138.498" y="-14"/>
			<point x="46" y="66.0163"/>
		</contour>
	</outline>
</glyph>
<glyph name="four" format="2">
	<unicode hex="0034"/>
	<advance width="558"/>
	<outline>
		<contour>
			<point x="110" y="259" type="line"/>
			<point x="347" y="259" type="line"/>
			<point x="347" y="612" type="line"/>
		</contour>
		<contour>
			<point x="30" y="176" type="line"/>
			<point x="30" y="281" type="line"/>
			<point x="330" y="722" type="line"/>
			<point x="440" y="722" type="line"/>
			<point x="440" y="259" type="line"/>
			<point x="529" y="259" type="line"/>
			<point x="529" y="176" type="line"/>
			<point x="440" y="176" type="line"/>
			<point x="440" y="0" type="line"/>
			<point x="347" y="0" type="line"/>
			<point x="347" y="176" type="line"/>
		</contour>
	</outline>
</glyph>
<glyph name="six" format="2">
	<unicode hex="0036"/>
	<advance width="558"/>
	<outline>
		<contour>
			<point x="157" y="216.502" type="curve" smooth="yes"/>
			<point x="157" y="120.2"/>
			<point x="205.288" y="63"/>
			<point x="285.08" y="63" type="curve" smooth="yes"/>
			<point x="364.313" y="63"/>
			<point x="412" y="119.4"/>
			<point x="412" y="218" type="curve" smooth="yes"/>
			<point x="412" y="314.962"/>
			<point x="367.229" y="369"/>
			<point x="286.895" y="369" type="curve" smooth="yes"/>
			<point x="204.143" y="369"/>
			<point x="157" y="311.656"/>
		</contour>
		<contour>
			<point x="47" y="310.686" type="curve" smooth="yes"/>
			<point x="47" y="597.945"/>
			<point x="127.836" y="737"/>
			<point x="291.699" y="737" type="curve" smooth="yes"/>
			<point x="412.421" y="737"/>
			<point x="492" y="661.526"/>
			<point x="492" y="550" type="curve"/>
			<point x="392" y="550" type="line"/>
			<point x="392" y="612.802"/>
			<point x="351.157" y="660"/>
			<point x="296.81" y="660" type="curve" smooth="yes"/>
			<point x="192.952" y="660"/>
			<point x="147" y="566.138"/>
			<point x="147" y="354" type="curve"/>
			<point x="170.669" y="406.527"/>
			<point x="232.818" y="446"/>
			<point x="291.852" y="446" type="curve" smooth="yes"/>
			<point x="437.39" y="446"/>
			<point x="512" y="368.051"/>
			<point x="512" y="216" type="curve" smooth="yes"/>
			<point x="512" y="74"/>
			<point x="419.423" y="-14"/>
			<point x="277.936" y="-14" type="curve" smooth="yes"/>
			<point x="121.507" y="-14"/>
			<point x="47" y="93.5701"/>
		</contour>
	</outline>
</glyph>
<glyph name="seven" format="2">
	<unicode hex="0037"/>
	<advance width="558"/>
	<outline>
		<contour>
			<point x="157" y="0" type="line"/>
			<point x="412" y="642" type="line"/>
			<point x="57" y="642" type="line"/>
			<point x="57" y="722" type="line"/>
			<point x="502" y="722" type="line"/>
			<point x="502" y="622" type="line"/>
			<point x="267" y="0" type="line"/>
		</contour>
	</outline>
</glyph>
<glyph name="eight" format="2">
	<unicode hex="0038"/>
	<advance width="558"/>
	<outline>
		<contour>
			<point x="135" y="199" type="curve" smooth="yes"/>
			<point x="135" y="113"/>
			<point x="187" y="64"/>
			<point x="276" y="64" type="curve" smooth="yes"/>
			<point x="365" y="64"/>
			<point x="416" y="114"/>
			<point x="416" y="200" type="curve" smooth="yes"/>
			<point x="416" y="288"/>
			<point x="362" y="343"/>
			<point x="277" y="343" type="curve" smooth="yes"/>
			<point x="191" y="343"/>
			<point x="135" y="287"/>
		</contour>
		<contour>
			<point x="277" y="420" type="curve" smooth="yes"/>
			<point x="349" y="420"/>
			<point x="400" y="471"/>
			<point x="400" y="545" type="curve" smooth="yes"/>
			<point x="400" y="617"/>
			<point x="353" y="661"/>
			<point x="277" y="661" type="curve" smooth="yes"/>
			<point x="201" y="661"/>
			<point x="154" y="616"/>
			<point x="154" y="545" type="curve" smooth="yes"/>
			<point x="154" y="472"/>
			<point x="205" y="420"/>
		</contour>
		<contour>
			<point x="514" y="185" type="curve" smooth="yes"/>
			<point x="514" y="64"/>
			<point x="421" y="-13"/>
			<point x="276" y="-13" type="curve" smooth="yes"/>
			<point x="132" y="-13"/>
			<point x="40" y="64"/>
			<point x="40" y="185" type="curve" smooth="yes"/>
			<point x="40" y="280"/>
			<point x="91" y="354"/>
			<point x="177" y="383" type="curve"/>
			<point x="107" y="413"/>
			<point x="62" y="481"/>
			<point x="62" y="557" type="curve" smooth="yes"/>
			<point x="62" y="663"/>
			<point x="151" y="738"/>
			<point x="277" y="738" type="curve" smooth="yes"/>
			<point x="404" y="738"/>
			<point x="495" y="661"/>
			<point x="495" y="552" type="curve" smooth="yes"/>
			<point x="495" y="482"/>
			<point x="457" y="428"/>
			<point x="375" y="384" type="curve"/>
			<point x="468" y="353"/>
			<point x="514" y="288"/>
		</contour>
	</outline>
</glyph>
<glyph name="semicolon" format="2">
	<unicode hex="003B"/>
	<advance width="275"/>
	<outline>
		<contour>
			<point x="48" y="-127" type="line"/>
			<point x="108" y="123" type="line"/>
			<point x="228" y="123" type="line"/>
			<point x="118" y="-127" type="line"/>
		</contour>
		<contour>
			<point x="98" y="377" type="line"/>
			<point x="98" y="500" type="line"/>
			<point x="206" y="500" type="line"/>
			<point x="206" y="377" type="line"/>
		</contour>
	</outline>
</glyph>
<glyph name="greater" format="2">
	<unicode hex="003E"/>
	<advance width="700"/>
	<outline>
		<contour>
			<point x="50" y="39" type="line"/>
			<point x="50" y="101" type="line"/>
			<point x="586" y="300" type="line"/>
			<point x="50" y="499" type="line"/>
			<point x="50" y="561" type="line"/>
			<point x="650" y="331" type="line"/>
			<point x="650" y="269" type="line"/>
		</contour>
	</outline>
</glyph>
<glyph name="question" format="2">
	<unicode hex="003F"/>
	<advance width="516"/>
	<outline>
		<contour>
			<point x="269" y="0" type="line"/>
			<point x="169" y="0" type="line"/>
			<point x="169" y="95" type="line"/>
			<point x="269" y="95" type="line"/>
		</contour>
		<contour>
			<point x="360" y="558" type="curve" smooth="yes"/>
			<point x="360" y="610"/>
			<point x="316" y="649"/>
			<point x="236" y="649" type="curve" smooth="yes"/>
			<point x="162" y="649"/>
			<point x="118" y="615"/>
			<point x="91" y="563" type="curve"/>
			<point x="25" y="605" type="line"/>
			<point x="67" y="686"/>
			<point x="139" y="737"/>
			<point x="235" y="737" type="curve" smooth="yes"/>
			<point x="339" y="737"/>
			<point x="460" y="676"/>
			<point x="460" y="543" type="curve" smooth="yes"/>
			<point x="460" y="455"/>
			<point x="408" y="422"/>
			<point x="356" y="390" type="curve" smooth="yes"/>
			<point x="307" y="359"/>
			<point x="259" y="329"/>
			<point x="259" y="254" type="curve" smooth="yes"/>
			<point x="259" y="165" type="line"/>
			<point x="179" y="165" type="line"/>
			<point x="179" y="263" type="line" smooth="yes"/>
			<point x="179" y="326"/>
			<point x="219" y="359"/>
			<point x="262" y="393" type="curve" smooth="yes"/>
			<point x="310" y="431"/>
			<point x="360" y="471"/>
		</contour>
	</outline>
</glyph>
<glyph name="A" format="2">
	<unicode hex="0041"/>
	<advance width="706"/>
	<outline>
		<contour>
			<point x="40" y="0" type="line"/>
			<point x="63" y="0" type="line"/>
			<point x="352.627" y="702.23" type="line"/>
			<point x="643" y="0" type="line"/>
			<point x="666" y="0" type="line"/>
			<point x="363" y="722" type="line"/>
			<point x="343" y="722" type="line"/>
		</contour>
		<contour>
			<point x="551" y="248" type="line"/>
			<point x="156" y="248" type="line"/>
			<point x="148" y="230" type="line"/>
			<point x="558" y="230" type="line"/>
		</contour>
	</outline>
	<anchor name="bottom" x="353" y="-75"/>
	<anchor name="ogonekUC" x="651" y="10"/>
	<anchor name="top" x="353" y="797"/>
	<guideline x="353" y="0" angle="90"/>
	<guideline x="0" y="230" angle="0"/>
	<guideline x="0" y="248" angle="0"/>
	<guideline x="363" y="702" angle="292.446"/>
	<guideline x="53" y="0" angle="67.5542"/>
</glyph>
<glyph name="B" format="2">
	<unicode hex="0042"/>
	<advance width="575"/>
	<outline>
		<component base="I" xOffset="-10"/>
		<contour>
			<point x="81" y="0" type="line"/>
			<point x="298" y="0" type="line" smooth="yes"/>
			<point x="439" y="0"/>
			<point x="495" y="92"/>
			<point x="495" y="208" type="curve" smooth="yes"/>
			<point x="495" y="296"/>
			<point x="452.983" y="356.774"/>
			<point x="376" y="385" type="curve"/>
			<point x="376" y="390" type="line"/>
			<point x="438.788" y="424.621"/>
			<point x="469" y="474"/>
			<point x="469" y="542" type="curve" smooth="yes"/>
			<point x="469" y="653"/>
			<point x="415" y="722"/>
			<point x="282" y="722" type="curve" smooth="yes"/>
			<point x="81" y="722" type="line"/>
			<point x="81" y="702" type="line"/>
			<point x="272" y="702" type="line" smooth="yes"/>
			<point x="395" y="702"/>
			<point x="447" y="639"/>
			<point x="447" y="548" type="curve" smooth="yes"/>
			<point x="447" y="485"/>
			<point x="411" y="390"/>
			<point x="298" y="390" type="curve" smooth="yes"/>
			<point x="81" y="390" type="line"/>
			<point x="81" y="370" type="line"/>
			<point x="305" y="370" type="line" smooth="yes"/>
			<point x="423" y="370"/>
			<point x="469" y="288"/>
			<point x="469" y="212" type="curve" smooth="yes"/>
			<point x="469" y="93"/>
			<point x="416" y="20"/>
			<point x="290" y="20" type="curve" smooth="yes"/>
			<point x="81" y="20" type="line"/>
		</contour>
	</outline>
	<anchor name="top" x="208" y="797"/>
</glyph>
<glyph name="C" format="2">
	<unicode hex="0043"/>
	<advance width="660"/>
	<outline>
		<contour>
			<point x="358" y="734" type="line"/>
			<point x="512" y="734"/>
			<point x="606" y="657"/>
			<point x="606" y="527" type="curve"/>
			<point x="586.022" y="527" type="line"/>
			<point x="586.022" y="635"/>
			<point x="508" y="713.856"/>
			<point x="358" y="713.856" type="curve"/>
		</contour>
		<contour>
			<point x="357" y="8" type="line"/>
			<point x="507.061" y="8"/>
			<point x="590.021" y="78.4407"/>
			<point x="590.021" y="195" type="curve"/>
			<point x="610" y="195" type="line"/>
			<point x="610" y="64"/>
			<point x="518" y="-12"/>
			<point x="357" y="-12" type="curve"/>
		</contour>
		<contour>
			<point x="60" y="361" type="curve" smooth="yes"/>
			<point x="60" y="579"/>
			<point x="140" y="734"/>
			<point x="358" y="734" type="curve"/>
			<point x="358" y="714" type="line"/>
			<point x="158" y="714"/>
			<point x="82" y="561"/>
			<point x="82" y="361" type="curve" smooth="yes"/>
			<point x="82" y="161"/>
			<point x="158" y="7.53642"/>
			<point x="358" y="7.53642" type="curve"/>
			<point x="358" y="-12" type="line"/>
			<point x="140" y="-12"/>
			<point x="60" y="143"/>
		</contour>
	</outline>
	<anchor name="bottom" x="357" y="10"/>
	<anchor name="top" x="335" y="797"/>
</glyph>
<glyph name="D" format="2">
	<unicode hex="0044"/>
	<advance width="622"/>
	<outline>
		<component base="I" xOffset="-10"/>
		<contour>
			<point x="77" y="0" type="line"/>
			<point x="285.037" y="0" type="line" smooth="yes"/>
			<point x="438.035" y="0"/>
			<point x="572" y="115.917"/>
			<point x="572" y="366" type="curve" smooth="yes"/>
			<point x="572" y="593"/>
			<point x="458" y="722"/>
			<point x="295" y="722" type="curve" smooth="yes"/>
			<point x="77" y="722" type="line"/>
			<point x="77" y="702" type="line"/>
			<point x="287" y="702" type="line" smooth="yes"/>
			<point x="450" y="702"/>
			<point x="550" y="564.695"/>
			<point x="550" y="363" type="curve" smooth="yes"/>
			<point x="550" y="164.598"/>
			<point x="441.512" y="20"/>
			<point x="297" y="20" type="curve" smooth="yes"/>
			<point x="77" y="20" type="line"/>
		</contour>
	</outline>
	<anchor name="top" x="177" y="797"/>
</glyph>
<glyph name="E" format="2">
	<unicode hex="0045"/>
	<advance width="510"/>
	<outline>
		<component base="I" xOffset="-10"/>
		<contour>
			<point x="92" y="722" type="line"/>
			<point x="440" y="722" type="line"/>
			<point x="440" y="704" type="line"/>
			<point x="92" y="704" type="line"/>
		</contour>
		<contour>
			<point x="92" y="18" type="line"/>
			<point x="450" y="18" type="line"/>
			<point x="450" y="0" type="line"/>
			<point x="92" y="0" type="line"/>
		</contour>
		<contour>
			<point x="92" y="378" type="line"/>
			<point x="430" y="378" type="line"/>
			<point x="430" y="360" type="line"/>
			<point x="92" y="360" type="line"/>
		</contour>
	</outline>
	<anchor name="top" x="258" y="797"/>
	<guideline x="440" y="0" angle="90"/>
	<guideline x="70" y="0" angle="90"/>
	<guideline x="70" y="0" angle="62.8664"/>
	<guideline x="450" y="0" angle="117.759"/>
	<guideline x="258" y="0" angle="90"/>
</glyph>
<glyph name="F" format="2">
	<unicode hex="0046"/>
	<advance width="540"/>
	<outline>
		<component base="I" xOffset="58"/>
		<contour>
			<point x="159" y="378" type="line"/>
			<point x="497" y="378" type="line"/>
			<point x="497" y="360" type="line"/>
			<point x="159" y="360" type="line"/>
		</contour>
		<contour>
			<point x="160" y="722" type="line"/>
			<point x="508" y="722" type="line"/>
			<point x="508" y="704" type="line"/>
			<point x="160" y="704" type="line"/>
		</contour>
	</outline>
	<anchor name="top" x="275" y="797"/>
</glyph>
<glyph name="G" format="2">
	<unicode hex="0047"/>
	<advance width="735"/>
	<outline>
		<contour>
			<point x="358" y="714" type="line"/>
			<point x="507.683" y="714"/>
			<point x="611" y="637.635"/>
			<point x="611" y="527" type="curve"/>
			<point x="633" y="527" type="line"/>
			<point x="633" y="651.6"/>
			<point x="524.019" y="734"/>
			<point x="358" y="734" type="curve"/>
		</contour>
		<contour>
			<point x="358" y="8.12841" type="curve"/>
			<point x="358" y="-12" type="line"/>
			<point x="476.232" y="-12"/>
			<point x="570.608" y="2.27838"/>
			<point x="629" y="29" type="curve"/>
			<point x="629" y="326" type="line"/>
			<point x="364" y="326" type="line"/>
			<point x="364" y="306.261" type="line"/>
			<point x="607" y="306.261" type="line"/>
			<point x="606.939" y="41.3215" type="line"/>
			<point x="545.321" y="18.4466"/>
			<point x="467.937" y="8.12841"/>
		</contour>
		<contour>
			<point x="60" y="361" type="curve" smooth="yes"/>
			<point x="60" y="143"/>
			<point x="140" y="-12"/>
			<point x="358" y="-12" type="curve"/>
			<point x="358" y="7.53642" type="line"/>
			<point x="158" y="7.53642"/>
			<point x="82" y="161"/>
			<point x="82" y="361" type="curve" smooth="yes"/>
			<point x="82" y="561"/>
			<point x="158" y="714"/>
			<point x="358" y="714" type="curve"/>
			<point x="358" y="734" type="line"/>
			<point x="140" y="734"/>
			<point x="60" y="579"/>
		</contour>
	</outline>
	<anchor name="top" x="357" y="797"/>
	<guideline x="358" y="0" angle="90"/>
</glyph>
<glyph name="H" format="2">
	<unicode hex="0048"/>
	<advance width="620"/>
	<outline>
		<component base="I" xOffset="-10"/>
		<component base="I" xOffset="448" yOffset="0"/>
		<contour>
			<point x="82" y="379" type="line"/>
			<point x="539" y="379" type="line"/>
			<point x="539" y="361" type="line"/>
			<point x="82" y="361" type="line"/>
		</contour>
	</outline>
	<anchor name="bottom" x="363" y="-75"/>
	<anchor name="cedilla.bottom" x="42" y="10"/>
	<anchor name="left" x="-58" y="361"/>
	<anchor name="top" x="310" y="797"/>
	<guideline x="70" y="0" angle="90"/>
	<guideline x="550" y="0" angle="90"/>
	<guideline x="70" y="0" angle="56.3832"/>
	<guideline x="550" y="0" angle="123.617"/>
	<guideline x="310" y="0" angle="90"/>
</glyph>
<glyph name="L" format="2">
	<unicode hex="004C"/>
	<advance width="495"/>
	<outline>
		<component base="I"/>
		<contour>
			<point x="102" y="18" type="line"/>
			<point x="460" y="18" type="line"/>
			<point x="460" y="0" type="line"/>
			<point x="102" y="0" type="line"/>
		</contour>
	</outline>
	<anchor name="top" x="106" y="797"/>
</glyph>
<glyph name="M" format="2">
	<unicode hex="004D"/>
	<advance width="724"/>
	<outline>
		<contour>
			<point x="70" y="0" type="line"/>
			<point x="70" y="722" type="line"/>
			<point x="92" y="722" type="line"/>
			<point x="92" y="0" type="line"/>
		</contour>
		<contour>
			<point x="631.955" y="0" type="line"/>
			<point x="631.955" y="722" type="line"/>
			<point x="653.955" y="722" type="line"/>
			<point x="653.955" y="0" type="line"/>
		</contour>
		<contour>
			<point x="352" y="0" type="line"/>
			<point x="82" y="722" type="line"/>
			<point x="102" y="722" type="line"/>
			<point x="367.177" y="25.9216" type="line"/>
			<point x="356.781" y="25.9373" type="line"/>
			<point x="622" y="722" type="line"/>
			<point x="642" y="722" type="line"/>
			<point x="372" y="0" type="line"/>
		</contour>
	</outline>
	<anchor name="top" x="361" y="797"/>
	<guideline x="362" y="0" angle="90"/>
</glyph>
<glyph name="O" format="2">
	<unicode hex="004F"/>
	<advance width="754"/>
	<outline>
		<contour>
			<point x="80" y="361" type="curve" smooth="yes"/>
			<point x="80" y="579"/>
			<point x="160" y="734"/>
			<point x="378" y="734" type="curve"/>
			<point x="378" y="714" type="line"/>
			<point x="178" y="714"/>
			<point x="102" y="561"/>
			<point x="102" y="361" type="curve" smooth="yes"/>
			<point x="102" y="161"/>
			<point x="178" y="7.53642"/>
			<point x="378" y="7.53642" type="curve"/>
			<point x="378" y="-12" type="line"/>
			<point x="160" y="-12"/>
			<point x="80" y="143"/>
		</contour>
		<contour>
			<point x="676" y="361" type="curve" smooth="yes"/>
			<point x="676" y="579"/>
			<point x="596" y="734"/>
			<point x="378" y="734" type="curve"/>
			<point x="378" y="714" type="line"/>
			<point x="578" y="714"/>
			<point x="654" y="561"/>
			<point x="654" y="361" type="curve" smooth="yes"/>
			<point x="654" y="161"/>
			<point x="578" y="7.53642"/>
			<point x="378" y="7.53642" type="curve"/>
			<point x="378" y="-12" type="line"/>
			<point x="596" y="-12"/>
			<point x="676" y="143"/>
		</contour>
	</outline>
	<anchor name="top" x="365" y="797"/>
	<guideline x="80" y="0" angle="90"/>
	<guideline x="102" y="0" angle="90"/>
	<guideline x="0" y="714" angle="0"/>
</glyph>
<glyph name="P" format="2">
	<unicode hex="0050"/>
	<advance width="593"/>
	<outline>
		<contour>
			<point x="160" y="394" type="line"/>
			<point x="267" y="394" type="line" smooth="yes"/>
			<point x="376" y="394"/>
			<point x="446" y="414"/>
			<point x="446" y="513" type="curve" smooth="yes"/>
			<point x="446" y="612"/>
			<point x="375" y="635"/>
			<point x="267" y="635" type="curve" smooth="yes"/>
			<point x="160" y="635" type="line"/>
		</contour>
		<contour>
			<point x="60" y="0" type="line"/>
			<point x="60" y="722" type="line"/>
			<point x="264" y="722" type="line" smooth="yes"/>
			<point x="428" y="722"/>
			<point x="543" y="680"/>
			<point x="543" y="514" type="curve" smooth="yes"/>
			<point x="543" y="348"/>
			<point x="428" y="306"/>
			<point x="264" y="306" type="curve" smooth="yes"/>
			<point x="160" y="306" type="line"/>
			<point x="160" y="0" type="line"/>
		</contour>
	</outline>
	<anchor name="top" x="235" y="797"/>
</glyph>
<glyph name="R" format="2">
	<unicode hex="0052"/>
	<advance width="617"/>
	<outline>
		<contour>
			<point x="58" y="0" type="line"/>
			<point x="58" y="722" type="line"/>
			<point x="287" y="722" type="line" smooth="yes"/>
			<point x="469" y="722"/>
			<point x="547" y="663"/>
			<point x="547" y="525" type="curve" smooth="yes"/>
			<point x="547" y="454"/>
			<point x="496" y="395"/>
			<point x="410" y="367" type="curve"/>
			<point x="410" y="371" type="line"/>
			<point x="501" y="358"/>
			<point x="511" y="286"/>
			<point x="522" y="215" type="curve" smooth="yes"/>
			<point x="531" y="155" type="line" smooth="yes"/>
			<point x="540" y="98"/>
			<point x="554" y="36"/>
			<point x="567" y="0" type="curve"/>
			<point x="463" y="0" type="line"/>
			<point x="454" y="35"/>
			<point x="446" y="80"/>
			<point x="437" y="143" type="curve" smooth="yes"/>
			<point x="432" y="173" type="line" smooth="yes"/>
			<point x="415" y="293"/>
			<point x="379" y="328"/>
			<point x="278" y="328" type="curve" smooth="yes"/>
			<point x="158" y="328" type="line"/>
			<point x="158" y="0" type="line"/>
		</contour>
		<contour>
			<point x="158" y="414" type="line"/>
			<point x="284" y="414" type="line" smooth="yes"/>
			<point x="396" y="414"/>
			<point x="446" y="448"/>
			<point x="446" y="524" type="curve" smooth="yes"/>
			<point x="446" y="600"/>
			<point x="397" y="634"/>
			<point x="284" y="634" type="curve" smooth="yes"/>
			<point x="158" y="634" type="line"/>
		</contour>
	</outline>
	<anchor name="top" x="265" y="797"/>
</glyph>
<glyph name="S" format="2">
	<unicode hex="0053"/>
	<advance width="642"/>
	<outline>
		<contour>
			<point x="49" y="214" type="curve"/>
			<point x="149" y="214" type="line"/>
			<point x="149" y="134"/>
			<point x="232" y="73"/>
			<point x="323" y="73" type="curve" smooth="yes"/>
			<point x="434" y="73"/>
			<point x="492" y="116"/>
			<point x="492" y="195" type="curve" smooth="yes"/>
			<point x="492" y="271"/>
			<point x="442" y="305"/>
			<point x="301" y="332" type="curve" smooth="yes"/>
			<point x="121" y="366"/>
			<point x="58" y="419"/>
			<point x="58" y="538" type="curve" smooth="yes"/>
			<point x="58" y="658"/>
			<point x="155" y="737"/>
			<point x="305" y="737" type="curve" smooth="yes"/>
			<point x="470" y="737"/>
			<point x="563" y="666"/>
			<point x="563" y="540" type="curve"/>
			<point x="463" y="540" type="line"/>
			<point x="463" y="617"/>
			<point x="414" y="649"/>
			<point x="298" y="649" type="curve" smooth="yes"/>
			<point x="207" y="649"/>
			<point x="158" y="612"/>
			<point x="158" y="541" type="curve" smooth="yes"/>
			<point x="158" y="448"/>
			<point x="245" y="431"/>
			<point x="340" y="412" type="curve" smooth="yes"/>
			<point x="458" y="389"/>
			<point x="591" y="362"/>
			<point x="591" y="206" type="curve" smooth="yes"/>
			<point x="591" y="56"/>
			<point x="503" y="-15"/>
			<point x="315" y="-15" type="curve" smooth="yes"/>
			<point x="156" y="-15"/>
			<point x="49" y="77"/>
		</contour>
	</outline>
	<anchor name="top" x="305" y="797"/>
</glyph>
<glyph name="U" format="2">
	<unicode hex="0055"/>
	<advance width="697"/>
	<outline>
		<contour>
			<point x="61" y="322" type="curve" smooth="yes"/>
			<point x="61" y="722" type="line"/>
			<point x="161" y="722" type="line"/>
			<point x="161" y="322" type="line" smooth="yes"/>
			<point x="161" y="168"/>
			<point x="199" y="74"/>
			<point x="348" y="74" type="curve" smooth="yes"/>
			<point x="496" y="74"/>
			<point x="536" y="171"/>
			<point x="536" y="322" type="curve" smooth="yes"/>
			<point x="536" y="722" type="line"/>
			<point x="636" y="722" type="line"/>
			<point x="636" y="322" type="line" smooth="yes"/>
			<point x="636" y="78"/>
			<point x="567" y="-14"/>
			<point x="349" y="-14" type="curve" smooth="yes"/>
			<point x="132" y="-14"/>
			<point x="61" y="96"/>
		</contour>
	</outline>
	<anchor name="bottom" x="349" y="-50"/>
	<anchor name="top" x="345" y="797"/>
</glyph>
<glyph name="V" format="2">
	<unicode hex="0056"/>
	<advance width="704"/>
	<outline>
		<contour>
			<point x="664" y="722" type="line"/>
			<point x="407" y="0" type="line"/>
			<point x="297" y="0" type="line"/>
			<point x="40" y="722" type="line"/>
			<point x="153" y="722" type="line"/>
			<point x="352" y="130" type="line"/>
			<point x="551" y="722" type="line"/>
		</contour>
	</outline>
	<anchor name="top" x="400" y="797"/>
</glyph>
<glyph name="W" format="2">
	<unicode hex="0057"/>
	<advance width="972"/>
	<outline>
		<contour>
			<point x="957" y="722" type="line"/>
			<point x="743" y="0" type="line"/>
			<point x="653" y="0" type="line"/>
			<point x="486" y="602" type="line"/>
			<point x="319" y="0" type="line"/>
			<point x="229" y="0" type="line"/>
			<point x="15" y="722" type="line"/>
			<point x="121" y="722" type="line"/>
			<point x="274" y="150" type="line"/>
			<point x="426" y="722" type="line"/>
			<point x="546" y="722" type="line"/>
			<point x="698" y="150" type="line"/>
			<point x="851" y="722" type="line"/>
		</contour>
	</outline>
	<anchor name="top" x="483" y="797"/>
</glyph>
<glyph name="X" format="2">
	<unicode hex="0058"/>
	<advance width="684"/>
	<outline>
		<contour>
			<point x="669" y="0" type="line"/>
			<point x="541" y="0" type="line"/>
			<point x="335" y="314" type="line"/>
			<point x="133" y="0" type="line"/>
			<point x="15" y="0" type="line"/>
			<point x="280" y="385" type="line"/>
			<point x="49" y="722" type="line"/>
			<point x="177" y="722" type="line"/>
			<point x="349" y="456" type="line"/>
			<point x="516" y="722" type="line"/>
			<point x="634" y="722" type="line"/>
			<point x="403" y="385" type="line"/>
		</contour>
	</outline>
	<anchor name="top" x="375" y="797"/>
</glyph>
<glyph name="Y" format="2">
	<unicode hex="0059"/>
	<advance width="666"/>
	<outline>
		<contour>
			<point x="650" y="722" type="line"/>
			<point x="382" y="287" type="line"/>
			<point x="382" y="0" type="line"/>
			<point x="282" y="0" type="line"/>
			<point x="282" y="287" type="line"/>
			<point x="15" y="722" type="line"/>
			<point x="138" y="722" type="line"/>
			<point x="338" y="375" type="line"/>
			<point x="536" y="722" type="line"/>
		</contour>
	</outline>
	<anchor name="top" x="375" y="797"/>
</glyph>
<glyph name="Z" format="2">
	<unicode hex="005A"/>
	<advance width="626"/>
	<outline>
		<contour>
			<point x="576" y="0" type="line"/>
			<point x="50" y="0" type="line"/>
			<point x="50" y="110" type="line"/>
			<point x="456" y="635" type="line"/>
			<point x="70" y="635" type="line"/>
			<point x="70" y="722" type="line"/>
			<point x="566" y="722" type="line"/>
			<point x="566" y="612" type="line"/>
			<point x="160" y="87" type="line"/>
			<point x="576" y="87" type="line"/>
		</contour>
	</outline>
	<anchor name="top" x="315" y="797"/>
</glyph>
<glyph name="backslash" format="2">
	<unicode hex="005C"/>
	<advance width="396"/>
	<outline>
		<contour>
			<point x="351" y="-52" type="line"/>
			<point x="282" y="-52" type="line"/>
			<point x="46" y="736" type="line"/>
			<point x="115" y="736" type="line"/>
		</contour>
	</outline>
</glyph>
<glyph name="asciicircum" format="2">
	<unicode hex="005E"/>
	<advance width="622"/>
	<outline>
		<contour>
			<point x="572" y="10" type="line"/>
			<point x="510" y="10" type="line"/>
			<point x="311" y="546" type="line"/>
			<point x="112" y="10" type="line"/>
			<point x="50" y="10" type="line"/>
			<point x="280" y="610" type="line"/>
			<point x="342" y="610" type="line"/>
		</contour>
	</outline>
</glyph>
<glyph name="grave" format="2">
	<unicode hex="0060"/>
	<advance width="229"/>
	<outline>
		<contour>
			<point x="176" y="600" type="line"/>
			<point x="115" y="600" type="line"/>
			<point x="-25" y="771" type="line"/>
			<point x="76" y="771" type="line"/>
		</contour>
	</outline>
</glyph>
<glyph name="a" format="2">
	<unicode hex="0061"/>
	<advance width="576"/>
	<outline>
		<contour>
			<point x="60" y="140" type="curve" smooth="yes"/>
			<point x="60" y="251"/>
			<point x="161" y="308"/>
			<point x="331" y="308" type="curve" smooth="yes"/>
			<point x="357.52" y="308"/>
			<point x="372.48" y="307"/>
			<point x="399" y="305" type="curve"/>
			<point x="399" y="349" type="line" smooth="yes"/>
			<point x="399" y="410"/>
			<point x="360" y="444"/>
			<point x="290" y="444" type="curve" smooth="yes"/>
			<point x="224" y="444"/>
			<point x="182" y="414"/>
			<point x="182" y="365" type="curve"/>
			<point x="88" y="365" type="line"/>
			<point x="88" y="462"/>
			<point x="158" y="513"/>
			<point x="290" y="513" type="curve" smooth="yes"/>
			<point x="455" y="513"/>
			<point x="495.436" y="451.988"/>
			<point x="493" y="331" type="curve" smooth="yes"/>
			<point x="490" y="182" type="line" smooth="yes"/>
			<point x="487.967" y="81.0205"/>
			<point x="497" y="24"/>
			<point x="506" y="0" type="curve"/>
			<point x="415" y="0" type="line"/>
			<point x="408" y="23"/>
			<point x="404" y="62"/>
			<point x="404" y="72" type="curve"/>
			<point x="349" y="6"/>
			<point x="312" y="-14"/>
			<point x="247" y="-14" type="curve" smooth="yes"/>
			<point x="133" y="-14"/>
			<point x="60" y="46"/>
		</contour>
		<contour>
			<point x="154" y="143" type="curve" smooth="yes"/>
			<point x="154" y="93"/>
			<point x="197" y="55"/>
			<point x="254" y="55" type="curve" smooth="yes"/>
			<point x="351" y="55"/>
			<point x="399" y="105"/>
			<point x="399" y="204" type="curve" smooth="yes"/>
			<point x="399" y="236" type="line"/>
			<point x="379.11" y="238"/>
			<point x="367.89" y="239"/>
			<point x="348" y="239" type="curve" smooth="yes"/>
			<point x="229" y="239"/>
			<point x="154" y="208"/>
		</contour>
	</outline>
	<anchor name="bottom" x="283" y="-50"/>
	<anchor name="ogonekLC" x="432" y="10"/>
	<anchor name="top" x="290" y="580"/>
</glyph>
<glyph name="c" format="2">
	<unicode hex="0063"/>
	<advance width="548"/>
	<outline>
		<contour>
			<point x="60" y="240" type="curve" smooth="yes"/>
			<point x="60" y="399"/>
			<point x="139" y="512"/>
			<point x="290" y="512" type="curve" smooth="yes"/>
			<point x="399" y="512"/>
			<point x="476" y="453"/>
			<point x="484" y="341" type="curve"/>
			<point x="389" y="341" type="line"/>
			<point x="384" y="402"/>
			<point x="349" y="447"/>
			<point x="282" y="447" type="curve" smooth="yes"/>
			<point x="179" y="447"/>
			<point x="155" y="342"/>
			<point x="155" y="246" type="curve" smooth="yes"/>
			<point x="155" y="118"/>
			<point x="198" y="52"/>
			<point x="281" y="52" type="curve" smooth="yes"/>
			<point x="349" y="52"/>
			<point x="393" y="97"/>
			<point x="393" y="169" type="curve"/>
			<point x="488" y="169" type="line"/>
			<point x="482" y="60"/>
			<point x="400" y="-12"/>
			<point x="279" y="-12" type="curve" smooth="yes"/>
			<point x="141" y="-12"/>
			<point x="60" y="79"/>
		</contour>
	</outline>
	<anchor name="top" x="274" y="580"/>
</glyph>
<glyph name="e" format="2">
	<unicode hex="0065"/>
	<advance width="575"/>
	<outline>
		<contour>
			<point x="60" y="250" type="curve" smooth="yes"/>
			<point x="60" y="405"/>
			<point x="134" y="512"/>
			<point x="291" y="512" type="curve" smooth="yes"/>
			<point x="434" y="512"/>
			<point x="514" y="423"/>
			<point x="514" y="282" type="curve" smooth="yes"/>
			<point x="514" y="236" type="line"/>
			<point x="154" y="236" type="line"/>
			<point x="154" y="134"/>
			<point x="204" y="51"/>
			<point x="299" y="51" type="curve" smooth="yes"/>
			<point x="370" y="51"/>
			<point x="413" y="98"/>
			<point x="419" y="160" type="curve"/>
			<point x="515" y="160" type="line"/>
			<point x="495" y="55"/>
			<point x="418" y="-14"/>
			<point x="291" y="-14" type="curve" smooth="yes"/>
			<point x="128" y="-14"/>
			<point x="60" y="102"/>
		</contour>
		<contour>
			<point x="154" y="301" type="curve"/>
			<point x="420" y="301" type="line"/>
			<point x="420" y="361"/>
			<point x="395" y="447"/>
			<point x="291" y="447" type="curve" smooth="yes"/>
			<point x="213" y="447"/>
			<point x="154" y="399"/>
		</contour>
	</outline>
	<anchor name="bottom" x="288" y="-89"/>
	<anchor name="top" x="284" y="580"/>
</glyph>
<glyph name="f" format="2">
	<unicode hex="0066"/>
	<advance width="345"/>
	<outline>
		<contour>
			<point x="124" y="575" type="line" smooth="yes"/>
			<point x="124" y="688"/>
			<point x="167" y="732"/>
			<point x="271.077" y="732" type="curve" smooth="yes"/>
			<point x="298.253" y="732"/>
			<point x="325" y="729"/>
			<point x="345" y="722" type="curve"/>
			<point x="345" y="648" type="line"/>
			<point x="329.037" y="657.236"/>
			<point x="308.574" y="660"/>
			<point x="290.507" y="660" type="curve" smooth="yes"/>
			<point x="233" y="660"/>
			<point x="214" y="632"/>
			<point x="214" y="573" type="curve" smooth="yes"/>
			<point x="214" y="500" type="line"/>
			<point x="334" y="500" type="line"/>
			<point x="334" y="435" type="line"/>
			<point x="214" y="435" type="line"/>
			<point x="214" y="0" type="line"/>
			<point x="124" y="0" type="line"/>
			<point x="124" y="435" type="line"/>
			<point x="24" y="435" type="line"/>
			<point x="24" y="500" type="line"/>
			<point x="124" y="500" type="line"/>
		</contour>
	</outline>
	<anchor name="bottom" x="185" y="-75"/>
	<anchor name="top" x="204" y="757"/>
</glyph>
<glyph name="h" format="2">
	<unicode hex="0068"/>
	<advance width="593"/>
	<outline>
		<contour>
			<point x="337" y="512" type="curve" smooth="yes"/>
			<point x="456" y="512"/>
			<point x="513" y="451"/>
			<point x="513" y="310" type="curve" smooth="yes"/>
			<point x="513" y="0" type="line"/>
			<point x="423" y="0" type="line"/>
			<point x="423" y="314" type="line" smooth="yes"/>
			<point x="423" y="387"/>
			<point x="385" y="445"/>
			<point x="318" y="445" type="curve" smooth="yes"/>
			<point x="248" y="445"/>
			<point x="170" y="396"/>
			<point x="170" y="301" type="curve" smooth="yes"/>
			<point x="170" y="0" type="line"/>
			<point x="80" y="0" type="line"/>
			<point x="80" y="722" type="line"/>
			<point x="170" y="722" type="line"/>
			<point x="170" y="437" type="line"/>
			<point x="200" y="479"/>
			<point x="258" y="512"/>
		</contour>
	</outline>
	<anchor name="bottom" x="300" y="-75"/>
	<anchor name="cedilla.bottom" x="122" y="10"/>
	<anchor name="top" x="300" y="797"/>
</glyph>
<glyph name="j" format="2">
	<unicode hex="006A"/>
	<advance width="275"/>
	<outline>
		<contour>
			<point x="40" y="-200" type="line"/>
			<point x="40" y="-134" type="line"/>
			<point x="65" y="-134" type="line" smooth="yes"/>
			<point x="95" y="-134"/>
			<point x="96" y="-91"/>
			<point x="96" y="-44" type="curve" smooth="yes"/>
			<point x="96" y="500" type="line"/>
			<point x="186" y="500" type="line"/>
			<point x="186" y="-74" type="line" smooth="yes"/>
			<point x="186" y="-161"/>
			<point x="135" y="-200"/>
			<point x="65" y="-200" type="curve" smooth="yes"/>
		</contour>
		<contour>
			<point x="89" y="630" type="line"/>
			<point x="89" y="722" type="line"/>
			<point x="195" y="722" type="line"/>
			<point x="195" y="630" type="line"/>
		</contour>
	</outline>
</glyph>
<glyph name="m" format="2">
	<unicode hex="006D"/>
	<advance width="910"/>
	<outline>
		<contour>
			<point x="80" y="0" type="line"/>
			<point x="80" y="500" type="line"/>
			<point x="170" y="500" type="line"/>
			<point x="170" y="431" type="line"/>
			<point x="210" y="486"/>
			<point x="255" y="512"/>
			<point x="314" y="512" type="curve" smooth="yes"/>
			<point x="410" y="512"/>
			<point x="447" y="485"/>
			<point x="484" y="423" type="curve"/>
			<point x="526" y="482"/>
			<point x="579" y="512"/>
			<point x="645" y="512" type="curve" smooth="yes"/>
			<point x="768" y="512"/>
			<point x="830" y="450"/>
			<point x="830" y="325" type="curve" smooth="yes"/>
			<point x="830" y="0" type="line"/>
			<point x="740" y="0" type="line"/>
			<point x="740" y="322" type="line" smooth="yes"/>
			<point x="740" y="400"/>
			<point x="704" y="448"/>
			<point x="627" y="448" type="curve" smooth="yes"/>
			<point x="558" y="448"/>
			<point x="500" y="379"/>
			<point x="500" y="323" type="curve" smooth="yes"/>
			<point x="500" y="0" type="line"/>
			<point x="410" y="0" type="line"/>
			<point x="410" y="323" type="line" smooth="yes"/>
			<point x="410" y="404"/>
			<point x="366" y="449"/>
			<point x="298" y="449" type="curve" smooth="yes"/>
			<point x="224" y="449"/>
			<point x="170" y="379"/>
			<point x="170" y="323" type="curve" smooth="yes"/>
			<point x="170" y="0" type="line"/>
		</contour>
	</outline>
	<anchor name="top" x="464" y="580"/>
</glyph>
<glyph name="q" format="2">
	<unicode hex="0071"/>
	<advance width="620"/>
	<outline>
		<contour>
			<point x="60" y="247.386" type="curve" smooth="yes"/>
			<point x="60" y="403.226"/>
			<point x="129.263" y="512"/>
			<point x="285.412" y="512" type="curve" smooth="yes"/>
			<point x="356.048" y="512"/>
			<point x="407.576" y="489.742"/>
			<point x="450" y="435.065" type="curve"/>
			<point x="450" y="499.587" type="line"/>
			<point x="540" y="499.587" type="line"/>
			<point x="540" y="-200" type="line"/>
			<point x="450" y="-200" type="line"/>
			<point x="450" y="52.995" type="line"/>
			<point x="394.437" y="11"/>
			<point x="340.894" y="-12"/>
			<point x="290.382" y="-12" type="curve" smooth="yes"/>
			<point x="127.284" y="-12"/>
			<point x="60" y="93.7889"/>
		</contour>
		<contour>
			<point x="154" y="250" type="curve" smooth="yes"/>
			<point x="154" y="145.528"/>
			<point x="198.451" y="53"/>
			<point x="302.505" y="53" type="curve" smooth="yes"/>
			<point x="402.519" y="53"/>
			<point x="450" y="139.558"/>
			<point x="450" y="250" type="curve" smooth="yes"/>
			<point x="450" y="360.442"/>
			<point x="402.519" y="447"/>
			<point x="302.505" y="447" type="curve" smooth="yes"/>
			<point x="198.451" y="447"/>
			<point x="154" y="354.472"/>
		</contour>
	</outline>
	<anchor name="bottom" x="300" y="-275"/>
	<anchor name="top" x="275" y="580"/>
</glyph>
<glyph name="r" format="2">
	<unicode hex="0072"/>
	<advance width="372"/>
	<outline>
		<contour>
			<point x="80" y="0" type="line"/>
			<point x="80" y="500" type="line"/>
			<point x="170" y="500" type="line"/>
			<point x="170" y="432" type="line"/>
			<point x="198" y="481"/>
			<point x="232" y="500"/>
			<point x="352" y="500" type="curve"/>
			<point x="352" y="420" type="line"/>
			<point x="231" y="420"/>
			<point x="170" y="373"/>
			<point x="170" y="280" type="curve" smooth="yes"/>
			<point x="170" y="0" type="line"/>
		</contour>
	</outline>
	<anchor name="top" x="214" y="580"/>
</glyph>
<glyph name="z" format="2">
	<unicode hex="007A"/>
	<advance width="488"/>
	<outline>
		<contour>
			<point x="428" y="0" type="line"/>
			<point x="60" y="0" type="line"/>
			<point x="60" y="82.0722" type="line"/>
			<point x="326" y="431" type="line"/>
			<point x="80" y="431" type="line"/>
			<point x="80" y="500" type="line"/>
			<point x="428" y="500" type="line"/>
			<point x="428" y="417.928" type="line"/>
			<point x="160" y="69" type="line"/>
			<point x="428" y="69" type="line"/>
		</contour>
	</outline>
	<anchor name="top" x="264" y="580"/>
</glyph>
<glyph name="cent" format="2">
	<unicode hex="00A2"/>
	<advance width="558"/>
	<outline>
		<component base="c" xOffset="5"/>
		<contour>
			<point x="425" y="612" type="line"/>
			<point x="376" y="625" type="line"/>
			<point x="131" y="-126" type="line"/>
			<point x="179" y="-139" type="line"/>
		</contour>
	</outline>
</glyph>
<glyph name="sterling" format="2">
	<unicode hex="00A3"/>
	<advance width="558"/>
	<outline>
		<contour>
			<point x="113" y="539" type="line" smooth="yes"/>
			<point x="113" y="673"/>
			<point x="224" y="736"/>
			<point x="328" y="736" type="curve" smooth="yes"/>
			<point x="432" y="736"/>
			<point x="543" y="677"/>
			<point x="543" y="579" type="curve"/>
			<point x="454" y="579" type="line"/>
			<point x="454" y="637"/>
			<point x="387" y="672"/>
			<point x="328" y="672" type="curve" smooth="yes"/>
			<point x="268" y="672"/>
			<point x="202" y="634"/>
			<point x="202" y="539" type="curve" smooth="yes"/>
			<point x="202" y="456" type="line"/>
			<point x="367" y="456" type="line"/>
			<point x="367" y="392" type="line"/>
			<point x="202" y="392" type="line"/>
			<point x="202" y="64" type="line"/>
			<point x="523" y="64" type="line"/>
			<point x="523" y="0" type="line"/>
			<point x="44" y="0" type="line"/>
			<point x="44" y="64" type="line"/>
			<point x="113" y="64" type="line"/>
			<point x="113" y="392" type="line"/>
			<point x="44" y="392" type="line"/>
			<point x="44" y="456" type="line"/>
			<point x="113" y="456" type="line"/>
		</contour>
	</outline>
</glyph>
<glyph name="currency" format="2">
	<unicode hex="00A4"/>
	<advance width="619"/>
	<outline>
		<contour>
			<point x="99" y="427" type="curve" smooth="yes"/>
			<point x="99" y="310.764"/>
			<point x="196.89" y="216"/>
			<point x="311.987" y="216" type="curve" smooth="yes"/>
			<point x="430.435" y="216"/>
			<point x="521" y="314.985"/>
			<point x="521" y="431" type="curve" smooth="yes"/>
			<point x="521" y="543.653"/>
			<point x="424.437" y="639"/>
			<point x="312.981" y="639" type="curve" smooth="yes"/>
			<point x="192.921" y="639"/>
			<point x="99" y="546.308"/>
		</contour>
		<contour>
			<point x="157" y="427" type="curve" smooth="yes"/>
			<point x="157" y="513"/>
			<point x="226.545" y="582"/>
			<point x="311.987" y="582" type="curve" smooth="yes"/>
			<point x="394.448" y="582"/>
			<point x="463" y="510"/>
			<point x="463" y="428" type="curve" smooth="yes"/>
			<point x="463" y="345"/>
			<point x="394.448" y="273"/>
			<point x="311.987" y="273" type="curve" smooth="yes"/>
			<point x="227.539" y="273"/>
			<point x="157" y="342"/>
		</contour>
		<contour>
			<point x="193.369" y="584.393" type="line"/>
			<point x="76" y="700" type="line"/>
			<point x="40" y="664" type="line"/>
			<point x="157.603" y="548.393" type="line"/>
		</contour>
		<contour>
			<point x="465.393" y="549.393" type="line"/>
			<point x="580" y="664" type="line"/>
			<point x="544" y="700" type="line"/>
			<point x="427.625" y="583.393" type="line"/>
		</contour>
		<contour>
			<point x="429.612" y="273.607" type="line"/>
			<point x="543" y="160" type="line"/>
			<point x="580" y="196" type="line"/>
			<point x="466.393" y="309.607" type="line"/>
		</contour>
		<contour>
			<point x="155.557" y="309.607" type="line"/>
			<point x="40" y="196" type="line"/>
			<point x="76" y="160" type="line"/>
			<point x="191.382" y="273.607" type="line"/>
		</contour>
	</outline>
</glyph>
<glyph name="yen" format="2">
	<unicode hex="00A5"/>
	<advance width="558"/>
	<outline>
		<contour>
			<point x="556" y="722" type="line"/>
			<point x="447" y="508" type="line"/>
			<point x="546" y="508" type="line"/>
			<point x="546" y="457" type="line"/>
			<point x="422" y="457" type="line"/>
			<point x="364" y="338" type="line"/>
			<point x="546" y="338" type="line"/>
			<point x="546" y="287" type="line"/>
			<point x="331" y="287" type="line"/>
			<point x="331" y="0" type="line"/>
			<point x="229" y="0" type="line"/>
			<point x="229" y="287" type="line"/>
			<point x="14" y="287" type="line"/>
			<point x="14" y="338" type="line"/>
			<point x="198" y="338" type="line"/>
			<point x="140" y="457" type="line"/>
			<point x="14" y="457" type="line"/>
			<point x="14" y="508" type="line"/>
			<point x="115" y="508" type="line"/>
			<point x="4" y="722" type="line"/>
			<point x="109" y="722" type="line"/>
			<point x="281" y="365" type="line"/>
			<point x="451" y="722" type="line"/>
		</contour>
	</outline>
</glyph>
<glyph name="dieresis" format="2">
	<unicode hex="00A8"/>
	<advance width="289"/>
	<outline>
		<contour>
			<point x="90" y="630" type="line"/>
			<point x="0" y="630" type="line"/>
			<point x="0" y="722" type="line"/>
			<point x="90" y="722" type="line"/>
		</contour>
		<contour>
			<point x="290" y="630" type="line"/>
			<point x="200" y="630" type="line"/>
			<point x="200" y="722" type="line"/>
			<point x="290" y="722" type="line"/>
		</contour>
	</outline>
</glyph>
<glyph name="copyright" format="2">
	<unicode hex="00A9"/>
	<advance width="867"/>
	<outline>
		<contour>
			<point x="221" y="356" type="curve" smooth="yes"/>
			<point x="221" y="513"/>
			<point x="289" y="594"/>
			<point x="425" y="594" type="curve" smooth="yes"/>
			<point x="572" y="594"/>
			<point x="621" y="522"/>
			<point x="621" y="441" type="curve"/>
			<point x="541" y="441" type="line"/>
			<point x="541" y="506"/>
			<point x="500" y="539"/>
			<point x="419" y="539" type="curve" smooth="yes"/>
			<point x="357.972" y="539"/>
			<point x="304.276" y="484.493"/>
			<point x="304.276" y="376.694" type="curve" smooth="yes"/>
			<point x="304.276" y="355" type="line" smooth="yes"/>
			<point x="304.276" y="240"/>
			<point x="347" y="183"/>
			<point x="433" y="183" type="curve" smooth="yes"/>
			<point x="504" y="183"/>
			<point x="540" y="235"/>
			<point x="546" y="284" type="curve"/>
			<point x="626" y="284" type="line"/>
			<point x="616" y="181"/>
			<point x="551" y="120"/>
			<point x="434" y="120" type="curve" smooth="yes"/>
			<point x="289" y="120"/>
			<point x="221" y="207"/>
		</contour>
		<contour>
			<point x="59" y="360" type="curve" smooth="yes"/>
			<point x="59" y="566"/>
			<point x="227" y="735"/>
			<point x="433" y="735" type="curve" smooth="yes"/>
			<point x="639" y="735"/>
			<point x="808" y="567"/>
			<point x="808" y="361" type="curve" smooth="yes"/>
			<point x="808" y="155"/>
			<point x="639" y="-16"/>
			<point x="433" y="-16" type="curve" smooth="yes"/>
			<point x="226" y="-16"/>
			<point x="59" y="153"/>
		</contour>
		<contour>
			<point x="109" y="357" type="curve" smooth="yes"/>
			<point x="109" y="176"/>
			<point x="255" y="32"/>
			<point x="432" y="32" type="curve" smooth="yes"/>
			<point x="611" y="32"/>
			<point x="755" y="176"/>
			<point x="755" y="356" type="curve" smooth="yes"/>
			<point x="755" y="532"/>
			<point x="609" y="682"/>
			<point x="432" y="682" type="curve" smooth="yes"/>
			<point x="255" y="682"/>
			<point x="109" y="533"/>
		</contour>
	</outline>
</glyph>
<glyph name="registered" format="2">
	<unicode hex="00AE"/>
	<advance width="867"/>
	<outline>
		<contour>
			<point x="61" y="362" type="curve" smooth="yes"/>
			<point x="61" y="571.556"/>
			<point x="223" y="736"/>
			<point x="433" y="736" type="curve" smooth="yes"/>
			<point x="643" y="736"/>
			<point x="803" y="571.556"/>
			<point x="803" y="362" type="curve" smooth="yes"/>
			<point x="803" y="152"/>
			<point x="643" y="-12"/>
			<point x="433" y="-12" type="curve" smooth="yes"/>
			<point x="223" y="-12"/>
			<point x="61" y="152"/>
		</contour>
		<contour>
			<point x="109" y="362" type="curve" smooth="yes"/>
			<point x="109" y="182"/>
			<point x="253" y="36"/>
			<point x="433" y="36" type="curve" smooth="yes"/>
			<point x="613" y="36"/>
			<point x="755" y="182"/>
			<point x="755" y="362" type="curve" smooth="yes"/>
			<point x="755" y="541.079"/>
			<point x="613" y="688"/>
			<point x="433" y="688" type="curve" smooth="yes"/>
			<point x="253" y="688"/>
			<point x="109" y="541.079"/>
		</contour>
		<contour>
			<point x="275" y="131" type="line"/>
			<point x="275" y="600" type="line"/>
			<point x="449" y="600" type="line" smooth="yes"/>
			<point x="566.615" y="600"/>
			<point x="617" y="560.393"/>
			<point x="617" y="469.493" type="curve" smooth="yes"/>
			<point x="617" y="423.727"/>
			<point x="585.746" y="386.317"/>
			<point x="533" y="369" type="curve"/>
			<point x="572" y="356"/>
			<point x="578.747" y="348.647"/>
			<point x="589" y="319" type="curve" smooth="yes"/>
			<point x="594.585" y="302.85"/>
			<point x="611" y="180"/>
			<point x="630" y="130" type="curve"/>
			<point x="558" y="130" type="line"/>
			<point x="544" y="199"/>
			<point x="534" y="267"/>
			<point x="518" y="314" type="curve" smooth="yes"/>
			<point x="509" y="341"/>
			<point x="469" y="342"/>
			<point x="430" y="342" type="curve" smooth="yes"/>
			<point x="345" y="342" type="line"/>
			<point x="345" y="131" type="line"/>
		</contour>
		<contour>
			<point x="345" y="401" type="line"/>
			<point x="446" y="401" type="line" smooth="yes"/>
			<point x="507" y="401"/>
			<point x="547" y="412.912"/>
			<point x="547" y="469.493" type="curve" smooth="yes"/>
			<point x="547" y="527.066"/>
			<point x="508" y="536"/>
			<point x="446" y="536" type="curve" smooth="yes"/>
			<point x="345" y="536" type="line"/>
		</contour>
	</outline>
</glyph>
<glyph name="macron" format="2">
	<unicode hex="00AF"/>
	<advance width="289"/>
	<outline>
		<contour>
			<point x="290" y="630" type="line"/>
			<point x="0" y="630" type="line"/>
			<point x="0" y="699" type="line"/>
			<point x="290" y="699" type="line"/>
		</contour>
	</outline>
	<anchor name="_top" x="144" y="600"/>
	<anchor name="top.mkmk" x="145" y="774"/>
</glyph>
<glyph name="acute" format="2">
	<unicode hex="00B4"/>
	<advance width="161"/>
	<outline>
		<contour>
			<point x="140" y="722" type="line"/>
			<point x="50" y="512" type="line"/>
			<point x="-20" y="512" type="line"/>
			<point x="40" y="722" type="line"/>
		</contour>
	</outline>
</glyph>
<glyph name="periodcentered" format="2">
	<unicode hex="00B7"/>
	<advance width="275"/>
	<outline>
		<contour>
			<point x="192" y="278" type="line"/>
			<point x="84" y="278" type="line"/>
			<point x="84" y="401" type="line"/>
			<point x="192" y="401" type="line"/>
		</contour>
	</outline>
</glyph>
<glyph name="onehalf" format="2">
	<unicode hex="00BD"/>
	<advance width="799"/>
	<outline>
		<component base="onesuperior"/>
		<component base="twosuperior" xOffset="425" yOffset="-351.145"/>
		<contour>
			<point x="613" y="736" type="line"/>
			<point x="187" y="-14" type="line"/>
			<point x="118" y="-14" type="line"/>
			<point x="544" y="736" type="line"/>
		</contour>
	</outline>
</glyph>
<glyph name="AE" format="2">
	<unicode hex="00C6"/>
	<advance width="976"/>
	<outline>
		<contour>
			<point x="15" y="0" type="line"/>
			<point x="398" y="722" type="line"/>
			<point x="906" y="722" type="line"/>
			<point x="906" y="635" type="line"/>
			<point x="560" y="635" type="line"/>
			<point x="560" y="413" type="line"/>
			<point x="896" y="413" type="line"/>
			<point x="896" y="326" type="line"/>
			<point x="560" y="326" type="line"/>
			<point x="560" y="87" type="line"/>
			<point x="916" y="87" type="line"/>
			<point x="916" y="0" type="line"/>
			<point x="460" y="0" type="line"/>
			<point x="460" y="193" type="line"/>
			<point x="229" y="193" type="line"/>
			<point x="121" y="0" type="line"/>
		</contour>
		<contour>
			<point x="278" y="278" type="line"/>
			<point x="460" y="278" type="line"/>
			<point x="460" y="641" type="line"/>
		</contour>
	</outline>
	<anchor name="top" x="375" y="797"/>
</glyph>
<glyph name="Oslash" format="2">
	<unicode hex="00D8"/>
	<advance width="814"/>
	<outline>
		<component base="O" xOffset="29"/>
		<contour>
			<point x="155" y="-100" type="line"/>
			<point x="80" y="-51" type="line"/>
			<point x="661" y="817" type="line"/>
			<point x="736" y="768" type="line"/>
		</contour>
	</outline>
</glyph>
<glyph name="Thorn" format="2">
	<unicode hex="00DE"/>
	<advance width="622"/>
	<outline>
		<contour>
			<point x="80" y="1" type="line"/>
			<point x="80" y="723" type="line"/>
			<point x="181" y="723" type="line"/>
			<point x="181" y="588" type="line"/>
			<point x="284" y="588" type="line" smooth="yes"/>
			<point x="443" y="588"/>
			<point x="563" y="551"/>
			<point x="563" y="380" type="curve" smooth="yes"/>
			<point x="563" y="215"/>
			<point x="449" y="172"/>
			<point x="284" y="172" type="curve" smooth="yes"/>
			<point x="181" y="172" type="line"/>
			<point x="181" y="1" type="line"/>
		</contour>
		<contour>
			<point x="181" y="260" type="line"/>
			<point x="287" y="260" type="line" smooth="yes"/>
			<point x="396" y="260"/>
			<point x="466" y="280"/>
			<point x="466" y="379" type="curve" smooth="yes"/>
			<point x="466" y="478"/>
			<point x="395" y="501"/>
			<point x="287" y="501" type="curve" smooth="yes"/>
			<point x="181" y="501" type="line"/>
		</contour>
	</outline>
</glyph>
<glyph name="germandbls" format="2">
	<unicode hex="00DF"/>
	<advance width="558"/>
	<outline>
		<contour>
			<point x="51" y="-0.3284" type="line"/>
			<point x="51" y="538.604" type="line" smooth="yes"/>
			<point x="51" y="656.77"/>
			<point x="137.012" y="733"/>
			<point x="270.34" y="733" type="curve" smooth="yes"/>
			<point x="403.147" y="733"/>
			<point x="477" y="680.06"/>
			<point x="477" y="579.324" type="curve" smooth="yes"/>
			<point x="477" y="518.032"/>
			<point x="449.659" y="481.082"/>
			<point x="404.353" y="452.358" type="curve" smooth="yes"/>
			<point x="370.7" y="431.023"/>
			<point x="351" y="407.316"/>
			<point x="351" y="389.242" type="curve" smooth="yes"/>
			<point x="351" y="367.59"/>
			<point x="381.031" y="341.095"/>
			<point x="436.223" y="314.054" type="curve" smooth="yes"/>
			<point x="523.874" y="271.109"/>
			<point x="558" y="224.6"/>
			<point x="558" y="148.087" type="curve" smooth="yes"/>
			<point x="558" y="45.7993"/>
			<point x="494.726" y="-14"/>
			<point x="386.496" y="-14" type="curve" smooth="yes"/>
			<point x="277.667" y="-14"/>
			<point x="208" y="45.8293"/>
			<point x="208" y="139.29" type="curve"/>
			<point x="302" y="139.29" type="line"/>
			<point x="302" y="79.9053"/>
			<point x="335.066" y="51"/>
			<point x="403" y="51" type="curve" smooth="yes"/>
			<point x="441" y="51"/>
			<point x="468" y="86.1339"/>
			<point x="468" y="135.579" type="curve" smooth="yes"/>
			<point x="468" y="202.263"/>
			<point x="419.228" y="227.291"/>
			<point x="368.25" y="253.451" type="curve" smooth="yes"/>
			<point x="283.446" y="296.971"/>
			<point x="254" y="330.041"/>
			<point x="254" y="378.489" type="curve" smooth="yes"/>
			<point x="254" y="423.18"/>
			<point x="279.057" y="460.024"/>
			<point x="326.648" y="490.65" type="curve" smooth="yes"/>
			<point x="355.52" y="509.229"/>
			<point x="382" y="526.27"/>
			<point x="382" y="570.38" type="curve" smooth="yes"/>
			<point x="382" y="625.947"/>
			<point x="340.362" y="659"/>
			<point x="270.362" y="659" type="curve" smooth="yes"/>
			<point x="185.077" y="659"/>
			<point x="141" y="610.458"/>
			<point x="141" y="516.531" type="curve" smooth="yes"/>
			<point x="141" y="-0.328373" type="line"/>
		</contour>
	</outline>
</glyph>
<glyph name="ae" format="2">
	<unicode hex="00E6"/>
	<advance width="905"/>
	<outline>
		<contour>
			<point x="229" y="-14" type="curve" smooth="yes"/>
			<point x="125" y="-14"/>
			<point x="39" y="37"/>
			<point x="39" y="136" type="curve" smooth="yes"/>
			<point x="39" y="247"/>
			<point x="120" y="307"/>
			<point x="281" y="307" type="curve" smooth="yes"/>
			<point x="321" y="307"/>
			<point x="375" y="303"/>
			<point x="399" y="301" type="curve"/>
			<point x="397" y="387"/>
			<point x="354" y="447"/>
			<point x="271" y="447" type="curve" smooth="yes"/>
			<point x="198" y="447"/>
			<point x="159" y="426"/>
			<point x="159" y="376" type="curve"/>
			<point x="66" y="376" type="line"/>
			<point x="66" y="467"/>
			<point x="148" y="512"/>
			<point x="275" y="512" type="curve" smooth="yes"/>
			<point x="369" y="512"/>
			<point x="426" y="472"/>
			<point x="459" y="390" type="curve"/>
			<point x="490" y="472"/>
			<point x="548" y="511"/>
			<point x="651" y="511" type="curve" smooth="yes"/>
			<point x="789" y="511"/>
			<point x="864.5" y="410"/>
			<point x="864.5" y="280" type="curve" smooth="yes"/>
			<point x="864.5" y="238" type="line"/>
			<point x="500" y="238" type="line"/>
			<point x="500" y="140"/>
			<point x="551" y="51"/>
			<point x="636" y="51" type="curve" smooth="yes"/>
			<point x="705" y="51"/>
			<point x="747" y="87"/>
			<point x="762" y="157" type="curve"/>
			<point x="857" y="157" type="line"/>
			<point x="844" y="54"/>
			<point x="771" y="-14"/>
			<point x="656" y="-14" type="curve" smooth="yes"/>
			<point x="548" y="-14"/>
			<point x="472" y="37"/>
			<point x="454" y="126" type="curve"/>
			<point x="443" y="91"/>
			<point x="379" y="-14"/>
		</contour>
		<contour>
			<point x="404" y="243" type="line"/>
			<point x="381" y="245"/>
			<point x="355" y="247"/>
			<point x="329" y="247" type="curve" smooth="yes"/>
			<point x="236" y="247"/>
			<point x="134" y="227"/>
			<point x="134" y="147" type="curve" smooth="yes"/>
			<point x="134" y="83"/>
			<point x="185" y="51"/>
			<point x="242" y="51" type="curve" smooth="yes"/>
			<point x="356" y="51"/>
			<point x="404" y="117"/>
			<point x="404" y="225" type="curve" smooth="yes"/>
		</contour>
		<contour>
			<point x="765" y="303" type="line"/>
			<point x="758" y="382"/>
			<point x="727" y="447"/>
			<point x="636" y="447" type="curve" smooth="yes"/>
			<point x="551" y="447"/>
			<point x="511" y="367"/>
			<point x="503" y="303" type="curve"/>
		</contour>
	</outline>
</glyph>
<glyph name="oslash" format="2">
	<unicode hex="00F8"/>
	<advance width="591"/>
	<outline>
		<component base="o" xOffset="-14"/>
		<contour>
			<point x="82" y="-81" type="line"/>
			<point x="31" y="-44" type="line"/>
			<point x="499" y="591" type="line"/>
			<point x="550" y="554" type="line"/>
		</contour>
	</outline>
</glyph>
<glyph name="Hbar" format="2">
	<unicode hex="0126"/>
	<advance width="669"/>
	<outline>
		<component base="H" xOffset="-10"/>
		<contour>
			<point x="15" y="516" type="line"/>
			<point x="654" y="516" type="line"/>
			<point x="654" y="581" type="line"/>
			<point x="15" y="581" type="line"/>
		</contour>
	</outline>
</glyph>
<glyph name="hbar" format="2">
	<unicode hex="0127"/>
	<advance width="583"/>
	<outline>
		<component base="h"/>
		<contour>
			<point x="-31" y="620" type="line"/>
			<point x="-31" y="565" type="line"/>
			<point x="334" y="565" type="line"/>
			<point x="334" y="620" type="line"/>
		</contour>
	</outline>
</glyph>
<glyph name="lcaron" format="2">
	<unicode hex="013E"/>
	<advance width="392"/>
	<outline>
		<contour>
			<point x="160" y="0" type="line"/>
			<point x="70" y="0" type="line"/>
			<point x="70" y="722" type="line"/>
			<point x="160" y="722" type="line"/>
		</contour>
		<contour>
			<point x="385" y="722" type="line"/>
			<point x="275" y="472" type="line"/>
			<point x="205" y="472" type="line"/>
			<point x="265" y="722" type="line"/>
		</contour>
	</outline>
</glyph>
<glyph name="ldot" format="2">
	<unicode hex="0140"/>
	<advance width="419"/>
	<outline>
		<contour>
			<point x="160" y="0" type="line"/>
			<point x="70" y="0" type="line"/>
			<point x="70" y="722" type="line"/>
			<point x="160" y="722" type="line"/>
		</contour>
		<contour>
			<point x="352" y="278" type="line"/>
			<point x="244" y="278" type="line"/>
			<point x="244" y="401" type="line"/>
			<point x="352" y="401" type="line"/>
		</contour>
	</outline>
</glyph>
<glyph name="napostrophe" format="2">
	<unicode hex="0149"/>
	<advance width="710"/>
	<outline>
		<component base="n" xOffset="115"/>
		<contour>
			<point x="125" y="722" type="line"/>
			<point x="102" y="434" type="line"/>
			<point x="42" y="434" type="line"/>
			<point x="19" y="722" type="line"/>
		</contour>
	</outline>
</glyph>
<glyph name="eng" format="2">
	<unicode hex="014B"/>
	<advance width="595"/>
	<outline>
		<component base="n"/>
		<contour>
			<point x="231.761" y="-143" type="curve"/>
			<point x="288.537" y="-86" type="line"/>
			<point x="309.455" y="-115"/>
			<point x="334.357" y="-130"/>
			<point x="363.243" y="-130" type="curve" smooth="yes"/>
			<point x="400.098" y="-130"/>
			<point x="425" y="-101"/>
			<point x="425" y="-62" type="curve" smooth="yes"/>
			<point x="425" y="50" type="line"/>
			<point x="515" y="50" type="line"/>
			<point x="515" y="-62" type="line" smooth="yes"/>
			<point x="515" y="-146"/>
			<point x="455.337" y="-200"/>
			<point x="369.22" y="-200" type="curve" smooth="yes"/>
			<point x="312.443" y="-200"/>
			<point x="266.624" y="-181"/>
		</contour>
	</outline>
</glyph>
<glyph name="OE" format="2">
	<unicode hex="0152"/>
	<advance width="1004"/>
	<outline>
		<contour>
			<point x="60" y="360" type="curve" smooth="yes"/>
			<point x="60" y="570"/>
			<point x="187" y="736"/>
			<point x="386" y="736" type="curve" smooth="yes"/>
			<point x="426" y="736"/>
			<point x="470" y="731"/>
			<point x="507" y="722" type="curve"/>
			<point x="945" y="722" type="line"/>
			<point x="945" y="635" type="line"/>
			<point x="635" y="635" type="line"/>
			<point x="635" y="413" type="line"/>
			<point x="925" y="413" type="line"/>
			<point x="925" y="326" type="line"/>
			<point x="635" y="326" type="line"/>
			<point x="635" y="87" type="line"/>
			<point x="945" y="87" type="line"/>
			<point x="945" y="0" type="line"/>
			<point x="501" y="0" type="line"/>
			<point x="469.938" y="-11.5633"/>
			<point x="430.077" y="-16"/>
			<point x="386" y="-16" type="curve" smooth="yes"/>
			<point x="187" y="-16"/>
			<point x="60" y="150"/>
		</contour>
		<contour>
			<point x="163" y="359" type="curve" smooth="yes"/>
			<point x="163" y="199"/>
			<point x="236" y="72"/>
			<point x="386" y="72" type="curve" smooth="yes"/>
			<point x="448.533" y="72"/>
			<point x="499.082" y="85.8166"/>
			<point x="534" y="115" type="curve"/>
			<point x="534" y="615" type="line"/>
			<point x="496.532" y="635.595"/>
			<point x="447" y="647"/>
			<point x="386" y="647" type="curve" smooth="yes"/>
			<point x="218" y="647"/>
			<point x="163" y="495"/>
		</contour>
	</outline>
</glyph>
<glyph name="Tbar" format="2">
	<unicode hex="0166"/>
	<advance width="622"/>
	<outline>
		<component base="T"/>
		<contour>
			<point x="158" y="298" type="line"/>
			<point x="458" y="298" type="line"/>
			<point x="458" y="363" type="line"/>
			<point x="158" y="363" type="line"/>
		</contour>
	</outline>
</glyph>
<glyph name="tbar" format="2">
	<unicode hex="0167"/>
	<advance width="370"/>
	<outline>
		<component base="t" xOffset="16"/>
		<contour>
			<point x="57" y="313" type="line"/>
			<point x="57" y="248" type="line"/>
			<point x="297" y="248" type="line"/>
			<point x="297" y="313" type="line"/>
		</contour>
	</outline>
</glyph>
<glyph name="uni019E" format="2">
	<unicode hex="019E"/>
	<advance width="608"/>
	<outline>
		<contour>
			<point x="80" y="0" type="line"/>
			<point x="80" y="500" type="line"/>
			<point x="170" y="500" type="line"/>
			<point x="170" y="435" type="line"/>
			<point x="204" y="483"/>
			<point x="263" y="512"/>
			<point x="327" y="512" type="curve" smooth="yes"/>
			<point x="452" y="512"/>
			<point x="515" y="451"/>
			<point x="515" y="328" type="curve" smooth="yes"/>
			<point x="515" y="-200" type="line"/>
			<point x="425" y="-200" type="line"/>
			<point x="425" y="310" type="line" smooth="yes"/>
			<point x="425" y="408"/>
			<point x="387" y="452"/>
			<point x="302" y="452" type="curve" smooth="yes"/>
			<point x="227" y="452"/>
			<point x="170" y="395"/>
			<point x="170" y="322" type="curve" smooth="yes"/>
			<point x="170" y="0" type="line"/>
		</contour>
	</outline>
</glyph>
<glyph name="uni01C3" format="2">
	<unicode hex="01C3"/>
	<advance width="369"/>
	<outline>
		<contour>
			<point x="231" y="0" type="line"/>
			<point x="131" y="0" type="line"/>
			<point x="131" y="95" type="line"/>
			<point x="231" y="95" type="line"/>
		</contour>
		<contour>
			<point x="238" y="722" type="line"/>
			<point x="218" y="169" type="line"/>
			<point x="135" y="169" type="line"/>
			<point x="115" y="722" type="line"/>
		</contour>
	</outline>
</glyph>
<glyph name="uni01D5" format="2">
	<unicode hex="01D5"/>
	<advance width="697"/>
	<outline>
		<contour>
			<point x="61" y="322" type="curve" smooth="yes"/>
			<point x="61" y="722" type="line"/>
			<point x="161" y="722" type="line"/>
			<point x="161" y="322" type="line" smooth="yes"/>
			<point x="161" y="168"/>
			<point x="199" y="74"/>
			<point x="348" y="74" type="curve" smooth="yes"/>
			<point x="496" y="74"/>
			<point x="536" y="171"/>
			<point x="536" y="322" type="curve" smooth="yes"/>
			<point x="536" y="722" type="line"/>
			<point x="636" y="722" type="line"/>
			<point x="636" y="322" type="line" smooth="yes"/>
			<point x="636" y="78"/>
			<point x="567" y="-14"/>
			<point x="349" y="-14" type="curve" smooth="yes"/>
			<point x="132" y="-14"/>
			<point x="61" y="96"/>
		</contour>
		<contour>
			<point x="293" y="797" type="line"/>
			<point x="203" y="797" type="line"/>
			<point x="203" y="897" type="line"/>
			<point x="293" y="897" type="line"/>
		</contour>
		<contour>
			<point x="493" y="797" type="line"/>
			<point x="403" y="797" type="line"/>
			<point x="403" y="897" type="line"/>
			<point x="493" y="897" type="line"/>
		</contour>
		<contour>
			<point x="494" y="972" type="line"/>
			<point x="204" y="972" type="line"/>
			<point x="204" y="1041" type="line"/>
			<point x="494" y="1041" type="line"/>
		</contour>
	</outline>
	<anchor name="bottom" x="349" y="-50"/>
	<anchor name="top" x="345" y="797"/>
	<anchor name="top.mkmk" x="349" y="1112"/>
</glyph>
<glyph name="uni022A" format="2">
	<unicode hex="022A"/>
	<advance width="754"/>
	<outline>
		<contour>
			<point x="50" y="372" type="curve" smooth="yes"/>
			<point x="50" y="589"/>
			<point x="163" y="736"/>
			<point x="378" y="736" type="curve" smooth="yes"/>
			<point x="592" y="736"/>
			<point x="704" y="589"/>
			<point x="704" y="372" type="curve" smooth="yes"/>
			<point x="704" y="157"/>
			<point x="595" y="-14"/>
			<point x="378" y="-14" type="curve" smooth="yes"/>
			<point x="160" y="-14"/>
			<point x="50" y="158"/>
		</contour>
		<contour>
			<point x="153" y="371" type="curve" smooth="yes"/>
			<point x="153" y="208"/>
			<point x="210" y="74"/>
			<point x="378" y="74" type="curve" smooth="yes"/>
			<point x="546" y="74"/>
			<point x="601" y="207"/>
			<point x="601" y="372" type="curve" smooth="yes"/>
			<point x="601" y="540"/>
			<point x="544" y="649"/>
			<point x="378" y="649" type="curve" smooth="yes"/>
			<point x="228" y="649"/>
			<point x="153" y="558"/>
		</contour>
		<contour>
			<point x="513" y="797" type="line"/>
			<point x="423" y="797" type="line"/>
			<point x="423" y="897" type="line"/>
			<point x="513" y="897" type="line"/>
		</contour>
		<contour>
			<point x="313" y="797" type="line"/>
			<point x="223" y="797" type="line"/>
			<point x="223" y="897" type="line"/>
			<point x="313" y="897" type="line"/>
		</contour>
		<contour>
			<point x="514" y="972" type="line"/>
			<point x="224" y="972" type="line"/>
			<point x="224" y="1041" type="line"/>
			<point x="514" y="1041" type="line"/>
		</contour>
	</outline>
	<anchor name="top" x="365" y="797"/>
	<anchor name="top.mkmk" x="369" y="1112"/>
</glyph>
<glyph name="uni022B" format="2">
	<unicode hex="022B"/>
	<advance width="620"/>
	<outline>
		<contour>
			<point x="60" y="250" type="curve" smooth="yes"/>
			<point x="60" y="411"/>
			<point x="157" y="512"/>
			<point x="311" y="512" type="curve" smooth="yes"/>
			<point x="465" y="512"/>
			<point x="560" y="411"/>
			<point x="560" y="250" type="curve" smooth="yes"/>
			<point x="560" y="89"/>
			<point x="465" y="-12"/>
			<point x="311" y="-12" type="curve" smooth="yes"/>
			<point x="157" y="-12"/>
			<point x="60" y="89"/>
		</contour>
		<contour>
			<point x="154" y="250" type="curve" smooth="yes"/>
			<point x="154" y="117"/>
			<point x="210" y="53"/>
			<point x="310" y="53" type="curve" smooth="yes"/>
			<point x="410" y="53"/>
			<point x="466" y="117"/>
			<point x="466" y="250" type="curve" smooth="yes"/>
			<point x="466" y="383"/>
			<point x="410" y="447"/>
			<point x="310" y="447" type="curve" smooth="yes"/>
			<point x="210" y="447"/>
			<point x="154" y="383"/>
		</contour>
		<contour>
			<point x="452" y="580" type="line"/>
			<point x="362" y="580" type="line"/>
			<point x="362" y="680" type="line"/>
			<point x="452" y="680" type="line"/>
		</contour>
		<contour>
			<point x="252" y="580" type="line"/>
			<point x="162" y="580" type="line"/>
			<point x="162" y="680" type="line"/>
			<point x="252" y="680" type="line"/>
		</contour>
		<contour>
			<point x="453" y="755" type="line"/>
			<point x="163" y="755" type="line"/>
			<point x="163" y="824" type="line"/>
			<point x="453" y="824" type="line"/>
		</contour>
	</outline>
	<anchor name="bottom" x="310" y="-87"/>
	<anchor name="top" x="304" y="580"/>
	<anchor name="top.mkmk" x="308" y="895"/>
</glyph>
<glyph name="uni022D" format="2">
	<unicode hex="022D"/>
	<advance width="620"/>
	<outline>
		<contour>
			<point x="60" y="250" type="curve" smooth="yes"/>
			<point x="60" y="411"/>
			<point x="157" y="512"/>
			<point x="311" y="512" type="curve" smooth="yes"/>
			<point x="465" y="512"/>
			<point x="560" y="411"/>
			<point x="560" y="250" type="curve" smooth="yes"/>
			<point x="560" y="89"/>
			<point x="465" y="-12"/>
			<point x="311" y="-12" type="curve" smooth="yes"/>
			<point x="157" y="-12"/>
			<point x="60" y="89"/>
		</contour>
		<contour>
			<point x="154" y="250" type="curve" smooth="yes"/>
			<point x="154" y="117"/>
			<point x="210" y="53"/>
			<point x="310" y="53" type="curve" smooth="yes"/>
			<point x="410" y="53"/>
			<point x="466" y="117"/>
			<point x="466" y="250" type="curve" smooth="yes"/>
			<point x="466" y="383"/>
			<point x="410" y="447"/>
			<point x="310" y="447" type="curve" smooth="yes"/>
			<point x="210" y="447"/>
			<point x="154" y="383"/>
		</contour>
		<contour>
			<point x="153" y="598" type="line"/>
			<point x="159" y="660"/>
			<point x="199" y="696"/>
			<point x="238" y="696" type="curve" smooth="yes"/>
			<point x="259" y="696"/>
			<point x="284" y="687"/>
			<point x="307" y="676" type="curve" smooth="yes"/>
			<point x="325" y="667"/>
			<point x="343" y="660"/>
			<point x="355" y="660" type="curve" smooth="yes"/>
			<point x="372" y="660"/>
			<point x="385" y="674"/>
			<point x="389" y="701" type="curve"/>
			<point x="444" y="701" type="line"/>
			<point x="439" y="646"/>
			<point x="406" y="603"/>
			<point x="361" y="603" type="curve" smooth="yes"/>
			<point x="338" y="603"/>
			<point x="312" y="613"/>
			<point x="291.089" y="623.455" type="curve" smooth="yes"/>
			<point x="272" y="633"/>
			<point x="255" y="639"/>
			<point x="243" y="639" type="curve" smooth="yes"/>
			<point x="226" y="639"/>
			<point x="211" y="625"/>
			<point x="208" y="598" type="curve"/>
		</contour>
		<contour>
			<point x="446" y="760" type="line"/>
			<point x="156" y="760" type="line"/>
			<point x="156" y="829" type="line"/>
			<point x="446" y="829" type="line"/>
		</contour>
	</outline>
	<anchor name="bottom" x="310" y="-87"/>
	<anchor name="top" x="304" y="580"/>
	<anchor name="top.mkmk" x="301" y="900"/>
</glyph>
<glyph name="uni0253" format="2">
	<unicode hex="0253"/>
	<advance width="606"/>
	<outline>
		<component base="uni0252" xOffset="20"/>
		<contour>
			<point x="80" y="380" type="line"/>
			<point x="80" y="545" type="line" smooth="yes"/>
			<point x="80" y="653.789"/>
			<point x="161.653" y="732"/>
			<point x="275" y="732" type="curve" smooth="yes"/>
			<point x="347" y="732"/>
			<point x="399" y="716"/>
			<point x="431" y="683" type="curve"/>
			<point x="377" y="631" type="line"/>
			<point x="352" y="652"/>
			<point x="319" y="662"/>
			<point x="278" y="662" type="curve" smooth="yes"/>
			<point x="189.651" y="662"/>
			<point x="170" y="591.108"/>
			<point x="170" y="505.724" type="curve" smooth="yes"/>
			<point x="170" y="380" type="line"/>
		</contour>
	</outline>
</glyph>
<glyph name="uni0256" format="2">
	<unicode hex="0256"/>
	<advance width="591"/>
	<outline>
		<component base="d"/>
		<contour>
			<point x="441" y="134" type="line"/>
			<point x="441" y="-60" type="line" smooth="yes"/>
			<point x="441" y="-144"/>
			<point x="500" y="-199"/>
			<point x="587" y="-199" type="curve" smooth="yes"/>
			<point x="644" y="-199"/>
			<point x="690" y="-180"/>
			<point x="725" y="-142" type="curve"/>
			<point x="668" y="-85" type="line"/>
			<point x="647" y="-114"/>
			<point x="622" y="-129"/>
			<point x="593" y="-129" type="curve" smooth="yes"/>
			<point x="559" y="-129"/>
			<point x="531" y="-103"/>
			<point x="531" y="-61" type="curve" smooth="yes"/>
			<point x="531" y="134" type="line"/>
		</contour>
	</outline>
</glyph>
<glyph name="uni0257" format="2">
	<unicode hex="0257"/>
	<advance width="591"/>
	<outline>
		<contour>
			<point x="441" y="380" type="line"/>
			<point x="441" y="545" type="line" smooth="yes"/>
			<point x="441" y="653.789"/>
			<point x="522.653" y="732"/>
			<point x="636" y="732" type="curve" smooth="yes"/>
			<point x="708" y="732"/>
			<point x="760" y="716"/>
			<point x="792" y="683" type="curve"/>
			<point x="738" y="631" type="line"/>
			<point x="713" y="652"/>
			<point x="680" y="662"/>
			<point x="639" y="662" type="curve" smooth="yes"/>
			<point x="550.651" y="662"/>
			<point x="531" y="591.108"/>
			<point x="531" y="505.724" type="curve" smooth="yes"/>
			<point x="531" y="380" type="line"/>
		</contour>
		<contour>
			<point x="150" y="248" type="curve" smooth="yes"/>
			<point x="150" y="152"/>
			<point x="202" y="55"/>
			<point x="304" y="55" type="curve" smooth="yes"/>
			<point x="393" y="55"/>
			<point x="441" y="129"/>
			<point x="441" y="244" type="curve" smooth="yes"/>
			<point x="441" y="344"/>
			<point x="405" y="449"/>
			<point x="294" y="449" type="curve" smooth="yes"/>
			<point x="185" y="449"/>
			<point x="150" y="346"/>
		</contour>
		<contour>
			<point x="60" y="253" type="curve" smooth="yes"/>
			<point x="60" y="421"/>
			<point x="165" y="513"/>
			<point x="287" y="513" type="curve" smooth="yes"/>
			<point x="361" y="513"/>
			<point x="408" y="479"/>
			<point x="441" y="435" type="curve"/>
			<point x="441" y="500" type="line"/>
			<point x="531" y="500" type="line"/>
			<point x="531" y="0" type="line"/>
			<point x="441" y="0" type="line"/>
			<point x="441" y="57" type="line"/>
			<point x="415" y="28"/>
			<point x="351" y="-13"/>
			<point x="291" y="-13" type="curve" smooth="yes"/>
			<point x="143" y="-13"/>
			<point x="60" y="103"/>
		</contour>
	</outline>
</glyph>
<glyph name="uni025F" format="2">
	<unicode hex="025F"/>
	<advance width="317"/>
	<outline>
		<contour>
			<point x="-28" y="-147" type="curve"/>
			<point x="29" y="-90" type="line"/>
			<point x="50.3577" y="-114.439"/>
			<point x="62.2031" y="-120.663"/>
			<point x="80.7771" y="-120.906" type="curve" smooth="yes"/>
			<point x="113.906" y="-121.338"/>
			<point x="127" y="-102.201"/>
			<point x="127" y="-64" type="curve" smooth="yes"/>
			<point x="127" y="500" type="line"/>
			<point x="217" y="500" type="line"/>
			<point x="217" y="-74" type="line" smooth="yes"/>
			<point x="217" y="-152.02"/>
			<point x="172.501" y="-200.29"/>
			<point x="91.1495" y="-200.29" type="curve" smooth="yes"/>
			<point x="45.0394" y="-200.29"/>
			<point x="7.62313" y="-184.782"/>
		</contour>
		<contour>
			<point x="37" y="222" type="line"/>
			<point x="37" y="278" type="line"/>
			<point x="307" y="278" type="line"/>
			<point x="307" y="222" type="line"/>
		</contour>
	</outline>
</glyph>
<glyph name="uni0260" format="2">
	<unicode hex="0260"/>
	<advance width="621"/>
	<outline>
		<component base="g"/>
		<contour>
			<point x="443" y="400" type="line"/>
			<point x="443" y="500" type="line" smooth="yes"/>
			<point x="443" y="591"/>
			<point x="481" y="638"/>
			<point x="569.978" y="638" type="curve" smooth="yes"/>
			<point x="599" y="638"/>
			<point x="619" y="633"/>
			<point x="634" y="623" type="curve"/>
			<point x="634" y="562" type="line"/>
			<point x="619" y="571"/>
			<point x="603" y="575"/>
			<point x="580.218" y="575" type="curve" smooth="yes"/>
			<point x="548" y="575"/>
			<point x="533" y="567"/>
			<point x="533" y="508" type="curve" smooth="yes"/>
			<point x="533" y="400" type="line"/>
		</contour>
	</outline>
</glyph>
<glyph name="uni0265" format="2">
	<unicode hex="0265"/>
	<advance width="593"/>
	<outline>
		<contour>
			<point x="251.087" y="-12" type="curve" smooth="yes"/>
			<point x="137" y="-12"/>
			<point x="80" y="49"/>
			<point x="80" y="190" type="curve" smooth="yes"/>
			<point x="80" y="500" type="line"/>
			<point x="170" y="500" type="line"/>
			<point x="170" y="186" type="line" smooth="yes"/>
			<point x="170" y="113"/>
			<point x="208" y="55"/>
			<point x="279.386" y="55" type="curve" smooth="yes"/>
			<point x="345" y="55"/>
			<point x="423" y="104"/>
			<point x="423" y="199" type="curve" smooth="yes"/>
			<point x="423" y="500" type="line"/>
			<point x="513" y="500" type="line"/>
			<point x="513" y="-200" type="line"/>
			<point x="423" y="-200" type="line"/>
			<point x="423" y="63" type="line"/>
			<point x="393" y="21"/>
			<point x="335" y="-12"/>
		</contour>
	</outline>
</glyph>
<glyph name="uni0266" format="2">
	<unicode hex="0266"/>
	<advance width="573"/>
	<outline>
		<contour>
			<point x="337" y="512" type="curve" smooth="yes"/>
			<point x="456" y="512"/>
			<point x="513" y="451"/>
			<point x="513" y="310" type="curve" smooth="yes"/>
			<point x="513" y="0" type="line"/>
			<point x="423" y="0" type="line"/>
			<point x="423" y="314" type="line" smooth="yes"/>
			<point x="423" y="387"/>
			<point x="385" y="445"/>
			<point x="318" y="445" type="curve" smooth="yes"/>
			<point x="248" y="445"/>
			<point x="170" y="396"/>
			<point x="170" y="301" type="curve" smooth="yes"/>
			<point x="170" y="0" type="line"/>
			<point x="80" y="0" type="line"/>
			<point x="80" y="462" type="line"/>
			<point x="170" y="462" type="line"/>
			<point x="170" y="437" type="line"/>
			<point x="200" y="479"/>
			<point x="258" y="512"/>
		</contour>
		<contour>
			<point x="80" y="380" type="line"/>
			<point x="80" y="545" type="line" smooth="yes"/>
			<point x="80" y="653.789"/>
			<point x="161.653" y="732"/>
			<point x="275" y="732" type="curve" smooth="yes"/>
			<point x="347" y="732"/>
			<point x="399" y="716"/>
			<point x="431" y="683" type="curve"/>
			<point x="377" y="631" type="line"/>
			<point x="352" y="652"/>
			<point x="319" y="662"/>
			<point x="278" y="662" type="curve" smooth="yes"/>
			<point x="189.651" y="662"/>
			<point x="170" y="591.108"/>
			<point x="170" y="505.724" type="curve" smooth="yes"/>
			<point x="170" y="380" type="line"/>
		</contour>
	</outline>
</glyph>
<glyph name="uni026C" format="2">
	<unicode hex="026C"/>
	<advance width="522"/>
	<outline>
		<component base="l" xOffset="145"/>
		<contour>
			<point x="260.442" y="331.823" type="line"/>
			<point x="165.944" y="342.251"/>
			<point x="128" y="374.313"/>
			<point x="128" y="412.572" type="curve" smooth="yes"/>
			<point x="128" y="443"/>
			<point x="152" y="462"/>
			<point x="188.721" y="462" type="curve" smooth="yes"/>
			<point x="205.4" y="462"/>
			<point x="222.76" y="458.08"/>
			<point x="242.08" y="450.24" type="curve"/>
			<point x="241.554" y="498.071" type="line"/>
			<point x="215.792" y="510.69"/>
			<point x="190.607" y="517"/>
			<point x="163.376" y="517" type="curve" smooth="yes"/>
			<point x="93.0519" y="517"/>
			<point x="49" y="474.918"/>
			<point x="49" y="415.54" type="curve" smooth="yes"/>
			<point x="49" y="329.706"/>
			<point x="141.052" y="288.699"/>
			<point x="259.86" y="281.178" type="curve"/>
		</contour>
		<contour>
			<point x="301.903" y="281.874" type="line"/>
			<point x="368.737" y="287.304"/>
			<point x="420.01" y="308.252"/>
			<point x="470" y="346" type="curve"/>
			<point x="432" y="386" type="line"/>
			<point x="393.031" y="354.825"/>
			<point x="344.204" y="335.01"/>
			<point x="301.583" y="332.992" type="curve"/>
		</contour>
	</outline>
</glyph>
<glyph name="uni0271" format="2">
	<unicode hex="0271"/>
	<advance width="896"/>
	<outline>
		<contour>
			<point x="70" y="0" type="line"/>
			<point x="70" y="499.587" type="line"/>
			<point x="160" y="499.587" type="line"/>
			<point x="160" y="431" type="line"/>
			<point x="200" y="485.143"/>
			<point x="250" y="513"/>
			<point x="309" y="513" type="curve" smooth="yes"/>
			<point x="393" y="513"/>
			<point x="436" y="493.397"/>
			<point x="479" y="425" type="curve"/>
			<point x="521" y="483.079"/>
			<point x="575" y="514"/>
			<point x="641" y="514" type="curve" smooth="yes"/>
			<point x="769.158" y="514"/>
			<point x="826" y="449.032"/>
			<point x="826" y="324" type="curve" smooth="yes"/>
			<point x="826" y="-62" type="line" smooth="yes"/>
			<point x="826" y="-147"/>
			<point x="768.416" y="-200"/>
			<point x="670.839" y="-200" type="curve" smooth="yes"/>
			<point x="614" y="-200"/>
			<point x="567" y="-181"/>
			<point x="533" y="-143" type="curve"/>
			<point x="589" y="-86" type="line"/>
			<point x="610" y="-115"/>
			<point x="636" y="-130"/>
			<point x="666.217" y="-130" type="curve" smooth="yes"/>
			<point x="706" y="-130"/>
			<point x="736" y="-104"/>
			<point x="736" y="-62" type="curve" smooth="yes"/>
			<point x="736" y="323" type="line" smooth="yes"/>
			<point x="736" y="407.291"/>
			<point x="689" y="449"/>
			<point x="629.654" y="449" type="curve" smooth="yes"/>
			<point x="555" y="449"/>
			<point x="493" y="383"/>
			<point x="493" y="323" type="curve" smooth="yes"/>
			<point x="493" y="0" type="line"/>
			<point x="403" y="0" type="line"/>
			<point x="403" y="323" type="line" smooth="yes"/>
			<point x="403" y="390"/>
			<point x="360" y="448"/>
			<point x="293" y="448" type="curve" smooth="yes"/>
			<point x="219" y="448"/>
			<point x="160" y="379"/>
			<point x="160" y="323" type="curve" smooth="yes"/>
			<point x="160" y="0" type="line"/>
		</contour>
	</outline>
</glyph>
<glyph name="uni0276" format="2">
	<unicode hex="0276"/>
	<advance width="744"/>
	<outline>
		<contour>
			<point x="53" y="247" type="curve" smooth="yes"/>
			<point x="53" y="100"/>
			<point x="142" y="-11"/>
			<point x="291" y="-11" type="curve" smooth="yes"/>
			<point x="322" y="-11"/>
			<point x="350" y="-8"/>
			<point x="371" y="0" type="curve"/>
			<point x="701" y="0" type="line"/>
			<point x="701" y="65" type="line"/>
			<point x="484" y="65" type="line"/>
			<point x="484" y="221" type="line"/>
			<point x="687" y="221" type="line"/>
			<point x="687" y="286" type="line"/>
			<point x="484" y="286" type="line"/>
			<point x="484" y="435" type="line"/>
			<point x="701" y="435" type="line"/>
			<point x="701" y="500" type="line"/>
			<point x="376" y="500" type="line"/>
			<point x="350" y="506"/>
			<point x="319" y="510"/>
			<point x="291" y="510" type="curve" smooth="yes"/>
			<point x="142" y="510"/>
			<point x="53" y="394"/>
		</contour>
		<contour>
			<point x="145" y="246" type="curve" smooth="yes"/>
			<point x="145" y="341"/>
			<point x="184" y="444"/>
			<point x="291" y="444" type="curve" smooth="yes"/>
			<point x="334" y="444"/>
			<point x="368" y="436"/>
			<point x="394" y="421" type="curve"/>
			<point x="394" y="84" type="line"/>
			<point x="370" y="63"/>
			<point x="335" y="54"/>
			<point x="291" y="54" type="curve" smooth="yes"/>
			<point x="196" y="54"/>
			<point x="145" y="134"/>
		</contour>
	</outline>
</glyph>
<glyph name="uni027C" format="2">
	<unicode hex="027C"/>
	<advance width="363"/>
	<outline>
		<contour>
			<point x="170" y="-200" type="line"/>
			<point x="170" y="280" type="line" smooth="yes"/>
			<point x="170" y="373"/>
			<point x="231" y="420"/>
			<point x="352" y="420" type="curve"/>
			<point x="352" y="500" type="line"/>
			<point x="232" y="500"/>
			<point x="198" y="481"/>
			<point x="170" y="432" type="curve"/>
			<point x="170" y="500" type="line"/>
			<point x="80" y="500" type="line"/>
			<point x="80" y="-200" type="line"/>
		</contour>
	</outline>
</glyph>
<glyph name="uni0282" format="2">
	<unicode hex="0282"/>
	<advance width="503"/>
	<outline>
		<component base="s"/>
		<contour>
			<point x="98" y="-83" type="line" smooth="yes"/>
			<point x="98" y="-119"/>
			<point x="131" y="-147"/>
			<point x="177" y="-147" type="curve" smooth="yes"/>
			<point x="214" y="-147"/>
			<point x="248" y="-128"/>
			<point x="248" y="-88" type="curve"/>
			<point x="331" y="-88" type="line"/>
			<point x="331" y="-176"/>
			<point x="291" y="-200"/>
			<point x="192" y="-200" type="curve" smooth="yes"/>
			<point x="113" y="-200"/>
			<point x="60" y="-167.602"/>
			<point x="60" y="-100" type="curve" smooth="yes"/>
			<point x="60" y="144" type="line"/>
			<point x="98" y="144" type="line"/>
		</contour>
	</outline>
</glyph>
<glyph name="uni0288" format="2">
	<unicode hex="0288"/>
	<advance width="370"/>
	<outline>
		<contour>
			<point x="204" y="-58" type="line" smooth="yes"/>
			<point x="204" y="-103"/>
			<point x="215" y="-133"/>
			<point x="253" y="-133" type="curve" smooth="yes"/>
			<point x="273" y="-133"/>
			<point x="294" y="-130"/>
			<point x="314" y="-124" type="curve"/>
			<point x="314" y="-188" type="line"/>
			<point x="286" y="-197"/>
			<point x="256" y="-200"/>
			<point x="227" y="-200" type="curve" smooth="yes"/>
			<point x="141" y="-200"/>
			<point x="114" y="-151"/>
			<point x="114" y="-55" type="curve" smooth="yes"/>
			<point x="114" y="435" type="line"/>
			<point x="24" y="435" type="line"/>
			<point x="24" y="500" type="line"/>
			<point x="114" y="500" type="line"/>
			<point x="114" y="599" type="line"/>
			<point x="204" y="636" type="line"/>
			<point x="204" y="500" type="line"/>
			<point x="314" y="500" type="line"/>
			<point x="314" y="435" type="line"/>
			<point x="204" y="435" type="line"/>
		</contour>
	</outline>
</glyph>
<glyph name="uni028F" format="2">
	<unicode hex="028F"/>
	<advance width="493"/>
	<outline>
		<contour>
			<point x="484" y="500" type="line"/>
			<point x="286" y="199" type="line"/>
			<point x="286" y="0" type="line"/>
			<point x="207" y="0" type="line"/>
			<point x="207" y="199" type="line"/>
			<point x="9" y="500" type="line"/>
			<point x="104" y="500" type="line"/>
			<point x="253" y="260" type="line"/>
			<point x="249" y="260" type="line"/>
			<point x="396" y="500" type="line"/>
		</contour>
	</outline>
</glyph>
<glyph name="uni029C" format="2">
	<unicode hex="029C"/>
	<advance width="525"/>
	<outline>
		<contour>
			<point x="468" y="0" type="line"/>
			<point x="389" y="0" type="line"/>
			<point x="389" y="219" type="line"/>
			<point x="136" y="219" type="line"/>
			<point x="136" y="0" type="line"/>
			<point x="57" y="0" type="line"/>
			<point x="57" y="500" type="line"/>
			<point x="136" y="500" type="line"/>
			<point x="136" y="292" type="line"/>
			<point x="389" y="292" type="line"/>
			<point x="389" y="500" type="line"/>
			<point x="468" y="500" type="line"/>
		</contour>
	</outline>
</glyph>
<glyph name="uni02AF" format="2">
	<unicode hex="02AF"/>
	<advance width="1"/>
	<outline>
		<contour>
			<point x="423" y="134" type="line"/>
			<point x="423" y="-60" type="line" smooth="yes"/>
			<point x="423" y="-144"/>
			<point x="482" y="-199"/>
			<point x="569" y="-199" type="curve" smooth="yes"/>
			<point x="626" y="-199"/>
			<point x="672" y="-180"/>
			<point x="707" y="-142" type="curve"/>
			<point x="650" y="-85" type="line"/>
			<point x="629" y="-114"/>
			<point x="604" y="-129"/>
			<point x="575" y="-129" type="curve" smooth="yes"/>
			<point x="541" y="-129"/>
			<point x="513" y="-103"/>
			<point x="513" y="-61" type="curve" smooth="yes"/>
			<point x="513" y="134" type="line"/>
		</contour>
		<contour>
			<point x="256" y="-12" type="curve" smooth="yes"/>
			<point x="137" y="-12"/>
			<point x="80" y="49"/>
			<point x="80" y="190" type="curve" smooth="yes"/>
			<point x="80" y="500" type="line"/>
			<point x="170" y="500" type="line"/>
			<point x="170" y="186" type="line" smooth="yes"/>
			<point x="170" y="113"/>
			<point x="208" y="55"/>
			<point x="275" y="55" type="curve" smooth="yes"/>
			<point x="345" y="55"/>
			<point x="423" y="104"/>
			<point x="423" y="199" type="curve" smooth="yes"/>
			<point x="423" y="500" type="line"/>
			<point x="513" y="500" type="line"/>
			<point x="513" y="30" type="line"/>
			<point x="423" y="30" type="line"/>
			<point x="423" y="63" type="line"/>
			<point x="393" y="21"/>
			<point x="335" y="-12"/>
		</contour>
		<contour>
			<point x="170" y="380" type="line"/>
			<point x="80" y="380" type="line"/>
			<point x="80" y="505.724" type="line" smooth="yes"/>
			<point x="80" y="591.108"/>
			<point x="60.3488" y="662"/>
			<point x="-28" y="662" type="curve" smooth="yes"/>
			<point x="-69" y="662"/>
			<point x="-102" y="652"/>
			<point x="-127" y="631" type="curve"/>
			<point x="-181" y="683" type="line"/>
			<point x="-149" y="716"/>
			<point x="-97" y="732"/>
			<point x="-25" y="732" type="curve" smooth="yes"/>
			<point x="88.3473" y="732"/>
			<point x="170" y="653.789"/>
			<point x="170" y="545" type="curve" smooth="yes"/>
		</contour>
	</outline>
</glyph>
<glyph name="uni02B7" format="2">
	<unicode hex="02B7"/>
	<advance width="570"/>
	<outline>
		<contour>
			<point x="559" y="700" type="line"/>
			<point x="441" y="350" type="line"/>
			<point x="378" y="350" type="line"/>
			<point x="285" y="640" type="line"/>
			<point x="192" y="350" type="line"/>
			<point x="129" y="350" type="line"/>
			<point x="10" y="700" type="line"/>
			<point x="78" y="700" type="line"/>
			<point x="160" y="427" type="line"/>
			<point x="243" y="700" type="line"/>
			<point x="327" y="700" type="line"/>
			<point x="409" y="427" type="line"/>
			<point x="492" y="700" type="line"/>
		</contour>
	</outline>
</glyph>
<glyph name="uni02BC" format="2">
	<unicode hex="02BC"/>
	<advance width="146"/>
	<outline>
		<contour>
			<point x="126" y="722" type="line"/>
			<point x="103" y="434" type="line"/>
			<point x="43" y="434" type="line"/>
			<point x="20" y="722" type="line"/>
		</contour>
	</outline>
</glyph>
<glyph name="caron" format="2">
	<unicode hex="02C7"/>
	<advance width="289"/>
	<outline>
		<contour>
			<point x="290" y="770" type="line"/>
			<point x="200" y="600" type="line"/>
			<point x="90" y="600" type="line"/>
			<point x="0" y="770" type="line"/>
			<point x="60" y="770" type="line"/>
			<point x="145" y="660" type="line"/>
			<point x="230" y="770" type="line"/>
		</contour>
	</outline>
	<anchor name="_top" x="145" y="600"/>
	<anchor name="_top.mkmk" x="145" y="600"/>
</glyph>
<glyph name="dotaccent" format="2">
	<unicode hex="02D9"/>
	<advance width="89"/>
	<outline>
		<contour>
			<point x="90" y="600" type="line"/>
			<point x="0" y="600" type="line"/>
			<point x="0" y="700" type="line"/>
			<point x="90" y="700" type="line"/>
		</contour>
	</outline>
	<anchor name="_top" x="45" y="600"/>
	<anchor name="top.mkmk" x="45" y="770"/>
</glyph>
<glyph name="tilde" format="2">
	<unicode hex="02DC"/>
	<advance width="292"/>
	<outline>
		<contour>
			<point x="0" y="618" type="line"/>
			<point x="6" y="680"/>
			<point x="46" y="716"/>
			<point x="88.0529" y="716" type="curve" smooth="yes"/>
			<point x="103.595" y="716"/>
			<point x="125.392" y="711.083"/>
			<point x="146.05" y="699.739" type="curve"/>
			<point x="146.273" y="639.54" type="line"/>
			<point x="128.228" y="650.755"/>
			<point x="108.484" y="659"/>
			<point x="92.5757" y="659" type="curve" smooth="yes"/>
			<point x="73" y="659"/>
			<point x="58" y="645"/>
			<point x="55" y="618" type="curve"/>
		</contour>
		<contour>
			<point x="292" y="721.43" type="line"/>
			<point x="286" y="659.43"/>
			<point x="246" y="623.43"/>
			<point x="203.947" y="623.43" type="curve" smooth="yes"/>
			<point x="188.405" y="623.43"/>
			<point x="166.608" y="628.347"/>
			<point x="145.95" y="639.692" type="curve"/>
			<point x="145.727" y="699.891" type="line"/>
			<point x="163.772" y="688.675"/>
			<point x="183.516" y="680.43"/>
			<point x="199.424" y="680.43" type="curve" smooth="yes"/>
			<point x="219" y="680.43"/>
			<point x="234" y="694.43"/>
			<point x="237" y="721.43" type="curve"/>
		</contour>
	</outline>
	<anchor name="_top" x="146" y="600"/>
	<guideline x="146" y="0" angle="90"/>
</glyph>
<glyph name="hungarumlaut" format="2">
	<unicode hex="02DD"/>
	<advance width="319"/>
	<outline>
		<contour>
			<point x="168" y="771" type="line"/>
			<point x="58" y="600" type="line"/>
			<point x="8" y="600" type="line"/>
			<point x="78" y="771" type="line"/>
		</contour>
		<contour>
			<point x="308" y="771" type="line"/>
			<point x="198" y="600" type="line"/>
			<point x="148" y="600" type="line"/>
			<point x="218" y="771" type="line"/>
		</contour>
	</outline>
</glyph>
<glyph name="uni02E7" format="2">
	<unicode hex="02E7"/>
	<advance width="357"/>
	<outline>
		<contour>
			<point x="287" y="0" type="line"/>
			<point x="223" y="0" type="line"/>
			<point x="223" y="329" type="line"/>
			<point x="20" y="329" type="line"/>
			<point x="20" y="393" type="line"/>
			<point x="223" y="393" type="line"/>
			<point x="223" y="722" type="line"/>
			<point x="287" y="722" type="line"/>
		</contour>
	</outline>
</glyph>
<glyph name="uni02E8" format="2">
	<unicode hex="02E8"/>
	<advance width="357"/>
	<outline>
		<contour>
			<point x="287" y="0" type="line"/>
			<point x="223" y="0" type="line"/>
			<point x="223" y="161" type="line"/>
			<point x="20" y="161" type="line"/>
			<point x="20" y="225" type="line"/>
			<point x="223" y="225" type="line"/>
			<point x="223" y="722" type="line"/>
			<point x="287" y="722" type="line"/>
		</contour>
	</outline>
</glyph>
<glyph name="gravecomb" format="2">
	<unicode hex="0300"/>
	<advance width="1"/>
	<outline>
		<contour>
			<point x="-146" y="600" type="line"/>
			<point x="-155.758" y="600" type="line"/>
			<point x="-295.758" y="771" type="line"/>
			<point x="-246" y="771" type="line"/>
		</contour>
	</outline>
	<anchor name="_top" x="-152" y="600"/>
	<anchor name="_top.mkmk" x="-180" y="600"/>
</glyph>
<glyph name="uni0307" format="2">
	<unicode hex="0307"/>
	<advance width="1"/>
	<outline>
		<contour>
			<point x="-337" y="600" type="line"/>
			<point x="-337" y="700" type="line"/>
			<point x="-247" y="700" type="line"/>
			<point x="-247" y="600" type="line"/>
		</contour>
	</outline>
	<anchor name="_top" x="-290" y="600"/>
	<anchor name="top.mkmk" x="-292" y="775"/>
</glyph>
<glyph name="uni030B" format="2">
	<unicode hex="030B"/>
	<advance width="1"/>
	<outline>
		<contour>
			<point x="-232" y="771" type="line"/>
			<point x="-342" y="600" type="line"/>
			<point x="-392" y="600" type="line"/>
			<point x="-322" y="771" type="line"/>
		</contour>
		<contour>
			<point x="-92" y="771" type="line"/>
			<point x="-202" y="600" type="line"/>
			<point x="-252" y="600" type="line"/>
			<point x="-182" y="771" type="line"/>
		</contour>
	</outline>
	<anchor name="_top" x="-290" y="600"/>
</glyph>
<glyph name="uni030F" format="2">
	<unicode hex="030F"/>
	<advance width="1"/>
	<outline>
		<contour>
			<point x="-297" y="600" type="line"/>
			<point x="-347" y="600" type="line"/>
			<point x="-457" y="771" type="line"/>
			<point x="-367" y="771" type="line"/>
		</contour>
		<contour>
			<point x="-157" y="600" type="line"/>
			<point x="-207" y="600" type="line"/>
			<point x="-317" y="771" type="line"/>
			<point x="-227" y="771" type="line"/>
		</contour>
	</outline>
	<anchor name="_top" x="-270" y="600"/>
</glyph>
<glyph name="commaabovecomb" format="2">
	<unicode hex="0313"/>
	<outline>
		<contour>
			<point x="-293.252" y="581" type="line"/>
			<point x="-203.252" y="771" type="line"/>
			<point x="-171.252" y="771" type="line"/>
			<point x="-171.478" y="680.849" type="line"/>
			<point x="-253.252" y="581" type="line"/>
		</contour>
		<contour>
			<point x="-273.252" y="771" type="line"/>
			<point x="-191.252" y="771" type="line"/>
			<point x="-191.252" y="671" type="line"/>
			<point x="-273.252" y="671" type="line"/>
		</contour>
	</outline>
</glyph>
<glyph name="uni031C" format="2">
	<unicode hex="031C"/>
	<advance width="1"/>
	<outline>
		<contour>
			<point x="-269.5" y="-319" type="line"/>
			<point x="-329.5" y="-319"/>
			<point x="-379.5" y="-269"/>
			<point x="-379.5" y="-209" type="curve" smooth="yes"/>
			<point x="-379.5" y="-149"/>
			<point x="-329.5" y="-99"/>
			<point x="-269.5" y="-99" type="curve"/>
			<point x="-269.5" y="-139" type="line"/>
			<point x="-309.179" y="-139"/>
			<point x="-339.5" y="-169.321"/>
			<point x="-339.5" y="-209" type="curve" smooth="yes"/>
			<point x="-339.5" y="-248.991"/>
			<point x="-309.491" y="-279"/>
			<point x="-269.5" y="-279" type="curve"/>
		</contour>
	</outline>
</glyph>
<glyph name="uni0394" format="2">
	<unicode hex="0394"/>
	<advance width="719"/>
	<outline>
		<contour>
			<point x="118" y="90" type="line"/>
			<point x="589" y="90" type="line"/>
			<point x="345" y="631" type="line"/>
			<point x="359" y="631" type="line"/>
		</contour>
		<contour>
			<point x="19" y="0" type="line"/>
			<point x="19.3199" y="89.8443" type="line"/>
			<point x="301" y="722" type="line"/>
			<point x="403" y="722" type="line"/>
			<point x="687.859" y="89.6544" type="line"/>
			<point x="688" y="0" type="line"/>
		</contour>
	</outline>
</glyph>
<glyph name="Zeta" format="2">
	<unicode hex="0396"/>
	<advance width="626"/>
	<outline>
		<contour>
			<point x="576" y="0" type="line"/>
			<point x="50" y="0" type="line"/>
			<point x="50" y="110" type="line"/>
			<point x="456" y="635" type="line"/>
			<point x="70" y="635" type="line"/>
			<point x="70" y="722" type="line"/>
			<point x="566" y="722" type="line"/>
			<point x="566" y="612" type="line"/>
			<point x="160" y="87" type="line"/>
			<point x="576" y="87" type="line"/>
		</contour>
	</outline>
</glyph>
<glyph name="Lambda" format="2">
	<unicode hex="039B"/>
	<advance width="654"/>
	<outline>
		<contour>
			<point x="15" y="0" type="line"/>
			<point x="272" y="722" type="line"/>
			<point x="382" y="722" type="line"/>
			<point x="639" y="0" type="line"/>
			<point x="526" y="0" type="line"/>
			<point x="327" y="592" type="line"/>
			<point x="128" y="0" type="line"/>
		</contour>
	</outline>
</glyph>
<glyph name="Xi" format="2">
	<unicode hex="039E"/>
	<advance width="669"/>
	<outline>
		<contour>
			<point x="609" y="621" type="line"/>
			<point x="61" y="621" type="line"/>
			<point x="61" y="722" type="line"/>
			<point x="609" y="722" type="line"/>
		</contour>
		<contour>
			<point x="508" y="320" type="line"/>
			<point x="161" y="320" type="line"/>
			<point x="161" y="421" type="line"/>
			<point x="508" y="421" type="line"/>
		</contour>
		<contour>
			<point x="609" y="0" type="line"/>
			<point x="61" y="0" type="line"/>
			<point x="61" y="101" type="line"/>
			<point x="609" y="101" type="line"/>
		</contour>
	</outline>
</glyph>
<glyph name="Pi" format="2">
	<unicode hex="03A0"/>
	<advance width="673"/>
	<outline>
		<contour>
			<point x="609" y="0" type="line"/>
			<point x="508" y="0" type="line"/>
			<point x="508" y="635" type="line"/>
			<point x="161" y="635" type="line"/>
			<point x="161" y="0" type="line"/>
			<point x="60" y="0" type="line"/>
			<point x="60" y="722" type="line"/>
			<point x="609" y="722" type="line"/>
		</contour>
	</outline>
</glyph>
<glyph name="Sigma" format="2">
	<unicode hex="03A3"/>
	<advance width="626"/>
	<outline>
		<contour>
			<point x="50" y="0" type="line"/>
			<point x="50" y="87" type="line"/>
			<point x="265" y="375" type="line"/>
			<point x="60" y="612" type="line"/>
			<point x="60" y="722" type="line"/>
			<point x="556" y="722" type="line"/>
			<point x="556" y="635" type="line"/>
			<point x="170" y="635" type="line"/>
			<point x="385" y="375" type="line"/>
			<point x="174" y="86" type="line"/>
			<point x="576" y="86" type="line"/>
			<point x="576" y="0" type="line"/>
		</contour>
	</outline>
</glyph>
<glyph name="alpha" format="2">
	<unicode hex="03B1"/>
	<advance width="608"/>
	<outline>
		<contour>
			<point x="278" y="438" type="curve" smooth="yes"/>
			<point x="162" y="438"/>
			<point x="128" y="327.987"/>
			<point x="128" y="239" type="curve" smooth="yes"/>
			<point x="128" y="151.961"/>
			<point x="178" y="53"/>
			<point x="278" y="53" type="curve" smooth="yes"/>
			<point x="392" y="53"/>
			<point x="425" y="173"/>
			<point x="425" y="246" type="curve" smooth="yes"/>
			<point x="425" y="350"/>
			<point x="362" y="438"/>
		</contour>
		<contour>
			<point x="429" y="429" type="curve"/>
			<point x="429" y="505" type="line"/>
			<point x="510" y="505" type="line"/>
			<point x="510" y="91" type="line" smooth="yes"/>
			<point x="510" y="77"/>
			<point x="525" y="61"/>
			<point x="542" y="61" type="curve" smooth="yes"/>
			<point x="547" y="61" type="line" smooth="yes"/>
			<point x="554" y="61"/>
			<point x="561.067" y="62.2166"/>
			<point x="566" y="64" type="curve"/>
			<point x="566" y="-3" type="line"/>
			<point x="552" y="-9"/>
			<point x="538" y="-11"/>
			<point x="523" y="-11" type="curve" smooth="yes"/>
			<point x="452" y="-11"/>
			<point x="441" y="28"/>
			<point x="434" y="75" type="curve"/>
			<point x="396" y="13"/>
			<point x="341" y="-15"/>
			<point x="265" y="-15" type="curve" smooth="yes"/>
			<point x="81" y="-15"/>
			<point x="39" y="148"/>
			<point x="39" y="253" type="curve" smooth="yes"/>
			<point x="39" y="452"/>
			<point x="166" y="514"/>
			<point x="267" y="514" type="curve" smooth="yes"/>
			<point x="340.267" y="514"/>
			<point x="385.841" y="490.258"/>
		</contour>
	</outline>
	<anchor name="tonos.top" x="270" y="600"/>
</glyph>
<glyph name="epsilon" format="2">
	<unicode hex="03B5"/>
	<advance width="551"/>
	<outline>
		<contour>
			<point x="54" y="127.438" type="curve" smooth="yes"/>
			<point x="54" y="188.153"/>
			<point x="94.7513" y="237.503"/>
			<point x="163" y="264" type="curve"/>
			<point x="111.704" y="279.299"/>
			<point x="76" y="323.621"/>
			<point x="76" y="381.784" type="curve" smooth="yes"/>
			<point x="76" y="462.538"/>
			<point x="144.826" y="512"/>
			<point x="262.104" y="512" type="curve" smooth="yes"/>
			<point x="393.521" y="512"/>
			<point x="473" y="449.892"/>
			<point x="473" y="354" type="curve"/>
			<point x="390" y="354" type="line"/>
			<point x="390" y="414.659"/>
			<point x="348.454" y="447"/>
			<point x="273.744" y="447" type="curve" smooth="yes"/>
			<point x="203.442" y="447"/>
			<point x="162" y="418.362"/>
			<point x="162" y="372" type="curve" smooth="yes"/>
			<point x="162" y="333.935"/>
			<point x="188.091" y="303.995"/>
			<point x="223" y="302" type="curve" smooth="yes"/>
			<point x="328" y="296" type="line"/>
			<point x="328" y="227" type="line"/>
			<point x="228" y="221" type="line" smooth="yes"/>
			<point x="180.592" y="218.155"/>
			<point x="147" y="185.889"/>
			<point x="147" y="142.191" type="curve" smooth="yes"/>
			<point x="147" y="89.4713"/>
			<point x="195.896" y="53"/>
			<point x="271.653" y="53" type="curve" smooth="yes"/>
			<point x="352.3" y="53"/>
			<point x="410" y="94.3314"/>
			<point x="410" y="154" type="curve"/>
			<point x="496" y="154" type="line"/>
			<point x="496" y="52.618"/>
			<point x="407.248" y="-12"/>
			<point x="264.812" y="-12" type="curve" smooth="yes"/>
			<point x="134.446" y="-12"/>
			<point x="54" y="42.1317"/>
		</contour>
	</outline>
	<anchor name="tonos.top" x="260" y="600"/>
</glyph>
<glyph name="tau" format="2">
	<unicode hex="03C4"/>
	<advance width="501"/>
	<outline>
		<contour>
			<point x="30" y="429" type="line"/>
			<point x="30" y="501" type="line"/>
			<point x="471" y="501" type="line"/>
			<point x="471" y="432" type="line"/>
			<point x="296" y="432" type="line"/>
			<point x="296" y="121.163" type="line" smooth="yes"/>
			<point x="296" y="78.2435"/>
			<point x="302.505" y="61"/>
			<point x="352" y="61" type="curve" smooth="yes"/>
			<point x="362" y="61"/>
			<point x="371" y="63.0054"/>
			<point x="380" y="65.0108" type="curve"/>
			<point x="380" y="-1.1001" type="line"/>
			<point x="361" y="-6.02867"/>
			<point x="342" y="-8"/>
			<point x="323" y="-8" type="curve" smooth="yes"/>
			<point x="241" y="-8"/>
			<point x="206" y="21.5714"/>
			<point x="206" y="83.0599" type="curve" smooth="yes"/>
			<point x="206" y="429" type="line"/>
		</contour>
	</outline>
</glyph>
<glyph name="psi" format="2">
	<unicode hex="03C8"/>
	<advance width="736"/>
	<outline>
		<contour>
			<point x="324" y="57" type="curve"/>
			<point x="324" y="722" type="line"/>
			<point x="414" y="722" type="line"/>
			<point x="414" y="57" type="line"/>
			<point x="484.192" y="57.2391"/>
			<point x="566" y="91.8691"/>
			<point x="566" y="159" type="curve" smooth="yes"/>
			<point x="566" y="500" type="line"/>
			<point x="656" y="500" type="line"/>
			<point x="656" y="182" type="line" smooth="yes"/>
			<point x="656" y="21.8585"/>
			<point x="518.314" y="-12"/>
			<point x="414" y="-12" type="curve"/>
			<point x="414" y="-200" type="line"/>
			<point x="324" y="-200" type="line"/>
			<point x="324" y="-12" type="line"/>
			<point x="156.854" y="-12.3099"/>
			<point x="80" y="81.67"/>
			<point x="80" y="181" type="curve" smooth="yes"/>
			<point x="80" y="500" type="line"/>
			<point x="170" y="500" type="line"/>
			<point x="170" y="159" type="line" smooth="yes"/>
			<point x="170" y="78.3513"/>
			<point x="255.308" y="57"/>
		</contour>
	</outline>
</glyph>
<glyph name="omega" format="2">
	<unicode hex="03C9"/>
	<advance width="719"/>
	<outline>
		<contour>
			<point x="146" y="500" type="curve"/>
			<point x="241" y="500" type="line"/>
			<point x="166.17" y="403.213"/>
			<point x="121" y="329.083"/>
			<point x="121" y="226" type="curve" smooth="yes"/>
			<point x="121" y="142"/>
			<point x="152" y="60"/>
			<point x="223.781" y="60" type="curve" smooth="yes"/>
			<point x="269" y="60"/>
			<point x="306" y="92.5412"/>
			<point x="306" y="132" type="curve" smooth="yes"/>
			<point x="306" y="387" type="line"/>
			<point x="396" y="387" type="line"/>
			<point x="396" y="152" type="line" smooth="yes"/>
			<point x="396" y="94.9211"/>
			<point x="432.194" y="59"/>
			<point x="480.452" y="59" type="curve" smooth="yes"/>
			<point x="561.887" y="59"/>
			<point x="583" y="159"/>
			<point x="583" y="223.102" type="curve" smooth="yes"/>
			<point x="583" y="319"/>
			<point x="535.747" y="433"/>
			<point x="459.339" y="500" type="curve"/>
			<point x="556.86" y="500" type="line"/>
			<point x="634" y="417"/>
			<point x="671" y="324"/>
			<point x="671" y="227.714" type="curve" smooth="yes"/>
			<point x="671" y="147"/>
			<point x="645" y="-12"/>
			<point x="483.853" y="-12" type="curve" smooth="yes"/>
			<point x="404.043" y="-12"/>
			<point x="376.22" y="27"/>
			<point x="352.484" y="77" type="curve"/>
			<point x="330.725" y="25"/>
			<point x="287" y="-12"/>
			<point x="211.978" y="-12" type="curve" smooth="yes"/>
			<point x="64" y="-12"/>
			<point x="32" y="131.953"/>
			<point x="32" y="229.746" type="curve" smooth="yes"/>
			<point x="32" y="344.081"/>
			<point x="75.7422" y="409.669"/>
		</contour>
	</outline>
	<anchor name="tonos.top" x="350" y="600"/>
</glyph>
<glyph name="uni0407" format="2">
	<unicode hex="0407"/>
	<advance width="261"/>
	<outline>
		<contour>
			<point x="180" y="0" type="line"/>
			<point x="79" y="0" type="line"/>
			<point x="79" y="722" type="line"/>
			<point x="180" y="722" type="line"/>
		</contour>
		<contour>
			<point x="75" y="796" type="line"/>
			<point x="-15" y="796" type="line"/>
			<point x="-15" y="888" type="line"/>
			<point x="75" y="888" type="line"/>
		</contour>
		<contour>
			<point x="275" y="796" type="line"/>
			<point x="185" y="796" type="line"/>
			<point x="185" y="888" type="line"/>
			<point x="275" y="888" type="line"/>
		</contour>
	</outline>
</glyph>
<glyph name="uni0411" format="2">
	<unicode hex="0411"/>
	<advance width="653"/>
	<outline>
		<contour>
			<point x="172" y="88" type="line"/>
			<point x="349" y="88" type="line" smooth="yes"/>
			<point x="439" y="88"/>
			<point x="507" y="129"/>
			<point x="507" y="213" type="curve" smooth="yes"/>
			<point x="507" y="307"/>
			<point x="446" y="338"/>
			<point x="344" y="338" type="curve" smooth="yes"/>
			<point x="172" y="338" type="line"/>
		</contour>
		<contour>
			<point x="70" y="0" type="line"/>
			<point x="70" y="722" type="line"/>
			<point x="510" y="722" type="line"/>
			<point x="510" y="636" type="line"/>
			<point x="172" y="636" type="line"/>
			<point x="172" y="421" type="line"/>
			<point x="349" y="421" type="line" smooth="yes"/>
			<point x="524" y="421"/>
			<point x="604" y="339"/>
			<point x="604" y="202" type="curve" smooth="yes"/>
			<point x="604" y="88"/>
			<point x="522" y="0"/>
			<point x="406" y="0" type="curve" smooth="yes"/>
		</contour>
	</outline>
</glyph>
<glyph name="uni0413" format="2">
	<unicode hex="0413"/>
	<advance width="510"/>
	<outline>
		<contour>
			<point x="490" y="635" type="line"/>
			<point x="171" y="635" type="line"/>
			<point x="171" y="0" type="line"/>
			<point x="70" y="0" type="line"/>
			<point x="70" y="722" type="line"/>
			<point x="490" y="722" type="line"/>
		</contour>
	</outline>
</glyph>
<glyph name="uni0414" format="2">
	<unicode hex="0414"/>
	<advance width="724"/>
	<outline>
		<contour>
			<point x="526" y="86" type="line"/>
			<point x="526" y="637" type="line"/>
			<point x="287" y="637" type="line"/>
			<point x="287" y="576" type="line" smooth="yes"/>
			<point x="287" y="409"/>
			<point x="281" y="225"/>
			<point x="179" y="86" type="curve"/>
		</contour>
		<contour>
			<point x="707" y="-162" type="line"/>
			<point x="607" y="-162" type="line"/>
			<point x="607" y="-1" type="line"/>
			<point x="113" y="-1" type="line"/>
			<point x="113" y="-162" type="line"/>
			<point x="13" y="-162" type="line"/>
			<point x="13" y="85" type="line"/>
			<point x="69" y="85" type="line"/>
			<point x="187" y="230"/>
			<point x="193" y="411"/>
			<point x="193" y="587" type="curve" smooth="yes"/>
			<point x="193" y="722" type="line"/>
			<point x="628" y="722" type="line"/>
			<point x="628" y="86" type="line"/>
			<point x="707" y="86" type="line"/>
		</contour>
	</outline>
</glyph>
<glyph name="uni0416" format="2">
	<unicode hex="0416"/>
	<advance width="959"/>
	<outline>
		<contour>
			<point x="429" y="381" type="line"/>
			<point x="155" y="0" type="line"/>
			<point x="20" y="0" type="line"/>
			<point x="314" y="411" type="line"/>
			<point x="57" y="722" type="line"/>
			<point x="181" y="722" type="line"/>
			<point x="429" y="415" type="line"/>
			<point x="429" y="722" type="line"/>
			<point x="530" y="722" type="line"/>
			<point x="530" y="415" type="line"/>
			<point x="778" y="722" type="line"/>
			<point x="902" y="722" type="line"/>
			<point x="645" y="411" type="line"/>
			<point x="939" y="0" type="line"/>
			<point x="804" y="0" type="line"/>
			<point x="530" y="381" type="line"/>
			<point x="530" y="0" type="line"/>
			<point x="429" y="0" type="line"/>
		</contour>
	</outline>
</glyph>
<glyph name="uni0418" format="2">
	<unicode hex="0418"/>
	<advance width="703"/>
	<outline>
		<contour>
			<point x="70" y="0" type="line"/>
			<point x="70" y="722" type="line"/>
			<point x="171" y="722" type="line"/>
			<point x="171" y="130" type="line"/>
			<point x="490" y="722" type="line"/>
			<point x="633" y="722" type="line"/>
			<point x="633" y="0" type="line"/>
			<point x="532" y="0" type="line"/>
			<point x="532" y="592" type="line"/>
			<point x="214" y="0" type="line"/>
		</contour>
	</outline>
</glyph>
<glyph name="uni0419" format="2">
	<unicode hex="0419"/>
	<advance width="703"/>
	<outline>
		<contour>
			<point x="70" y="0" type="line"/>
			<point x="70" y="722" type="line"/>
			<point x="171" y="722" type="line"/>
			<point x="171" y="130" type="line"/>
			<point x="490" y="722" type="line"/>
			<point x="633" y="722" type="line"/>
			<point x="633" y="0" type="line"/>
			<point x="532" y="0" type="line"/>
			<point x="532" y="592" type="line"/>
			<point x="214" y="0" type="line"/>
		</contour>
		<contour>
			<point x="336" y="823" type="curve" smooth="yes"/>
			<point x="374" y="823"/>
			<point x="418" y="846"/>
			<point x="425" y="877" type="curve"/>
			<point x="477" y="877" type="line"/>
			<point x="468" y="814"/>
			<point x="410" y="760"/>
			<point x="336" y="760" type="curve" smooth="yes"/>
			<point x="263" y="760"/>
			<point x="204" y="813"/>
			<point x="196" y="877" type="curve"/>
			<point x="248" y="877" type="line"/>
			<point x="255" y="847"/>
			<point x="299" y="823"/>
		</contour>
	</outline>
</glyph>
<glyph name="uni041B" format="2">
	<unicode hex="041B"/>
	<advance width="704"/>
	<outline>
		<contour>
			<point x="15" y="2" type="curve"/>
			<point x="15" y="88" type="line"/>
			<point x="26" y="83"/>
			<point x="43" y="82"/>
			<point x="53" y="82" type="curve" smooth="yes"/>
			<point x="154" y="82"/>
			<point x="165" y="242"/>
			<point x="165" y="418" type="curve" smooth="yes"/>
			<point x="165" y="722" type="line"/>
			<point x="634" y="722" type="line"/>
			<point x="634" y="0" type="line"/>
			<point x="533" y="0" type="line"/>
			<point x="533" y="637" type="line"/>
			<point x="265" y="637" type="line"/>
			<point x="265" y="394" type="line" smooth="yes"/>
			<point x="265" y="129"/>
			<point x="230" y="-7"/>
			<point x="68" y="-7" type="curve" smooth="yes"/>
			<point x="49" y="-7"/>
			<point x="29" y="-4"/>
		</contour>
	</outline>
</glyph>
<glyph name="uni041F" format="2">
	<unicode hex="041F"/>
	<advance width="689"/>
	<outline>
		<contour>
			<point x="619" y="0" type="line"/>
			<point x="518" y="0" type="line"/>
			<point x="518" y="635" type="line"/>
			<point x="171" y="635" type="line"/>
			<point x="171" y="0" type="line"/>
			<point x="70" y="0" type="line"/>
			<point x="70" y="722" type="line"/>
			<point x="619" y="722" type="line"/>
		</contour>
	</outline>
</glyph>
<glyph name="uni0423" format="2">
	<unicode hex="0423"/>
	<advance width="666"/>
	<outline>
		<contour>
			<point x="651" y="722" type="line"/>
			<point x="367" y="148" type="line"/>
			<point x="331" y="78" type="line"/>
			<point x="297" y="27"/>
			<point x="246" y="-10"/>
			<point x="170" y="-10" type="curve" smooth="yes"/>
			<point x="127" y="-10"/>
			<point x="84" y="14"/>
			<point x="58" y="34" type="curve"/>
			<point x="58" y="102" type="line"/>
			<point x="72" y="86"/>
			<point x="122" y="71"/>
			<point x="152" y="71" type="curve" smooth="yes"/>
			<point x="230" y="71"/>
			<point x="261" y="135"/>
			<point x="300" y="225" type="curve"/>
			<point x="15" y="722" type="line"/>
			<point x="138" y="722" type="line"/>
			<point x="342" y="328" type="line"/>
			<point x="537" y="722" type="line"/>
		</contour>
	</outline>
</glyph>
<glyph name="uni0424" format="2">
	<unicode hex="0424"/>
	<advance width="735"/>
	<outline>
		<contour>
			<point x="147" y="372" type="curve" smooth="yes"/>
			<point x="147" y="203"/>
			<point x="206" y="153"/>
			<point x="296" y="153" type="curve" smooth="yes"/>
			<point x="312" y="153" type="line"/>
			<point x="312" y="564" type="line"/>
			<point x="296" y="564" type="line" smooth="yes"/>
			<point x="206" y="564"/>
			<point x="147" y="517"/>
		</contour>
		<contour>
			<point x="50" y="373" type="curve" smooth="yes"/>
			<point x="50" y="583"/>
			<point x="162" y="652"/>
			<point x="299" y="652" type="curve" smooth="yes"/>
			<point x="312" y="652" type="line"/>
			<point x="312" y="721" type="line"/>
			<point x="413" y="721" type="line"/>
			<point x="413" y="651" type="line"/>
			<point x="426" y="651" type="line" smooth="yes"/>
			<point x="569" y="651"/>
			<point x="685" y="583"/>
			<point x="685" y="373" type="curve" smooth="yes"/>
			<point x="685" y="130"/>
			<point x="568" y="65"/>
			<point x="426" y="65" type="curve" smooth="yes"/>
			<point x="413" y="65" type="line"/>
			<point x="413" y="-1" type="line"/>
			<point x="312" y="-1" type="line"/>
			<point x="312" y="65" type="line"/>
			<point x="299" y="65" type="line" smooth="yes"/>
			<point x="162" y="65"/>
			<point x="50" y="130"/>
		</contour>
		<contour>
			<point x="413" y="154" type="line"/>
			<point x="429" y="154" type="line" smooth="yes"/>
			<point x="526" y="154"/>
			<point x="588" y="204"/>
			<point x="588" y="373" type="curve" smooth="yes"/>
			<point x="588" y="518"/>
			<point x="525" y="565"/>
			<point x="429" y="565" type="curve" smooth="yes"/>
			<point x="413" y="565" type="line"/>
		</contour>
	</outline>
</glyph>
<glyph name="uni0426" format="2">
	<unicode hex="0426"/>
	<advance width="709"/>
	<outline>
		<contour>
			<point x="588" y="0" type="line"/>
			<point x="70" y="0" type="line"/>
			<point x="70" y="722" type="line"/>
			<point x="171" y="722" type="line"/>
			<point x="171" y="87" type="line"/>
			<point x="518" y="87" type="line"/>
			<point x="518" y="722" type="line"/>
			<point x="619" y="722" type="line"/>
			<point x="619" y="87" type="line"/>
			<point x="689" y="87" type="line"/>
			<point x="689" y="-155" type="line"/>
			<point x="588" y="-155" type="line"/>
		</contour>
	</outline>
</glyph>
<glyph name="uni0429" format="2">
	<unicode hex="0429"/>
	<advance width="880"/>
	<outline>
		<contour>
			<point x="748" y="0" type="line"/>
			<point x="70" y="0" type="line"/>
			<point x="70" y="722" type="line"/>
			<point x="171" y="722" type="line"/>
			<point x="171" y="87" type="line"/>
			<point x="380" y="87" type="line"/>
			<point x="380" y="722" type="line"/>
			<point x="481" y="722" type="line"/>
			<point x="481" y="87" type="line"/>
			<point x="678" y="87" type="line"/>
			<point x="678" y="722" type="line"/>
			<point x="779" y="722" type="line"/>
			<point x="779" y="87" type="line"/>
			<point x="849" y="87" type="line"/>
			<point x="849" y="-155" type="line"/>
			<point x="748" y="-155" type="line"/>
		</contour>
	</outline>
</glyph>
<glyph name="uni042A" format="2">
	<unicode hex="042A"/>
	<advance width="666"/>
	<outline>
		<contour>
			<point x="632" y="208" type="curve" smooth="yes"/>
			<point x="632" y="36"/>
			<point x="512" y="0"/>
			<point x="353" y="0" type="curve" smooth="yes"/>
			<point x="149" y="0" type="line"/>
			<point x="149" y="635" type="line"/>
			<point x="20" y="635" type="line"/>
			<point x="20" y="722" type="line"/>
			<point x="250" y="722" type="line"/>
			<point x="250" y="416" type="line"/>
			<point x="353" y="416" type="line" smooth="yes"/>
			<point x="515" y="416"/>
			<point x="632" y="374"/>
		</contour>
		<contour>
			<point x="356" y="327" type="curve" smooth="yes"/>
			<point x="250" y="327" type="line"/>
			<point x="250" y="86" type="line"/>
			<point x="356" y="86" type="line" smooth="yes"/>
			<point x="464" y="86"/>
			<point x="535" y="109"/>
			<point x="535" y="208" type="curve" smooth="yes"/>
			<point x="535" y="307"/>
			<point x="465" y="327"/>
		</contour>
	</outline>
</glyph>
<glyph name="uni042C" format="2">
	<unicode hex="042C"/>
	<advance width="588"/>
	<outline>
		<contour>
			<point x="277" y="328" type="curve" smooth="yes"/>
			<point x="171" y="328" type="line"/>
			<point x="171" y="87" type="line"/>
			<point x="277" y="87" type="line" smooth="yes"/>
			<point x="385" y="87"/>
			<point x="456" y="110"/>
			<point x="456" y="209" type="curve" smooth="yes"/>
			<point x="456" y="308"/>
			<point x="386" y="328"/>
		</contour>
		<contour>
			<point x="553" y="209" type="curve" smooth="yes"/>
			<point x="553" y="37"/>
			<point x="433" y="1"/>
			<point x="274" y="1" type="curve" smooth="yes"/>
			<point x="70" y="1" type="line"/>
			<point x="70" y="722" type="line"/>
			<point x="171" y="722" type="line"/>
			<point x="171" y="417" type="line"/>
			<point x="274" y="417" type="line" smooth="yes"/>
			<point x="436" y="417"/>
			<point x="553" y="375"/>
		</contour>
	</outline>
</glyph>
<glyph name="uni042E" format="2">
	<unicode hex="042E"/>
	<advance width="993"/>
	<outline>
		<contour>
			<point x="915" y="366.826" type="curve" smooth="yes"/>
			<point x="915" y="132"/>
			<point x="791" y="-15"/>
			<point x="590.148" y="-15" type="curve" smooth="yes"/>
			<point x="371" y="-15"/>
			<point x="275" y="156"/>
			<point x="262" y="322" type="curve"/>
			<point x="171" y="322" type="line"/>
			<point x="171" y="0" type="line"/>
			<point x="70" y="0" type="line"/>
			<point x="70" y="722" type="line"/>
			<point x="171" y="722" type="line"/>
			<point x="171" y="409" type="line"/>
			<point x="261" y="409" type="line"/>
			<point x="274" y="605"/>
			<point x="386" y="736"/>
			<point x="586.88" y="736" type="curve" smooth="yes"/>
			<point x="803" y="736"/>
			<point x="915" y="590"/>
		</contour>
		<contour>
			<point x="812" y="371.157" type="curve" smooth="yes"/>
			<point x="812" y="550"/>
			<point x="748" y="650"/>
			<point x="590" y="650" type="curve" smooth="yes"/>
			<point x="432" y="650"/>
			<point x="363" y="550"/>
			<point x="363" y="362.865" type="curve" smooth="yes"/>
			<point x="363" y="195"/>
			<point x="424" y="74"/>
			<point x="589.869" y="74" type="curve" smooth="yes"/>
			<point x="757" y="74"/>
			<point x="812" y="197"/>
		</contour>
	</outline>
</glyph>
<glyph name="uni042F" format="2">
	<unicode hex="042F"/>
	<advance width="629"/>
	<outline>
		<contour>
			<point x="331" y="415" type="curve" smooth="yes"/>
			<point x="456" y="415" type="line"/>
			<point x="456" y="635" type="line"/>
			<point x="331" y="635" type="line" smooth="yes"/>
			<point x="237" y="635"/>
			<point x="169" y="614"/>
			<point x="169" y="525" type="curve" smooth="yes"/>
			<point x="169" y="437"/>
			<point x="237" y="415"/>
		</contour>
		<contour>
			<point x="50" y="0" type="line"/>
			<point x="61" y="33"/>
			<point x="73" y="87"/>
			<point x="83" y="140" type="curve"/>
			<point x="88" y="172" type="line" smooth="yes"/>
			<point x="102" y="249"/>
			<point x="103" y="356"/>
			<point x="205" y="370" type="curve"/>
			<point x="117" y="398"/>
			<point x="70" y="465"/>
			<point x="70" y="526" type="curve" smooth="yes"/>
			<point x="70" y="669"/>
			<point x="155" y="723"/>
			<point x="330" y="723" type="curve" smooth="yes"/>
			<point x="559" y="723" type="line"/>
			<point x="559" y="0" type="line"/>
			<point x="458" y="0" type="line"/>
			<point x="458" y="329" type="line"/>
			<point x="339" y="329" type="line" smooth="yes"/>
			<point x="215" y="329"/>
			<point x="203" y="272"/>
			<point x="182" y="155" type="curve" smooth="yes"/>
			<point x="176" y="123" type="line"/>
			<point x="170" y="84"/>
			<point x="163" y="42"/>
			<point x="154" y="0" type="curve"/>
		</contour>
	</outline>
</glyph>
<glyph name="uni0431" format="2">
	<unicode hex="0431"/>
	<advance width="586"/>
	<outline>
		<contour>
			<point x="50" y="276" type="curve" smooth="yes"/>
			<point x="50" y="605"/>
			<point x="176.415" y="663.587"/>
			<point x="310.03" y="687.69" type="curve" smooth="yes"/>
			<point x="418.522" y="707.262"/>
			<point x="446" y="712.85"/>
			<point x="464.697" y="722" type="curve"/>
			<point x="526" y="722" type="line"/>
			<point x="516" y="672"/>
			<point x="489.575" y="620.552"/>
			<point x="391.834" y="613" type="curve" smooth="yes"/>
			<point x="204.388" y="598.541"/>
			<point x="148.091" y="554.811"/>
			<point x="119.263" y="401" type="curve"/>
			<point x="121.242" y="400" type="line"/>
			<point x="161.057" y="476"/>
			<point x="231.294" y="512"/>
			<point x="309.85" y="512" type="curve" smooth="yes"/>
			<point x="449" y="512"/>
			<point x="536" y="399"/>
			<point x="536" y="255" type="curve" smooth="yes"/>
			<point x="536" y="111"/>
			<point x="449" y="-14"/>
			<point x="285.449" y="-14" type="curve" smooth="yes"/>
			<point x="120.253" y="-14"/>
			<point x="50" y="114"/>
		</contour>
		<contour>
			<point x="144" y="263" type="curve" smooth="yes"/>
			<point x="144" y="156"/>
			<point x="180.122" y="51"/>
			<point x="285.479" y="51" type="curve" smooth="yes"/>
			<point x="391.834" y="51"/>
			<point x="441" y="158"/>
			<point x="441" y="258.636" type="curve" smooth="yes"/>
			<point x="441" y="354"/>
			<point x="396.851" y="447"/>
			<point x="296.932" y="447" type="curve" smooth="yes"/>
			<point x="199.186" y="447"/>
			<point x="144" y="358"/>
		</contour>
	</outline>
</glyph>
<glyph name="uni0438" format="2">
	<unicode hex="0438"/>
	<advance width="620"/>
	<outline>
		<contour>
			<point x="80" y="0" type="line"/>
			<point x="80" y="500" type="line"/>
			<point x="170" y="500" type="line"/>
			<point x="170" y="124" type="line"/>
			<point x="173" y="124" type="line"/>
			<point x="437" y="500" type="line"/>
			<point x="540" y="500" type="line"/>
			<point x="540" y="0" type="line"/>
			<point x="450" y="0" type="line"/>
			<point x="450" y="377" type="line"/>
			<point x="447" y="377" type="line"/>
			<point x="183" y="0" type="line"/>
		</contour>
	</outline>
</glyph>
<glyph name="uni0439" format="2">
	<unicode hex="0439"/>
	<advance width="620"/>
	<outline>
		<component base="uni0438"/>
		<component base="uni0438"/>
		<contour>
			<point x="194" y="722" type="line"/>
			<point x="204" y="676"/>
			<point x="236" y="651"/>
			<point x="285" y="651" type="curve" smooth="yes"/>
			<point x="336" y="651"/>
			<point x="366" y="674"/>
			<point x="379" y="722" type="curve"/>
			<point x="428" y="722" type="line"/>
			<point x="423" y="634"/>
			<point x="371" y="584"/>
			<point x="284" y="584" type="curve" smooth="yes"/>
			<point x="200" y="584"/>
			<point x="151" y="634"/>
			<point x="146" y="722" type="curve"/>
		</contour>
	</outline>
</glyph>
<glyph name="uni043C" format="2">
	<unicode hex="043C"/>
	<advance width="790"/>
	<outline>
		<contour>
			<point x="710" y="0" type="line"/>
			<point x="620" y="0" type="line"/>
			<point x="620" y="430" type="line"/>
			<point x="452" y="0" type="line"/>
			<point x="336" y="0" type="line"/>
			<point x="170" y="430" type="line"/>
			<point x="170" y="0" type="line"/>
			<point x="80" y="0" type="line"/>
			<point x="80" y="500" type="line"/>
			<point x="241" y="500" type="line"/>
			<point x="394" y="78" type="line"/>
			<point x="548" y="500" type="line"/>
			<point x="710" y="500" type="line"/>
		</contour>
	</outline>
</glyph>
<glyph name="uni0442" format="2">
	<unicode hex="0442"/>
	<advance width="474"/>
	<outline>
		<contour>
			<point x="192" y="0" type="line"/>
			<point x="192" y="435" type="line"/>
			<point x="30" y="435" type="line"/>
			<point x="30" y="500" type="line"/>
			<point x="444" y="500" type="line"/>
			<point x="444" y="435" type="line"/>
			<point x="282" y="435" type="line"/>
			<point x="282" y="0" type="line"/>
		</contour>
	</outline>
</glyph>
<glyph name="uni0444" format="2">
	<unicode hex="0444"/>
	<advance width="826"/>
	<outline>
		<contour>
			<point x="60" y="249" type="curve" smooth="yes"/>
			<point x="60" y="406"/>
			<point x="133" y="513"/>
			<point x="273" y="513" type="curve" smooth="yes"/>
			<point x="292.801" y="513"/>
			<point x="347.486" y="504.452"/>
			<point x="368" y="477" type="curve"/>
			<point x="368" y="722" type="line"/>
			<point x="458" y="722" type="line"/>
			<point x="458" y="477" type="line"/>
			<point x="478.581" y="504.478"/>
			<point x="533" y="513"/>
			<point x="553" y="513" type="curve" smooth="yes"/>
			<point x="693" y="513"/>
			<point x="766" y="406"/>
			<point x="766" y="249" type="curve" smooth="yes"/>
			<point x="766" y="93"/>
			<point x="693" y="-14"/>
			<point x="553" y="-14" type="curve" smooth="yes"/>
			<point x="533" y="-14"/>
			<point x="488.002" y="-3.61023"/>
			<point x="458" y="22" type="curve"/>
			<point x="458" y="-198" type="line"/>
			<point x="368" y="-198" type="line"/>
			<point x="368" y="22" type="line"/>
			<point x="338.246" y="-3.73306"/>
			<point x="293" y="-14"/>
			<point x="273" y="-14" type="curve" smooth="yes"/>
			<point x="133" y="-14"/>
			<point x="60" y="93"/>
		</contour>
		<contour>
			<point x="457.827" y="69" type="line"/>
			<point x="477.827" y="49"/>
			<point x="506" y="49"/>
			<point x="526" y="49" type="curve" smooth="yes"/>
			<point x="625" y="49"/>
			<point x="672" y="139"/>
			<point x="672" y="250" type="curve" smooth="yes"/>
			<point x="672" y="361"/>
			<point x="625" y="449"/>
			<point x="526" y="449" type="curve" smooth="yes"/>
			<point x="514.626" y="449"/>
			<point x="477.827" y="440.635"/>
			<point x="457.827" y="416.111" type="curve"/>
		</contour>
		<contour>
			<point x="160" y="250" type="curve" smooth="yes"/>
			<point x="160" y="139"/>
			<point x="201" y="49"/>
			<point x="300" y="49" type="curve" smooth="yes"/>
			<point x="320" y="49"/>
			<point x="348.173" y="49"/>
			<point x="368.173" y="69" type="curve"/>
			<point x="368.173" y="416.111" type="line"/>
			<point x="348.173" y="440.635"/>
			<point x="311.374" y="449"/>
			<point x="300" y="449" type="curve" smooth="yes"/>
			<point x="201" y="449"/>
			<point x="160" y="361"/>
		</contour>
	</outline>
</glyph>
<glyph name="uni0446" format="2">
	<unicode hex="0446"/>
	<advance width="611"/>
	<outline>
		<contour>
			<point x="80" y="0" type="line"/>
			<point x="80" y="500" type="line"/>
			<point x="170" y="500" type="line"/>
			<point x="170" y="65" type="line"/>
			<point x="417" y="65" type="line"/>
			<point x="417" y="500" type="line"/>
			<point x="507" y="500" type="line"/>
			<point x="507" y="65" type="line"/>
			<point x="581" y="65" type="line"/>
			<point x="581" y="-141" type="line"/>
			<point x="491" y="-141" type="line"/>
			<point x="491" y="0" type="line"/>
		</contour>
	</outline>
</glyph>
<glyph name="uni0447" format="2">
	<unicode hex="0447"/>
	<advance width="535"/>
	<outline>
		<contour>
			<point x="50" y="359" type="curve" smooth="yes"/>
			<point x="50" y="500" type="line"/>
			<point x="140" y="500" type="line"/>
			<point x="140" y="381" type="line" smooth="yes"/>
			<point x="140" y="303"/>
			<point x="176" y="266"/>
			<point x="253" y="266" type="curve" smooth="yes"/>
			<point x="293" y="266"/>
			<point x="343" y="274"/>
			<point x="365" y="284" type="curve"/>
			<point x="365" y="500" type="line"/>
			<point x="455" y="500" type="line"/>
			<point x="455" y="0" type="line"/>
			<point x="365" y="0" type="line"/>
			<point x="365" y="215" type="line"/>
			<point x="333" y="201"/>
			<point x="276" y="192"/>
			<point x="223" y="192" type="curve" smooth="yes"/>
			<point x="112" y="192"/>
			<point x="50" y="252"/>
		</contour>
	</outline>
</glyph>
<glyph name="uni0448" format="2">
	<unicode hex="0448"/>
	<advance width="828"/>
	<outline>
		<contour>
			<point x="80" y="0" type="line"/>
			<point x="80" y="500" type="line"/>
			<point x="170" y="500" type="line"/>
			<point x="170" y="65" type="line"/>
			<point x="369" y="65" type="line"/>
			<point x="369" y="500" type="line"/>
			<point x="459" y="500" type="line"/>
			<point x="459" y="65" type="line"/>
			<point x="658" y="65" type="line"/>
			<point x="658" y="500" type="line"/>
			<point x="748" y="500" type="line"/>
			<point x="748" y="0" type="line"/>
		</contour>
	</outline>
</glyph>
<glyph name="uni044B" format="2">
	<unicode hex="044B"/>
	<advance width="740"/>
	<outline>
		<component base="uni044C"/>
		<contour>
			<point x="570" y="0" type="line"/>
			<point x="570" y="500" type="line"/>
			<point x="660" y="500" type="line"/>
			<point x="660" y="0" type="line"/>
		</contour>
	</outline>
</glyph>
<glyph name="uni044C" format="2">
	<unicode hex="044C"/>
	<advance width="539"/>
	<outline>
		<contour>
			<point x="80" y="0" type="line"/>
			<point x="80" y="500" type="line"/>
			<point x="170" y="500" type="line"/>
			<point x="170" y="325" type="line"/>
			<point x="300" y="325" type="line" smooth="yes"/>
			<point x="409" y="325"/>
			<point x="479" y="263"/>
			<point x="479" y="162" type="curve" smooth="yes"/>
			<point x="479" y="62"/>
			<point x="416" y="0"/>
			<point x="309" y="0" type="curve" smooth="yes"/>
		</contour>
		<contour>
			<point x="170" y="70" type="line"/>
			<point x="285" y="70" type="line" smooth="yes"/>
			<point x="346" y="70"/>
			<point x="384" y="106"/>
			<point x="384" y="163" type="curve" smooth="yes"/>
			<point x="384" y="223"/>
			<point x="348" y="255"/>
			<point x="279" y="255" type="curve" smooth="yes"/>
			<point x="170" y="255" type="line"/>
		</contour>
	</outline>
</glyph>
<glyph name="uni044E" format="2">
	<unicode hex="044E"/>
	<advance width="808"/>
	<outline>
		<contour>
			<point x="80" y="0" type="line"/>
			<point x="80" y="500" type="line"/>
			<point x="170" y="500" type="line"/>
			<point x="170" y="294" type="line"/>
			<point x="258" y="294" type="line"/>
			<point x="268" y="418.827"/>
			<point x="359" y="510"/>
			<point x="507" y="510" type="curve" smooth="yes"/>
			<point x="665" y="510"/>
			<point x="748" y="406.747"/>
			<point x="748" y="254.061" type="curve" smooth="yes"/>
			<point x="748" y="89"/>
			<point x="651" y="-10"/>
			<point x="500.969" y="-10" type="curve" smooth="yes"/>
			<point x="354" y="-10"/>
			<point x="265" y="85"/>
			<point x="255" y="225" type="curve"/>
			<point x="170" y="225" type="line"/>
			<point x="170" y="0" type="line"/>
		</contour>
		<contour>
			<point x="350" y="246.705" type="curve" smooth="yes"/>
			<point x="350" y="128"/>
			<point x="407" y="55"/>
			<point x="501" y="55" type="curve" smooth="yes"/>
			<point x="608" y="55"/>
			<point x="653" y="146"/>
			<point x="653" y="254.571" type="curve" smooth="yes"/>
			<point x="653" y="375.54"/>
			<point x="598" y="445"/>
			<point x="507" y="445" type="curve" smooth="yes"/>
			<point x="412" y="445"/>
			<point x="350" y="370.507"/>
		</contour>
	</outline>
</glyph>
<glyph name="uni0457" format="2">
	<unicode hex="0457"/>
	<advance width="229"/>
	<outline>
		<contour>
			<point x="160" y="0" type="line"/>
			<point x="70" y="0" type="line"/>
			<point x="70" y="500" type="line"/>
			<point x="160" y="500" type="line"/>
		</contour>
		<contour>
			<point x="60" y="573" type="line"/>
			<point x="-30" y="573" type="line"/>
			<point x="-30" y="665" type="line"/>
			<point x="70" y="665" type="line"/>
		</contour>
		<contour>
			<point x="260" y="573" type="line"/>
			<point x="170" y="573" type="line"/>
			<point x="170" y="665" type="line"/>
			<point x="260" y="665" type="line"/>
		</contour>
	</outline>
</glyph>
<glyph name="uni1E1D" format="2">
	<unicode hex="1E1D"/>
	<advance width="575"/>
	<outline>
		<contour>
			<point x="60" y="250" type="curve" smooth="yes"/>
			<point x="60" y="405"/>
			<point x="134" y="512"/>
			<point x="291" y="512" type="curve" smooth="yes"/>
			<point x="434" y="512"/>
			<point x="514" y="423"/>
			<point x="514" y="282" type="curve" smooth="yes"/>
			<point x="514" y="236" type="line"/>
			<point x="154" y="236" type="line"/>
			<point x="154" y="134"/>
			<point x="204" y="51"/>
			<point x="299" y="51" type="curve" smooth="yes"/>
			<point x="370" y="51"/>
			<point x="413" y="98"/>
			<point x="419" y="160" type="curve"/>
			<point x="515" y="160" type="line"/>
			<point x="495" y="55"/>
			<point x="418" y="-14"/>
			<point x="291" y="-14" type="curve" smooth="yes"/>
			<point x="128" y="-14"/>
			<point x="60" y="102"/>
		</contour>
		<contour>
			<point x="154" y="301" type="curve"/>
			<point x="420" y="301" type="line"/>
			<point x="420" y="361"/>
			<point x="395" y="447"/>
			<point x="291" y="447" type="curve" smooth="yes"/>
			<point x="213" y="447"/>
			<point x="154" y="399"/>
		</contour>
		<contour>
			<point x="406.146" y="-140.014" type="curve" smooth="yes"/>
			<point x="406.146" y="-196.535"/>
			<point x="364.146" y="-232"/>
			<point x="297.21" y="-232" type="curve" smooth="yes"/>
			<point x="272.21" y="-232"/>
			<point x="248.626" y="-229"/>
			<point x="209.626" y="-223" type="curve"/>
			<point x="209.626" y="-173" type="line"/>
			<point x="231.002" y="-180.911"/>
			<point x="260.732" y="-185"/>
			<point x="287.629" y="-185" type="curve" smooth="yes"/>
			<point x="318.343" y="-185"/>
			<point x="335.146" y="-169.446"/>
			<point x="335.146" y="-141.014" type="curve" smooth="yes"/>
			<point x="335.146" y="-108.667"/>
			<point x="309.434" y="-89"/>
			<point x="267.142" y="-89" type="curve" smooth="yes"/>
			<point x="214.146" y="-89" type="line"/>
			<point x="262.146" y="11" type="line"/>
			<point x="311.146" y="11" type="line"/>
			<point x="279.356" y="-52.1676" type="line"/>
			<point x="372.222" y="-52.1676"/>
			<point x="406.146" y="-82.1866"/>
		</contour>
		<contour>
			<point x="145" y="697" type="curve"/>
			<point x="197" y="697" type="line"/>
			<point x="203" y="666"/>
			<point x="251" y="644"/>
			<point x="287" y="644" type="curve" smooth="yes"/>
			<point x="323" y="644"/>
			<point x="371" y="666"/>
			<point x="377" y="697" type="curve"/>
			<point x="427" y="697" type="line"/>
			<point x="416" y="631"/>
			<point x="355" y="580"/>
			<point x="286" y="580" type="curve" smooth="yes"/>
			<point x="215" y="580"/>
			<point x="153" y="631"/>
		</contour>
	</outline>
	<anchor name="bottom" x="288" y="-89"/>
	<anchor name="top" x="284" y="580"/>
</glyph>
<glyph name="uni1E4E" format="2">
	<unicode hex="1E4E"/>
	<advance width="754"/>
	<outline>
		<contour>
			<point x="50" y="372" type="curve" smooth="yes"/>
			<point x="50" y="589"/>
			<point x="163" y="736"/>
			<point x="378" y="736" type="curve" smooth="yes"/>
			<point x="592" y="736"/>
			<point x="704" y="589"/>
			<point x="704" y="372" type="curve" smooth="yes"/>
			<point x="704" y="157"/>
			<point x="595" y="-14"/>
			<point x="378" y="-14" type="curve" smooth="yes"/>
			<point x="160" y="-14"/>
			<point x="50" y="158"/>
		</contour>
		<contour>
			<point x="153" y="371" type="curve" smooth="yes"/>
			<point x="153" y="208"/>
			<point x="210" y="74"/>
			<point x="378" y="74" type="curve" smooth="yes"/>
			<point x="546" y="74"/>
			<point x="601" y="207"/>
			<point x="601" y="372" type="curve" smooth="yes"/>
			<point x="601" y="540"/>
			<point x="544" y="649"/>
			<point x="378" y="649" type="curve" smooth="yes"/>
			<point x="228" y="649"/>
			<point x="153" y="558"/>
		</contour>
		<contour>
			<point x="214" y="795" type="line"/>
			<point x="220" y="857"/>
			<point x="260" y="893"/>
			<point x="299" y="893" type="curve" smooth="yes"/>
			<point x="320" y="893"/>
			<point x="345.086" y="884.178"/>
			<point x="368" y="873" type="curve" smooth="yes"/>
			<point x="386.087" y="864.177"/>
			<point x="404" y="857"/>
			<point x="416" y="857" type="curve" smooth="yes"/>
			<point x="433" y="857"/>
			<point x="446" y="871"/>
			<point x="450" y="898" type="curve"/>
			<point x="505" y="898" type="line"/>
			<point x="500" y="843"/>
			<point x="467" y="800"/>
			<point x="422" y="800" type="curve" smooth="yes"/>
			<point x="399" y="800"/>
			<point x="373" y="810"/>
			<point x="352.089" y="820.455" type="curve" smooth="yes"/>
			<point x="333" y="830"/>
			<point x="316" y="836"/>
			<point x="304" y="836" type="curve" smooth="yes"/>
			<point x="287" y="836"/>
			<point x="272" y="822"/>
			<point x="269" y="795" type="curve"/>
		</contour>
		<contour>
			<point x="513" y="947" type="line"/>
			<point x="423" y="947" type="line"/>
			<point x="423" y="1047" type="line"/>
			<point x="513" y="1047" type="line"/>
		</contour>
		<contour>
			<point x="313" y="947" type="line"/>
			<point x="223" y="947" type="line"/>
			<point x="223" y="1047" type="line"/>
			<point x="313" y="1047" type="line"/>
		</contour>
	</outline>
	<anchor name="top" x="365" y="797"/>
	<anchor name="top.mkmk" x="368" y="972"/>
</glyph>
<glyph name="uni1E4F" format="2">
	<unicode hex="1E4F"/>
	<advance width="620"/>
	<outline>
		<contour>
			<point x="60" y="250" type="curve" smooth="yes"/>
			<point x="60" y="411"/>
			<point x="157" y="512"/>
			<point x="311" y="512" type="curve" smooth="yes"/>
			<point x="465" y="512"/>
			<point x="560" y="411"/>
			<point x="560" y="250" type="curve" smooth="yes"/>
			<point x="560" y="89"/>
			<point x="465" y="-12"/>
			<point x="311" y="-12" type="curve" smooth="yes"/>
			<point x="157" y="-12"/>
			<point x="60" y="89"/>
		</contour>
		<contour>
			<point x="154" y="250" type="curve" smooth="yes"/>
			<point x="154" y="117"/>
			<point x="210" y="53"/>
			<point x="310" y="53" type="curve" smooth="yes"/>
			<point x="410" y="53"/>
			<point x="466" y="117"/>
			<point x="466" y="250" type="curve" smooth="yes"/>
			<point x="466" y="383"/>
			<point x="410" y="447"/>
			<point x="310" y="447" type="curve" smooth="yes"/>
			<point x="210" y="447"/>
			<point x="154" y="383"/>
		</contour>
		<contour>
			<point x="153" y="558" type="line"/>
			<point x="159" y="620"/>
			<point x="199" y="656"/>
			<point x="238" y="656" type="curve" smooth="yes"/>
			<point x="259" y="656"/>
			<point x="284.086" y="647.178"/>
			<point x="307" y="636" type="curve" smooth="yes"/>
			<point x="325.087" y="627.177"/>
			<point x="343" y="620"/>
			<point x="355" y="620" type="curve" smooth="yes"/>
			<point x="372" y="620"/>
			<point x="385" y="634"/>
			<point x="389" y="661" type="curve"/>
			<point x="444" y="661" type="line"/>
			<point x="439" y="606"/>
			<point x="406" y="563"/>
			<point x="361" y="563" type="curve" smooth="yes"/>
			<point x="338" y="563"/>
			<point x="312" y="573"/>
			<point x="291.089" y="583.455" type="curve" smooth="yes"/>
			<point x="272" y="593"/>
			<point x="255" y="599"/>
			<point x="243" y="599" type="curve" smooth="yes"/>
			<point x="226" y="599"/>
			<point x="211" y="585"/>
			<point x="208" y="558" type="curve"/>
		</contour>
		<contour>
			<point x="452" y="700" type="line"/>
			<point x="362" y="700" type="line"/>
			<point x="362" y="800" type="line"/>
			<point x="452" y="800" type="line"/>
		</contour>
		<contour>
			<point x="252" y="700" type="line"/>
			<point x="162" y="700" type="line"/>
			<point x="162" y="800" type="line"/>
			<point x="252" y="800" type="line"/>
		</contour>
	</outline>
	<anchor name="bottom" x="310" y="-87"/>
	<anchor name="top" x="304" y="580"/>
	<anchor name="top.mkmk" x="307" y="755"/>
</glyph>
<glyph name="uni1EA7" format="2">
	<unicode hex="1EA7"/>
	<advance width="535"/>
	<outline>
		<contour>
			<point x="318" y="770" type="line"/>
			<point x="257" y="770" type="line"/>
			<point x="117" y="941" type="line"/>
			<point x="218" y="941" type="line"/>
		</contour>
		<contour>
			<point x="50" y="140" type="curve" smooth="yes"/>
			<point x="50" y="251"/>
			<point x="151" y="308"/>
			<point x="321" y="308" type="curve" smooth="yes"/>
			<point x="347.52" y="308"/>
			<point x="362.48" y="307"/>
			<point x="389" y="305" type="curve"/>
			<point x="389" y="349" type="line" smooth="yes"/>
			<point x="389" y="410"/>
			<point x="350" y="444"/>
			<point x="280" y="444" type="curve" smooth="yes"/>
			<point x="214" y="444"/>
			<point x="172" y="414"/>
			<point x="172" y="365" type="curve"/>
			<point x="78" y="365" type="line"/>
			<point x="78" y="462"/>
			<point x="148" y="513"/>
			<point x="280" y="513" type="curve" smooth="yes"/>
			<point x="445" y="513"/>
			<point x="485.436" y="451.988"/>
			<point x="483" y="331" type="curve" smooth="yes"/>
			<point x="480" y="182" type="line" smooth="yes"/>
			<point x="477.967" y="81.0205"/>
			<point x="487" y="24"/>
			<point x="496" y="0" type="curve"/>
			<point x="405" y="0" type="line"/>
			<point x="398" y="23"/>
			<point x="394" y="62"/>
			<point x="394" y="72" type="curve"/>
			<point x="339" y="6"/>
			<point x="302" y="-14"/>
			<point x="237" y="-14" type="curve" smooth="yes"/>
			<point x="123" y="-14"/>
			<point x="50" y="46"/>
		</contour>
		<contour>
			<point x="144" y="143" type="curve" smooth="yes"/>
			<point x="144" y="93"/>
			<point x="187" y="55"/>
			<point x="244" y="55" type="curve" smooth="yes"/>
			<point x="341" y="55"/>
			<point x="389" y="105"/>
			<point x="389" y="204" type="curve" smooth="yes"/>
			<point x="389" y="236" type="line"/>
			<point x="369.11" y="238"/>
			<point x="357.89" y="239"/>
			<point x="338" y="239" type="curve" smooth="yes"/>
			<point x="219" y="239"/>
			<point x="144" y="208"/>
		</contour>
		<contour>
			<point x="429" y="580" type="line"/>
			<point x="369" y="580" type="line"/>
			<point x="284" y="690" type="line"/>
			<point x="199" y="580" type="line"/>
			<point x="139" y="580" type="line"/>
			<point x="229" y="750" type="line"/>
			<point x="339" y="750" type="line"/>
		</contour>
	</outline>
	<anchor name="_top" x="284" y="770"/>
	<anchor name="_top.mkmk" x="284" y="770"/>
	<anchor name="ogonekLC" x="422" y="10"/>
	<anchor name="top" x="280" y="580"/>
	<anchor name="top.mkmk" x="284" y="770"/>
</glyph>
<glyph name="uni1EAA" format="2">
	<unicode hex="1EAA"/>
	<advance width="750"/>
	<outline>
		<contour>
			<point x="224" y="995" type="line"/>
			<point x="230" y="1057"/>
			<point x="270" y="1093"/>
			<point x="309" y="1093" type="curve" smooth="yes"/>
			<point x="330" y="1093"/>
			<point x="355.086" y="1084.18"/>
			<point x="378" y="1073" type="curve" smooth="yes"/>
			<point x="396.087" y="1064.18"/>
			<point x="414" y="1057"/>
			<point x="426" y="1057" type="curve" smooth="yes"/>
			<point x="443" y="1057"/>
			<point x="456" y="1071"/>
			<point x="460" y="1098" type="curve"/>
			<point x="515" y="1098" type="line"/>
			<point x="510" y="1043"/>
			<point x="477" y="1000"/>
			<point x="432" y="1000" type="curve" smooth="yes"/>
			<point x="409" y="1000"/>
			<point x="383" y="1010"/>
			<point x="362.089" y="1020.46" type="curve" smooth="yes"/>
			<point x="343" y="1030"/>
			<point x="326" y="1036"/>
			<point x="314" y="1036" type="curve" smooth="yes"/>
			<point x="297" y="1036"/>
			<point x="282" y="1022"/>
			<point x="279" y="995" type="curve"/>
		</contour>
		<contour>
			<point x="236" y="278" type="line"/>
			<point x="509" y="278" type="line"/>
			<point x="371" y="611" type="line"/>
		</contour>
		<contour>
			<point x="15" y="0" type="line"/>
			<point x="318" y="722" type="line"/>
			<point x="428" y="722" type="line"/>
			<point x="735" y="0" type="line"/>
			<point x="629" y="0" type="line"/>
			<point x="551" y="193" type="line"/>
			<point x="197" y="193" type="line"/>
			<point x="118" y="0" type="line"/>
		</contour>
		<contour>
			<point x="524" y="797" type="line"/>
			<point x="464" y="797" type="line"/>
			<point x="379" y="907" type="line"/>
			<point x="294" y="797" type="line"/>
			<point x="234" y="797" type="line"/>
			<point x="324" y="967" type="line"/>
			<point x="434" y="967" type="line"/>
		</contour>
	</outline>
	<anchor name="_top" x="375" y="797"/>
	<anchor name="ogonekUC" x="662" y="10"/>
	<anchor name="top" x="375" y="797"/>
</glyph>
<glyph name="uni1EB1" format="2">
	<unicode hex="1EB1"/>
	<advance width="535"/>
	<outline>
		<component base="abreve"/>
		<contour>
			<point x="314" y="700" type="line"/>
			<point x="253" y="700" type="line"/>
			<point x="113" y="871" type="line"/>
			<point x="214" y="871" type="line"/>
		</contour>
	</outline>
	<anchor name="_mkmktop" x="280" y="580"/>
	<anchor name="_top" x="280" y="580"/>
	<anchor name="ogonekLC" x="422" y="10"/>
	<anchor name="top" x="280" y="580"/>
</glyph>
<glyph name="uni1EB4" format="2">
	<unicode hex="1EB4"/>
	<advance width="750"/>
	<outline>
		<contour>
			<point x="15" y="0" type="line"/>
			<point x="318" y="722" type="line"/>
			<point x="428" y="722" type="line"/>
			<point x="735" y="0" type="line"/>
			<point x="629" y="0" type="line"/>
			<point x="551" y="193" type="line"/>
			<point x="197" y="193" type="line"/>
			<point x="118" y="0" type="line"/>
		</contour>
		<contour>
			<point x="236" y="278" type="line"/>
			<point x="509" y="278" type="line"/>
			<point x="371" y="611" type="line"/>
		</contour>
		<contour>
			<point x="518" y="914" type="line"/>
			<point x="507" y="848"/>
			<point x="446" y="797"/>
			<point x="377" y="797" type="curve" smooth="yes"/>
			<point x="306" y="797"/>
			<point x="244" y="848"/>
			<point x="236" y="914" type="curve"/>
			<point x="288" y="914" type="line"/>
			<point x="294" y="883"/>
			<point x="342" y="861"/>
			<point x="378" y="861" type="curve" smooth="yes"/>
			<point x="414" y="861"/>
			<point x="462" y="883"/>
			<point x="468" y="914" type="curve"/>
		</contour>
		<contour>
			<point x="224" y="945" type="line"/>
			<point x="230" y="1007"/>
			<point x="270" y="1043"/>
			<point x="309" y="1043" type="curve" smooth="yes"/>
			<point x="330" y="1043"/>
			<point x="355" y="1034"/>
			<point x="378" y="1023" type="curve" smooth="yes"/>
			<point x="396" y="1014"/>
			<point x="414" y="1007"/>
			<point x="426" y="1007" type="curve" smooth="yes"/>
			<point x="443" y="1007"/>
			<point x="456" y="1021"/>
			<point x="460" y="1048" type="curve"/>
			<point x="515" y="1048" type="line"/>
			<point x="510" y="993"/>
			<point x="477" y="950"/>
			<point x="432" y="950" type="curve" smooth="yes"/>
			<point x="409" y="950"/>
			<point x="383" y="960"/>
			<point x="362.089" y="970.455" type="curve" smooth="yes"/>
			<point x="343" y="980"/>
			<point x="326" y="986"/>
			<point x="314" y="986" type="curve" smooth="yes"/>
			<point x="297" y="986"/>
			<point x="282" y="972"/>
			<point x="279" y="945" type="curve"/>
		</contour>
	</outline>
	<anchor name="_top" x="375" y="927"/>
	<anchor name="ogonekUC" x="662" y="10"/>
	<anchor name="top" x="375" y="797"/>
</glyph>
<glyph name="uni1EC0" format="2">
	<unicode hex="1EC0"/>
	<advance width="577"/>
	<outline>
		<component base="Ecircumflex"/>
		<contour>
			<point x="319" y="1007" type="line"/>
			<point x="258" y="1007" type="line"/>
			<point x="118" y="1178" type="line"/>
			<point x="219" y="1178" type="line"/>
		</contour>
	</outline>
	<anchor name="_mkmktop" x="285" y="797"/>
	<anchor name="_top" x="285" y="797"/>
	<anchor name="top" x="285" y="797"/>
</glyph>
<glyph name="uni1EC1" format="2">
	<unicode hex="1EC1"/>
	<advance width="537"/>
	<outline>
		<component base="ecircumflex"/>
		<contour>
			<point x="298" y="790" type="line"/>
			<point x="237" y="790" type="line"/>
			<point x="97" y="961" type="line"/>
			<point x="198" y="961" type="line"/>
		</contour>
	</outline>
	<anchor name="_mkmktop" x="264" y="580"/>
	<anchor name="_top" x="264" y="580"/>
	<anchor name="top" x="264" y="580"/>
</glyph>
<glyph name="uni1EC4" format="2">
	<unicode hex="1EC4"/>
	<advance width="577"/>
	<outline>
		<contour>
			<point x="134" y="995" type="line"/>
			<point x="140" y="1057"/>
			<point x="180" y="1093"/>
			<point x="219" y="1093" type="curve" smooth="yes"/>
			<point x="240" y="1093"/>
			<point x="265.086" y="1084.18"/>
			<point x="288" y="1073" type="curve" smooth="yes"/>
			<point x="306.087" y="1064.18"/>
			<point x="324" y="1057"/>
			<point x="336" y="1057" type="curve" smooth="yes"/>
			<point x="353" y="1057"/>
			<point x="366" y="1071"/>
			<point x="370" y="1098" type="curve"/>
			<point x="425" y="1098" type="line"/>
			<point x="420" y="1043"/>
			<point x="387" y="1000"/>
			<point x="342" y="1000" type="curve" smooth="yes"/>
			<point x="319" y="1000"/>
			<point x="293" y="1010"/>
			<point x="272.089" y="1020.46" type="curve" smooth="yes"/>
			<point x="253" y="1030"/>
			<point x="236" y="1036"/>
			<point x="224" y="1036" type="curve" smooth="yes"/>
			<point x="207" y="1036"/>
			<point x="192" y="1022"/>
			<point x="189" y="995" type="curve"/>
		</contour>
		<contour>
			<point x="60" y="0" type="line"/>
			<point x="60" y="722" type="line"/>
			<point x="507" y="722" type="line"/>
			<point x="507" y="635" type="line"/>
			<point x="160" y="635" type="line"/>
			<point x="160" y="413" type="line"/>
			<point x="497" y="413" type="line"/>
			<point x="497" y="326" type="line"/>
			<point x="160" y="326" type="line"/>
			<point x="160" y="87" type="line"/>
			<point x="517" y="87" type="line"/>
			<point x="517" y="0" type="line"/>
		</contour>
		<contour>
			<point x="434" y="797" type="line"/>
			<point x="374" y="797" type="line"/>
			<point x="289" y="907" type="line"/>
			<point x="204" y="797" type="line"/>
			<point x="144" y="797" type="line"/>
			<point x="234" y="967" type="line"/>
			<point x="344" y="967" type="line"/>
		</contour>
	</outline>
	<anchor name="_top" x="285" y="797"/>
	<anchor name="top" x="285" y="797"/>
</glyph>
<glyph name="uni1EC5" format="2">
	<unicode hex="1EC5"/>
	<advance width="537"/>
	<outline>
		<contour>
			<point x="113" y="788" type="line"/>
			<point x="119" y="850"/>
			<point x="159" y="886"/>
			<point x="198" y="886" type="curve" smooth="yes"/>
			<point x="219" y="886"/>
			<point x="244.086" y="877.178"/>
			<point x="267" y="866" type="curve" smooth="yes"/>
			<point x="285.087" y="857.177"/>
			<point x="303" y="850"/>
			<point x="315" y="850" type="curve" smooth="yes"/>
			<point x="332" y="850"/>
			<point x="345" y="864"/>
			<point x="349" y="891" type="curve"/>
			<point x="404" y="891" type="line"/>
			<point x="399" y="836"/>
			<point x="366" y="793"/>
			<point x="321" y="793" type="curve" smooth="yes"/>
			<point x="298" y="793"/>
			<point x="272" y="803"/>
			<point x="251.089" y="813.455" type="curve" smooth="yes"/>
			<point x="232" y="823"/>
			<point x="215" y="829"/>
			<point x="203" y="829" type="curve" smooth="yes"/>
			<point x="186" y="829"/>
			<point x="171" y="815"/>
			<point x="168" y="788" type="curve"/>
		</contour>
		<contour>
			<point x="40" y="250" type="curve" smooth="yes"/>
			<point x="40" y="405"/>
			<point x="114" y="512"/>
			<point x="271" y="512" type="curve" smooth="yes"/>
			<point x="414" y="512"/>
			<point x="494" y="423"/>
			<point x="494" y="282" type="curve" smooth="yes"/>
			<point x="494" y="236" type="line"/>
			<point x="134" y="236" type="line"/>
			<point x="134" y="134"/>
			<point x="184" y="51"/>
			<point x="279" y="51" type="curve" smooth="yes"/>
			<point x="350" y="51"/>
			<point x="393" y="98"/>
			<point x="399" y="160" type="curve"/>
			<point x="495" y="160" type="line"/>
			<point x="475" y="55"/>
			<point x="398" y="-14"/>
			<point x="271" y="-14" type="curve" smooth="yes"/>
			<point x="108" y="-14"/>
			<point x="40" y="102"/>
		</contour>
		<contour>
			<point x="134" y="301" type="curve"/>
			<point x="400" y="301" type="line"/>
			<point x="400" y="361"/>
			<point x="375" y="447"/>
			<point x="271" y="447" type="curve" smooth="yes"/>
			<point x="193" y="447"/>
			<point x="134" y="399"/>
		</contour>
		<contour>
			<point x="413" y="580" type="line"/>
			<point x="353" y="580" type="line"/>
			<point x="268" y="690" type="line"/>
			<point x="183" y="580" type="line"/>
			<point x="123" y="580" type="line"/>
			<point x="213" y="750" type="line"/>
			<point x="323" y="750" type="line"/>
		</contour>
	</outline>
	<anchor name="_top" x="264" y="580"/>
	<anchor name="top" x="264" y="580"/>
</glyph>
<glyph name="uni1ED2" format="2">
	<unicode hex="1ED2"/>
	<advance width="754"/>
	<outline>
		<component base="Ocircumflex"/>
		<contour>
			<point x="399" y="1007" type="line"/>
			<point x="338" y="1007" type="line"/>
			<point x="198" y="1178" type="line"/>
			<point x="299" y="1178" type="line"/>
		</contour>
	</outline>
	<anchor name="_mkmktop" x="365" y="797"/>
	<anchor name="_top" x="365" y="797"/>
	<anchor name="top" x="365" y="797"/>
</glyph>
<glyph name="uni1ED3" format="2">
	<unicode hex="1ED3"/>
	<advance width="580"/>
	<outline>
		<component base="ocircumflex"/>
		<contour>
			<point x="318" y="800" type="line"/>
			<point x="257" y="800" type="line"/>
			<point x="117" y="971" type="line"/>
			<point x="218" y="971" type="line"/>
		</contour>
	</outline>
	<anchor name="_mkmktop" x="284" y="580"/>
	<anchor name="_top" x="284" y="580"/>
	<anchor name="top" x="284" y="580"/>
</glyph>
<glyph name="uni1FC1" format="2">
	<unicode hex="1FC1"/>
	<advance width="289"/>
	<outline>
		<component base="uni1FC0" xOffset="145" yOffset="162"/>
		<contour>
			<point x="92" y="630" type="line"/>
			<point x="2" y="630" type="line"/>
			<point x="2" y="722" type="line"/>
			<point x="92" y="722" type="line"/>
		</contour>
		<contour>
			<point x="292" y="630" type="line"/>
			<point x="202" y="630" type="line"/>
			<point x="202" y="722" type="line"/>
			<point x="292" y="722" type="line"/>
		</contour>
	</outline>
</glyph>
<glyph name="uni1FED" format="2">
	<unicode hex="1FED"/>
	<advance width="289"/>
	<outline>
		<contour>
			<point x="89" y="630" type="line"/>
			<point x="-1" y="630" type="line"/>
			<point x="-1" y="722" type="line"/>
			<point x="89" y="722" type="line"/>
		</contour>
		<contour>
			<point x="289" y="630" type="line"/>
			<point x="199" y="630" type="line"/>
			<point x="199" y="722" type="line"/>
			<point x="289" y="722" type="line"/>
		</contour>
		<contour>
			<point x="175" y="782" type="line"/>
			<point x="114" y="782" type="line"/>
			<point x="-26" y="953" type="line"/>
			<point x="75" y="953" type="line"/>
		</contour>
	</outline>
</glyph>
<glyph name="uni1FFD" format="2">
	<unicode hex="1FFD"/>
	<advance width="229"/>
	<outline>
		<contour>
			<point x="255" y="771" type="line"/>
			<point x="115" y="600" type="line"/>
			<point x="54" y="600" type="line"/>
			<point x="154" y="771" type="line"/>
		</contour>
	</outline>
</glyph>
<glyph name="quoteright" format="2">
	<unicode hex="2019"/>
	<advance width="260"/>
	<outline>
		<contour>
			<point x="220" y="722" type="line"/>
			<point x="110" y="472" type="line"/>
			<point x="40" y="472" type="line"/>
			<point x="100" y="722" type="line"/>
		</contour>
	</outline>
</glyph>
<glyph name="quotedblleft" format="2">
	<unicode hex="201C"/>
	<advance width="435"/>
	<outline>
		<contour>
			<point x="217" y="722" type="line"/>
			<point x="157" y="472" type="line"/>
			<point x="37" y="472" type="line"/>
			<point x="147" y="722" type="line"/>
		</contour>
		<contour>
			<point x="400" y="722" type="line"/>
			<point x="340" y="472" type="line"/>
			<point x="220" y="472" type="line"/>
			<point x="330" y="722" type="line"/>
		</contour>
	</outline>
</glyph>
<glyph name="quotedblright" format="2">
	<unicode hex="201D"/>
	<advance width="435"/>
	<outline>
		<contour>
			<point x="217" y="722" type="line"/>
			<point x="107" y="472" type="line"/>
			<point x="37" y="472" type="line"/>
			<point x="97" y="722" type="line"/>
		</contour>
		<contour>
			<point x="400" y="722" type="line"/>
			<point x="290" y="472" type="line"/>
			<point x="220" y="472" type="line"/>
			<point x="280" y="722" type="line"/>
		</contour>
	</outline>
</glyph>
<glyph name="uni2023" format="2">
	<unicode hex="2023"/>
	<advance width="358"/>
	<outline>
		<contour>
			<point x="318" y="336" type="line"/>
			<point x="40" y="180" type="line"/>
			<point x="40" y="492" type="line"/>
		</contour>
	</outline>
</glyph>
<glyph name="ellipsis" format="2">
	<unicode hex="2026"/>
	<advance width="806"/>
	<outline>
		<contour>
			<point x="158" y="0" type="line"/>
			<point x="50" y="0" type="line"/>
			<point x="50" y="123" type="line"/>
			<point x="158" y="123" type="line"/>
		</contour>
		<contour>
			<point x="454" y="0" type="line"/>
			<point x="346" y="0" type="line"/>
			<point x="346" y="123" type="line"/>
			<point x="454" y="123" type="line"/>
		</contour>
		<contour>
			<point x="750" y="0" type="line"/>
			<point x="642" y="0" type="line"/>
			<point x="642" y="123" type="line"/>
			<point x="750" y="123" type="line"/>
		</contour>
	</outline>
</glyph>
<glyph name="perthousand" format="2">
	<unicode hex="2030"/>
	<advance width="1327"/>
	<outline>
		<component base="percent"/>
		<contour>
			<point x="921" y="188.984" type="curve" smooth="yes"/>
			<point x="921" y="302.144"/>
			<point x="988" y="380"/>
			<point x="1100" y="380" type="curve" smooth="yes"/>
			<point x="1204" y="380"/>
			<point x="1279" y="312"/>
			<point x="1279" y="188.984" type="curve" smooth="yes"/>
			<point x="1279" y="66.968"/>
			<point x="1204" y="-4"/>
			<point x="1100" y="-4" type="curve" smooth="yes"/>
			<point x="988" y="-4"/>
			<point x="921" y="75.824"/>
		</contour>
		<contour>
			<point x="1006" y="188" type="curve" smooth="yes"/>
			<point x="1006" y="115.184"/>
			<point x="1025" y="65"/>
			<point x="1100" y="65" type="curve" smooth="yes"/>
			<point x="1175" y="65"/>
			<point x="1194" y="115.184"/>
			<point x="1194" y="188" type="curve" smooth="yes"/>
			<point x="1194" y="260.816"/>
			<point x="1175" y="311"/>
			<point x="1100" y="311" type="curve" smooth="yes"/>
			<point x="1025" y="311"/>
			<point x="1006" y="260.816"/>
		</contour>
	</outline>
</glyph>
<glyph name="Euro" format="2">
	<unicode hex="20AC"/>
	<advance width="572"/>
	<outline>
		<contour>
			<point x="513" y="666" type="curve"/>
			<point x="513" y="566" type="line"/>
			<point x="486" y="592"/>
			<point x="438" y="616"/>
			<point x="366" y="616" type="curve" smooth="yes"/>
			<point x="265" y="616"/>
			<point x="211" y="553"/>
			<point x="198" y="459" type="curve"/>
			<point x="475" y="459" type="line"/>
			<point x="449" y="382" type="line"/>
			<point x="188" y="382" type="line"/>
			<point x="187" y="373"/>
			<point x="186" y="362"/>
			<point x="186" y="350" type="curve" smooth="yes"/>
			<point x="186" y="337"/>
			<point x="187" y="323"/>
			<point x="188" y="315" type="curve"/>
			<point x="425" y="315" type="line"/>
			<point x="398" y="237" type="line"/>
			<point x="198" y="237" type="line"/>
			<point x="213" y="134"/>
			<point x="271" y="77"/>
			<point x="367" y="77" type="curve" smooth="yes"/>
			<point x="437" y="77"/>
			<point x="484" y="100"/>
			<point x="513" y="127" type="curve"/>
			<point x="513" y="26" type="line"/>
			<point x="491" y="8"/>
			<point x="436" y="-14"/>
			<point x="354" y="-14" type="curve" smooth="yes"/>
			<point x="216" y="-14"/>
			<point x="125" y="65"/>
			<point x="99" y="237" type="curve"/>
			<point x="22" y="237" type="line"/>
			<point x="49" y="315" type="line"/>
			<point x="91" y="315" type="line"/>
			<point x="90" y="323"/>
			<point x="90" y="337"/>
			<point x="90" y="350" type="curve" smooth="yes"/>
			<point x="90" y="362"/>
			<point x="90" y="373"/>
			<point x="91" y="382" type="curve"/>
			<point x="22" y="382" type="line"/>
			<point x="49" y="459" type="line"/>
			<point x="98" y="459" type="line"/>
			<point x="121" y="605"/>
			<point x="198" y="707"/>
			<point x="354" y="707" type="curve" smooth="yes"/>
			<point x="429" y="707"/>
			<point x="488" y="685"/>
		</contour>
	</outline>
</glyph>
<glyph name="trademark" format="2">
	<unicode hex="2122"/>
	<advance width="659"/>
	<outline>
		<contour>
			<point x="264" y="675" type="line"/>
			<point x="182" y="675" type="line"/>
			<point x="182" y="439" type="line"/>
			<point x="132" y="439" type="line"/>
			<point x="132" y="675" type="line"/>
			<point x="50" y="675" type="line"/>
			<point x="50" y="712" type="line"/>
			<point x="264" y="712" type="line"/>
		</contour>
		<contour>
			<point x="610" y="439" type="line"/>
			<point x="560" y="439" type="line"/>
			<point x="560" y="661" type="line"/>
			<point x="482" y="439" type="line"/>
			<point x="445" y="439" type="line"/>
			<point x="367" y="659" type="line"/>
			<point x="367" y="439" type="line"/>
			<point x="317" y="439" type="line"/>
			<point x="317" y="713" type="line"/>
			<point x="392" y="713" type="line"/>
			<point x="463" y="507" type="line"/>
			<point x="533" y="713" type="line"/>
			<point x="610" y="713" type="line"/>
		</contour>
	</outline>
</glyph>
<glyph name="integral" format="2">
	<unicode hex="222B"/>
	<advance width="470"/>
	<outline>
		<contour>
			<point x="29" y="-148" type="curve" smooth="yes"/>
			<point x="29" y="-118"/>
			<point x="49" y="-94"/>
			<point x="77.691" y="-94" type="curve" smooth="yes"/>
			<point x="100" y="-94"/>
			<point x="120.846" y="-108.978"/>
			<point x="132.808" y="-121.145" type="curve" smooth="yes"/>
			<point x="139.811" y="-128.269"/>
			<point x="145.293" y="-132"/>
			<point x="149.452" y="-132" type="curve" smooth="yes"/>
			<point x="170.347" y="-132"/>
			<point x="186.298" y="-12.5847"/>
			<point x="189" y="45" type="curve" smooth="yes"/>
			<point x="211" y="514" type="line" smooth="yes"/>
			<point x="216.568" y="632.697"/>
			<point x="242" y="744"/>
			<point x="372" y="744" type="curve" smooth="yes"/>
			<point x="410" y="744"/>
			<point x="440" y="726"/>
			<point x="440" y="690" type="curve" smooth="yes"/>
			<point x="440" y="661"/>
			<point x="420" y="638"/>
			<point x="396.181" y="638" type="curve" smooth="yes"/>
			<point x="380.993" y="638"/>
			<point x="368.429" y="647.26"/>
			<point x="358.844" y="658.346" type="curve" smooth="yes"/>
			<point x="351.036" y="667.377"/>
			<point x="339.715" y="676"/>
			<point x="328.445" y="676" type="curve" smooth="yes"/>
			<point x="300.118" y="676"/>
			<point x="289.747" y="626.246"/>
			<point x="285" y="506" type="curve" smooth="yes"/>
			<point x="267" y="50" type="line" smooth="yes"/>
			<point x="260.544" y="-113.561"/>
			<point x="210" y="-199"/>
			<point x="102.813" y="-199" type="curve" smooth="yes"/>
			<point x="55" y="-199"/>
			<point x="29" y="-182"/>
		</contour>
	</outline>
</glyph>
<glyph name="approxequal" format="2">
	<unicode hex="2248"/>
	<advance width="1000"/>
	<outline>
		<contour>
			<point x="798" y="220.236" type="line"/>
			<point x="752" y="178.806"/>
			<point x="693" y="153"/>
			<point x="625" y="153" type="curve" smooth="yes"/>
			<point x="598.598" y="153"/>
			<point x="545.899" y="167.06"/>
			<point x="492.034" y="183.454" type="curve" smooth="yes"/>
			<point x="436.014" y="200.504"/>
			<point x="378.153" y="216"/>
			<point x="348" y="216" type="curve" smooth="yes"/>
			<point x="288" y="215.968"/>
			<point x="249" y="194.29"/>
			<point x="196" y="140" type="curve"/>
			<point x="196" y="210.806" type="line"/>
			<point x="241" y="256.521"/>
			<point x="297" y="280"/>
			<point x="364" y="280" type="curve"/>
			<point x="387.547" y="278.995"/>
			<point x="438.384" y="265.786"/>
			<point x="490.744" y="250.4" type="curve" smooth="yes"/>
			<point x="549.831" y="233.037"/>
			<point x="611.43" y="217"/>
			<point x="640" y="217" type="curve" smooth="yes"/>
			<point x="703" y="217"/>
			<point x="741" y="239.446"/>
			<point x="798" y="291.375" type="curve"/>
		</contour>
		<contour>
			<point x="800" y="391" type="line"/>
			<point x="754" y="347.806"/>
			<point x="695" y="322"/>
			<point x="627" y="322" type="curve" smooth="yes"/>
			<point x="600.598" y="322"/>
			<point x="547.899" y="336.539"/>
			<point x="494.034" y="353.421" type="curve" smooth="yes"/>
			<point x="438.021" y="370.977"/>
			<point x="380.153" y="387"/>
			<point x="350" y="387" type="curve"/>
			<point x="290" y="384.968"/>
			<point x="251" y="363.29"/>
			<point x="198" y="310.625" type="curve"/>
			<point x="198" y="379.806" type="line"/>
			<point x="243" y="425"/>
			<point x="298.985" y="445.702"/>
			<point x="356.053" y="445.64" type="curve" smooth="yes"/>
			<point x="404.965" y="445.587"/>
			<point x="455.507" y="431.281"/>
			<point x="505.383" y="415.19" type="curve" smooth="yes"/>
			<point x="553.68" y="399.608"/>
			<point x="601.899" y="386"/>
			<point x="647.089" y="386" type="curve" smooth="yes"/>
			<point x="705" y="386"/>
			<point x="743" y="409"/>
			<point x="800" y="460" type="curve"/>
		</contour>
	</outline>
</glyph>
<glyph name="fi" format="2">
	<unicode hex="FB01"/>
	<advance width="534"/>
	<outline>
		<contour>
			<point x="110" y="0" type="line"/>
			<point x="110" y="435" type="line"/>
			<point x="10" y="435" type="line"/>
			<point x="10" y="500" type="line"/>
			<point x="110" y="500" type="line"/>
			<point x="110" y="575" type="line" smooth="yes"/>
			<point x="110" y="688"/>
			<point x="153" y="732"/>
			<point x="260" y="732" type="curve" smooth="yes"/>
			<point x="284" y="732"/>
			<point x="308" y="730"/>
			<point x="331" y="722" type="curve"/>
			<point x="331" y="648" type="line"/>
			<point x="312" y="659"/>
			<point x="295" y="660"/>
			<point x="273" y="660" type="curve" smooth="yes"/>
			<point x="219" y="660"/>
			<point x="200" y="632"/>
			<point x="200" y="573" type="curve" smooth="yes"/>
			<point x="200" y="500" type="line"/>
			<point x="490" y="500" type="line"/>
			<point x="490" y="0" type="line"/>
			<point x="400" y="0" type="line"/>
			<point x="400" y="435" type="line"/>
			<point x="200" y="435" type="line"/>
			<point x="200" y="0" type="line"/>
		</contour>
		<contour>
			<point x="396" y="630" type="line"/>
			<point x="396" y="722" type="line"/>
			<point x="494" y="722" type="line"/>
			<point x="494" y="630" type="line"/>
		</contour>
	</outline>
</glyph>
<glyph name="uni0414.loclBGR" format="2">
	<advance width="711"/>
	<outline>
		<contour>
			<point x="189" y="89" type="line"/>
			<point x="527" y="89" type="line"/>
			<point x="358" y="592" type="line"/>
		</contour>
		<contour>
			<point x="691" y="-153" type="line"/>
			<point x="591" y="-153" type="line"/>
			<point x="591" y="0" type="line"/>
			<point x="121" y="0" type="line"/>
			<point x="121" y="-153" type="line"/>
			<point x="20" y="-153" type="line"/>
			<point x="20" y="89" type="line"/>
			<point x="77" y="89" type="line"/>
			<point x="302" y="722" type="line"/>
			<point x="412" y="722" type="line"/>
			<point x="637" y="89" type="line"/>
			<point x="691" y="89" type="line"/>
		</contour>
	</outline>
</glyph>
<glyph name="uni0424.loclBGR" format="2">
	<advance width="735"/>
	<outline>
		<contour>
			<point x="432" y="771" type="line"/>
			<point x="332" y="771" type="line"/>
			<point x="332" y="-51" type="line"/>
			<point x="432" y="-51" type="line"/>
		</contour>
		<contour>
			<point x="411.99" y="16" type="line"/>
			<point x="595.556" y="25.8772"/>
			<point x="735" y="173.951"/>
			<point x="735" y="359" type="curve" smooth="yes"/>
			<point x="735" y="543.819"/>
			<point x="595.715" y="691.087"/>
			<point x="411.539" y="701" type="curve"/>
			<point x="411.555" y="615" type="line"/>
			<point x="548.65" y="605.101"/>
			<point x="638" y="504.09"/>
			<point x="638" y="359" type="curve" smooth="yes"/>
			<point x="638" y="214.095"/>
			<point x="548.608" y="112.887"/>
			<point x="411.888" y="103" type="curve"/>
		</contour>
		<contour>
			<point x="351" y="103" type="line"/>
			<point x="218.932" y="112.481"/>
			<point x="137" y="210.493"/>
			<point x="137" y="359" type="curve" smooth="yes"/>
			<point x="137" y="506.952"/>
			<point x="219.397" y="605.517"/>
			<point x="351.006" y="615" type="curve"/>
			<point x="351.002" y="702" type="line"/>
			<point x="172.147" y="692.414"/>
			<point x="40" y="546.671"/>
			<point x="40" y="359" type="curve" smooth="yes"/>
			<point x="40" y="171.184"/>
			<point x="172.085" y="25.5901"/>
			<point x="351.174" y="16" type="curve"/>
		</contour>
	</outline>
	<guideline x="330" y="0" angle="90"/>
	<guideline x="425" y="0" angle="90"/>
	<guideline x="351" y="0" angle="90"/>
	<guideline x="412" y="0" angle="90"/>
</glyph>
<glyph name="uni0436.loclBGR" format="2">
	<advance width="768"/>
	<outline>
		<contour>
			<point x="339" y="722" type="line"/>
			<point x="429" y="722" type="line"/>
			<point x="429" y="292" type="line"/>
			<point x="619" y="500" type="line"/>
			<point x="732" y="500" type="line"/>
			<point x="532" y="282" type="line"/>
			<point x="748" y="0" type="line"/>
			<point x="629" y="0" type="line"/>
			<point x="429" y="267" type="line"/>
			<point x="429" y="0" type="line"/>
			<point x="339" y="0" type="line"/>
			<point x="339" y="267" type="line"/>
			<point x="139" y="0" type="line"/>
			<point x="20" y="0" type="line"/>
			<point x="236" y="282" type="line"/>
			<point x="36" y="500" type="line"/>
			<point x="149" y="500" type="line"/>
			<point x="339" y="292" type="line"/>
		</contour>
	</outline>
</glyph>
<glyph name="uni0437.loclBGR" format="2">
	<advance width="515"/>
	<outline>
		<contour>
			<point x="475" y="11" type="curve" smooth="yes"/>
			<point x="475" y="-118"/>
			<point x="396" y="-200"/>
			<point x="245" y="-200" type="curve" smooth="yes"/>
			<point x="144" y="-200"/>
			<point x="51" y="-163"/>
			<point x="40" y="-50" type="curve"/>
			<point x="135" y="-50" type="line"/>
			<point x="148" y="-108"/>
			<point x="187" y="-135"/>
			<point x="244" y="-135" type="curve" smooth="yes"/>
			<point x="331" y="-135"/>
			<point x="381" y="-71"/>
			<point x="381" y="9" type="curve" smooth="yes"/>
			<point x="381" y="92"/>
			<point x="326" y="146"/>
			<point x="237" y="146" type="curve" smooth="yes"/>
			<point x="197" y="146" type="line"/>
			<point x="197" y="211" type="line"/>
			<point x="229" y="211" type="line" smooth="yes"/>
			<point x="319" y="211"/>
			<point x="371" y="255"/>
			<point x="371" y="335" type="curve" smooth="yes"/>
			<point x="371" y="404"/>
			<point x="333" y="447"/>
			<point x="254" y="447" type="curve" smooth="yes"/>
			<point x="197" y="447"/>
			<point x="162" y="425"/>
			<point x="146" y="367" type="curve"/>
			<point x="51" y="367" type="line"/>
			<point x="57" y="447"/>
			<point x="129" y="512"/>
			<point x="261" y="512" type="curve" smooth="yes"/>
			<point x="399" y="512"/>
			<point x="465" y="440"/>
			<point x="465" y="335" type="curve" smooth="yes"/>
			<point x="465" y="253"/>
			<point x="423" y="215"/>
			<point x="358" y="188" type="curve"/>
			<point x="358" y="186" type="line"/>
			<point x="429" y="169"/>
			<point x="475" y="110"/>
		</contour>
	</outline>
</glyph>
<glyph name="uni0439.loclBGR" format="2">
	<advance width="594"/>
	<outline>
		<component base="u"/>
		<contour>
			<point x="148" y="717" type="curve"/>
			<point x="200" y="717" type="line"/>
			<point x="207" y="687"/>
			<point x="251" y="663"/>
			<point x="288" y="663" type="curve" smooth="yes"/>
			<point x="326" y="663"/>
			<point x="370" y="686"/>
			<point x="377" y="717" type="curve"/>
			<point x="429" y="717" type="line"/>
			<point x="420" y="654"/>
			<point x="362" y="598"/>
			<point x="288" y="598" type="curve" smooth="yes"/>
			<point x="215" y="598"/>
			<point x="156" y="653"/>
		</contour>
	</outline>
</glyph>
<glyph name="uni0444.loclBGR" format="2">
	<advance width="772"/>
	<outline>
		<contour>
			<point x="431" y="722" type="line"/>
			<point x="341" y="722" type="line"/>
			<point x="341" y="-200" type="line"/>
			<point x="431" y="-200" type="line"/>
		</contour>
		<contour>
			<point x="408.4" y="448" type="line"/>
			<point x="541.131" y="433.494"/>
			<point x="597" y="374.692"/>
			<point x="597" y="249.501" type="curve" smooth="yes"/>
			<point x="597" y="124.595"/>
			<point x="540.087" y="64.392"/>
			<point x="408.4" y="50" type="curve"/>
			<point x="407.8" y="-15" type="line"/>
			<point x="594.775" y="-3.92863"/>
			<point x="692" y="86.605"/>
			<point x="692" y="249.641" type="curve" smooth="yes"/>
			<point x="692" y="414.001"/>
			<point x="594.264" y="505.945"/>
			<point x="407.8" y="517" type="curve"/>
		</contour>
		<contour>
			<point x="364.2" y="517" type="line"/>
			<point x="178.019" y="505.967"/>
			<point x="80" y="414.286"/>
			<point x="80" y="251.178" type="curve" smooth="yes"/>
			<point x="80" y="87.2703"/>
			<point x="177.384" y="-3.93858"/>
			<point x="364.2" y="-15" type="curve"/>
			<point x="363.6" y="50" type="line"/>
			<point x="231.914" y="64.3919"/>
			<point x="175" y="124.597"/>
			<point x="175" y="249.504" type="curve" smooth="yes"/>
			<point x="175" y="374.228"/>
			<point x="231.363" y="433.548"/>
			<point x="363.6" y="448" type="curve"/>
		</contour>
	</outline>
</glyph>
<glyph name="uni0446.loclBGR" format="2">
	<advance width="620"/>
	<outline>
		<contour>
			<point x="80" y="171" type="curve" smooth="yes"/>
			<point x="80" y="500" type="line"/>
			<point x="170" y="500" type="line"/>
			<point x="170" y="169" type="line" smooth="yes"/>
			<point x="170" y="103"/>
			<point x="225" y="48"/>
			<point x="291" y="48" type="curve" smooth="yes"/>
			<point x="365" y="48"/>
			<point x="423" y="103"/>
			<point x="423" y="178" type="curve" smooth="yes"/>
			<point x="423" y="500" type="line"/>
			<point x="513" y="500" type="line"/>
			<point x="513" y="125" type="line" smooth="yes"/>
			<point x="513" y="58"/>
			<point x="550" y="48"/>
			<point x="602" y="48" type="curve"/>
			<point x="602" y="-138" type="line"/>
			<point x="530" y="-138" type="line"/>
			<point x="530" y="0" type="line"/>
			<point x="527" y="0" type="line" smooth="yes"/>
			<point x="472" y="0"/>
			<point x="435.726" y="26.2404"/>
			<point x="424" y="64" type="curve"/>
			<point x="391" y="13"/>
			<point x="340" y="-13"/>
			<point x="271" y="-13" type="curve" smooth="yes"/>
			<point x="143" y="-13"/>
			<point x="80" y="46"/>
		</contour>
	</outline>
</glyph>
<glyph name="uni0447.loclBGR" format="2">
	<advance width="564"/>
	<outline>
		<contour>
			<point x="261" y="198" type="curve" smooth="yes"/>
			<point x="335" y="198"/>
			<point x="394" y="253"/>
			<point x="394" y="328" type="curve" smooth="yes"/>
			<point x="394" y="500" type="line"/>
			<point x="484" y="500" type="line"/>
			<point x="484" y="0" type="line"/>
			<point x="394" y="0" type="line"/>
			<point x="394" y="214" type="line"/>
			<point x="361" y="163"/>
			<point x="310" y="137"/>
			<point x="241" y="137" type="curve" smooth="yes"/>
			<point x="113" y="137"/>
			<point x="50" y="196"/>
			<point x="50" y="321" type="curve" smooth="yes"/>
			<point x="50" y="500" type="line"/>
			<point x="140" y="500" type="line"/>
			<point x="140" y="319" type="line" smooth="yes"/>
			<point x="140" y="253"/>
			<point x="195" y="198"/>
		</contour>
	</outline>
</glyph>
<glyph name="uni044C.loclBGR" format="2">
	<advance width="583"/>
	<outline>
		<contour>
			<point x="80" y="190" type="curve" smooth="yes"/>
			<point x="80" y="500" type="line"/>
			<point x="170" y="500" type="line"/>
			<point x="170" y="325" type="line"/>
			<point x="195.279" y="358.68"/>
			<point x="266.552" y="383"/>
			<point x="321.067" y="383" type="curve" smooth="yes"/>
			<point x="447" y="383"/>
			<point x="523" y="325"/>
			<point x="523" y="190" type="curve" smooth="yes"/>
			<point x="523" y="68.6805"/>
			<point x="447" y="-13"/>
			<point x="305.516" y="-13" type="curve" smooth="yes"/>
			<point x="161" y="-13"/>
			<point x="80" y="63.9643"/>
		</contour>
		<contour>
			<point x="174" y="190" type="curve" smooth="yes"/>
			<point x="174" y="111"/>
			<point x="212.15" y="52"/>
			<point x="306.52" y="52" type="curve" smooth="yes"/>
			<point x="394.866" y="52"/>
			<point x="429" y="111"/>
			<point x="429" y="190" type="curve" smooth="yes"/>
			<point x="429" y="267"/>
			<point x="394.866" y="319"/>
			<point x="306.52" y="319" type="curve" smooth="yes"/>
			<point x="212.15" y="319"/>
			<point x="174" y="267"/>
		</contour>
	</outline>
</glyph>
